<svg xmlns="http://www.w3.org/2000/svg" width="37" height="37" viewBox="0 0 37 37" fill="none">
  <path d="M33.9166 18.5C33.9166 27.01 27.0099 33.9167 18.4999 33.9167C9.98992 33.9167 3.08325 27.01 3.08325 18.5C3.08325 9.99001 9.98992 3.08334 18.4999 3.08334" stroke="#FB6039" stroke-width="3" stroke-linecap="round" stroke-linejoin="round"/>
  <path d="M12.033 22.8554C12.3105 23.3179 12.6496 23.7496 13.035 24.135C15.8717 26.9717 20.4813 26.9717 23.3334 24.135C24.4896 22.9788 25.1525 21.5141 25.3684 20.0187" stroke="#FB6039" stroke-width="2" stroke-linecap="round" stroke-linejoin="round"/>
  <path d="M11 17.9529C11.2158 16.4421 11.8788 14.9929 13.035 13.8366C15.8717 10.9999 20.4812 10.9999 23.3333 13.8366C23.7342 14.2374 24.0579 14.6691 24.3354 15.1162" stroke="#FB6039" stroke-width="2" stroke-linecap="round" stroke-linejoin="round"/>
  <path d="M11.7407 26.9715V22.8553H15.8569" stroke="#FB6039" stroke-width="2" stroke-linecap="round" stroke-linejoin="round"/>
  <path d="M24.6284 11V15.1162H20.5122" stroke="#FB6039" stroke-width="2" stroke-linecap="round" stroke-linejoin="round"/>
</svg>