<svg width="30" height="31" viewBox="0 0 30 31" fill="none" xmlns="http://www.w3.org/2000/svg">
<rect y="0.5" width="30" height="30" rx="8" fill="#F91E5A"/>
<path fill-rule="evenodd" clip-rule="evenodd" d="M13.6666 10C13.6224 10 13.58 10.0176 13.5488 10.0488C13.5175 10.0801 13.5 10.1225 13.5 10.1667V11.6667H16.5V10.1667C16.5 10.1225 16.4824 10.0801 16.4511 10.0488C16.4199 10.0176 16.3775 10 16.3333 10H13.6666ZM10.8767 12.6667L11.4982 20.1251C11.4994 20.139 11.5 20.1528 11.5 20.1667C11.5 20.3877 11.5878 20.5996 11.744 20.7559C11.9003 20.9122 12.1123 21 12.3333 21H17.6666C17.8876 21 18.0996 20.9122 18.2559 20.7559C18.4122 20.5996 18.5 20.3877 18.5 20.1667C18.5 20.1528 18.5005 20.139 18.5017 20.1251L19.1232 12.6667H10.8767ZM20.1267 12.6667L19.4998 20.1891C19.494 20.6672 19.3015 21.1245 18.963 21.463C18.6192 21.8068 18.1529 22 17.6666 22H12.3333C11.8471 22 11.3807 21.8068 11.0369 21.463C10.6984 21.1245 10.5059 20.6672 10.5001 20.1891L9.87323 12.6667H9.66663C9.39048 12.6667 9.16663 12.4428 9.16663 12.1667C9.16663 11.8905 9.39048 11.6667 9.66663 11.6667H12.5V10.1667C12.5 9.85725 12.6229 9.5605 12.8417 9.34171C13.0605 9.12292 13.3572 9 13.6666 9H16.3333C16.6427 9 16.9395 9.12292 17.1582 9.34171C17.377 9.5605 17.5 9.85725 17.5 10.1667V11.6667H20.3333C20.6094 11.6667 20.8333 11.8905 20.8333 12.1667C20.8333 12.4428 20.6094 12.6667 20.3333 12.6667H20.1267ZM13.6666 14.3333C13.9428 14.3333 14.1666 14.5572 14.1666 14.8333V18.8333C14.1666 19.1095 13.9428 19.3333 13.6666 19.3333C13.3905 19.3333 13.1666 19.1095 13.1666 18.8333V14.8333C13.1666 14.5572 13.3905 14.3333 13.6666 14.3333ZM16.3333 14.3333C16.6094 14.3333 16.8333 14.5572 16.8333 14.8333V18.8333C16.8333 19.1095 16.6094 19.3333 16.3333 19.3333C16.0571 19.3333 15.8333 19.1095 15.8333 18.8333V14.8333C15.8333 14.5572 16.0571 14.3333 16.3333 14.3333Z" fill="white"/>
</svg>
