<svg xmlns="http://www.w3.org/2000/svg" width="18" height="19" viewBox="0 0 18 19" fill="none">
<path fill-rule="evenodd" clip-rule="evenodd" d="M12.2705 0.0266131C13.4373 -0.122583 14.6177 0.354533 15.8171 1.48308L15.8185 1.48439C17.0219 2.62248 17.5698 3.77697 17.4876 4.95285C17.4081 6.0891 16.7494 7.05081 15.9983 7.84437M15.9983 7.84437L7.79239 16.5301C7.56106 16.782 7.24956 16.9953 6.95427 17.1532C6.65517 17.3131 6.30921 17.45 5.98442 17.5077L5.97943 17.5086L2.76058 18.0584C1.98001 18.193 1.23151 17.9979 0.69831 17.4923C0.165856 16.9873 -0.0694297 16.251 0.0177345 15.4665L0.0179903 15.4642L0.389594 12.2102C0.432753 11.8865 0.552968 11.5362 0.694676 11.2323C0.835876 10.9295 1.02853 10.6085 1.25651 10.3658L1.25797 10.3642L9.46797 1.67425C10.2195 0.880371 11.1431 0.170786 12.2705 0.0266131M10.5578 2.70491L2.34978 11.3928C2.26781 11.4803 2.15521 11.6495 2.05412 11.8663C1.95486 12.0791 1.89524 12.2761 1.87737 12.4026L1.50856 15.6321L1.50845 15.6332C1.46594 16.0181 1.58557 16.2664 1.73048 16.4039C1.87478 16.5407 2.12628 16.6456 2.50572 16.5802L2.50687 16.58L5.72398 16.0305C5.84925 16.0079 6.04227 15.9399 6.24703 15.8304C6.45461 15.7194 6.61076 15.5997 6.68893 15.514L6.69789 15.5042L14.908 6.81425C15.5766 6.1079 15.9482 5.46425 15.9912 4.84826C16.0315 4.2718 15.7945 3.52654 14.7886 2.575C13.7883 1.63401 13.0339 1.44121 12.4608 1.5145C11.8484 1.59281 11.2261 1.99903 10.5578 2.70491Z" fill="#A0AEC0"/>
<path fill-rule="evenodd" clip-rule="evenodd" d="M8.52769 2.89825C8.93697 2.83448 9.32044 3.11457 9.38421 3.52385C9.76133 5.94447 11.7259 7.79708 14.1683 8.04308C14.5804 8.08459 14.8809 8.45234 14.8394 8.86446C14.7979 9.27659 14.4301 9.57704 14.018 9.53553C10.9004 9.22153 8.38496 6.85414 7.90209 3.75476C7.83832 3.34548 8.11842 2.96201 8.52769 2.89825Z" fill="#A0AEC0"/>
</svg>