<svg xmlns="http://www.w3.org/2000/svg" width="51" height="50" viewBox="0 0 51 50" fill="none">
<path d="M39.5413 14.0625H24.4288C23.97 14.0629 23.5279 13.8899 23.1913 13.5781L20.0663 10.686C19.1508 9.83969 17.9489 9.37133 16.7022 9.37502H8.81318C7.50116 9.37626 6.24322 9.89801 5.31548 10.8258C4.38774 11.7535 3.86599 13.0114 3.86475 14.3235V35.6766C3.86599 36.9886 4.38774 38.2465 5.31548 39.1743C6.24322 40.102 7.50116 40.6238 8.81318 40.625H39.5413C40.8533 40.6238 42.1113 40.102 43.039 39.1743C43.9668 38.2465 44.4885 36.9886 44.4897 35.6766V19.011C44.4885 17.6989 43.9668 16.441 43.039 15.5133C42.1113 14.5855 40.8533 14.0638 39.5413 14.0625Z" fill="#FFC107"/>
<path d="M42.2772 20.3125H14.2756C13.1928 20.3152 12.144 20.6917 11.3067 21.3784C10.4694 22.0651 9.89488 23.0198 9.68032 24.0812L6.74439 38.75C6.70235 38.9765 6.71019 39.2095 6.76735 39.4327C6.8245 39.6559 6.92961 39.864 7.07535 40.0425C7.22109 40.2209 7.40397 40.3655 7.61126 40.4661C7.81854 40.5667 8.04526 40.6209 8.27564 40.625H40.0881C41.171 40.6223 42.2198 40.2458 43.0571 39.5591C43.8944 38.8724 44.4689 37.9177 44.6835 36.8562L46.871 25.9187C46.9979 25.24 46.9749 24.5417 46.8035 23.8728C46.6322 23.2039 46.3166 22.5805 45.879 22.0464C45.4413 21.5123 44.8922 21.0803 44.27 20.7808C43.6478 20.4813 42.9677 20.3215 42.2772 20.3125Z" fill="#FFD54F"/>
</svg>