<svg xmlns="http://www.w3.org/2000/svg" width="26" height="26" viewBox="0 0 26 26" fill="none">
  <path d="M13.7691 11.6894C13.6661 11.5907 13.5446 11.5134 13.4116 11.4619C13.1479 11.3535 12.852 11.3535 12.5883 11.4619C12.4553 11.5134 12.3338 11.5907 12.2308 11.6894L10.0641 13.856C9.86013 14.06 9.74553 14.3367 9.74553 14.6252C9.74553 14.9137 9.86013 15.1904 10.0641 15.3944C10.2681 15.5983 10.5448 15.713 10.8333 15.713C11.1218 15.713 11.3985 15.5983 11.6025 15.3944L11.9166 15.0694V17.8752C11.9166 18.1625 12.0308 18.4381 12.2339 18.6412C12.4371 18.8444 12.7126 18.9585 13 18.9585C13.2873 18.9585 13.5628 18.8444 13.766 18.6412C13.9692 18.4381 14.0833 18.1625 14.0833 17.8752V15.0694L14.3975 15.3944C14.4982 15.4959 14.618 15.5765 14.75 15.6315C14.882 15.6865 15.0236 15.7148 15.1666 15.7148C15.3096 15.7148 15.4512 15.6865 15.5833 15.6315C15.7153 15.5765 15.8351 15.4959 15.9358 15.3944C16.0373 15.2936 16.1179 15.1738 16.1729 15.0418C16.2279 14.9098 16.2562 14.7682 16.2562 14.6252C16.2562 14.4822 16.2279 14.3406 16.1729 14.2086C16.1179 14.0765 16.0373 13.9567 15.9358 13.856L13.7691 11.6894ZM20.5833 5.95852H13.78L13.4333 4.87519C13.2086 4.23952 12.7917 3.68948 12.2404 3.30128C11.6892 2.91307 11.0308 2.70592 10.3566 2.70852H5.41663C4.55467 2.70852 3.72802 3.05093 3.11853 3.66042C2.50904 4.26992 2.16663 5.09657 2.16663 5.95852V20.0419C2.16663 20.9038 2.50904 21.7305 3.11853 22.34C3.72802 22.9494 4.55467 23.2919 5.41663 23.2919H20.5833C21.4452 23.2919 22.2719 22.9494 22.8814 22.34C23.4909 21.7305 23.8333 20.9038 23.8333 20.0419V9.20852C23.8333 8.34657 23.4909 7.51992 22.8814 6.91042C22.2719 6.30093 21.4452 5.95852 20.5833 5.95852ZM21.6666 20.0419C21.6666 20.3292 21.5525 20.6047 21.3493 20.8079C21.1462 21.0111 20.8706 21.1252 20.5833 21.1252H5.41663C5.12931 21.1252 4.85376 21.0111 4.65059 20.8079C4.44743 20.6047 4.33329 20.3292 4.33329 20.0419V5.95852C4.33329 5.6712 4.44743 5.39565 4.65059 5.19249C4.85376 4.98932 5.12931 4.87519 5.41663 4.87519H10.3566C10.5837 4.8746 10.8053 4.94541 10.99 5.0776C11.1747 5.20979 11.3131 5.39668 11.3858 5.61185L11.9708 7.38852C12.0435 7.60369 12.1819 7.79058 12.3666 7.92278C12.5513 8.05497 12.7728 8.12577 13 8.12519H20.5833C20.8706 8.12519 21.1462 8.23932 21.3493 8.44249C21.5525 8.64565 21.6666 8.9212 21.6666 9.20852V20.0419Z" fill="black"/>
</svg>