<svg width="208" height="118" viewBox="0 0 208 118" fill="none" xmlns="http://www.w3.org/2000/svg">
<g filter="url(#filter0_d_28_1438)">
<rect x="30" y="15" width="158" height="68" rx="12" fill="white"/>
</g>
<path d="M45.97 32.24C45.97 32.6467 45.8767 33.02 45.69 33.36C45.5033 33.6933 45.2167 33.9633 44.83 34.17C44.4433 34.3767 43.9633 34.48 43.39 34.48H42.33V37H40.62V29.98H43.39C43.95 29.98 44.4233 30.0767 44.81 30.27C45.1967 30.4633 45.4867 30.73 45.68 31.07C45.8733 31.41 45.97 31.8 45.97 32.24ZM43.26 33.12C43.5867 33.12 43.83 33.0433 43.99 32.89C44.15 32.7367 44.23 32.52 44.23 32.24C44.23 31.96 44.15 31.7433 43.99 31.59C43.83 31.4367 43.5867 31.36 43.26 31.36H42.33V33.12H43.26ZM46.5202 34.2C46.5202 33.6267 46.6269 33.1233 46.8402 32.69C47.0602 32.2567 47.3569 31.9233 47.7302 31.69C48.1036 31.4567 48.5202 31.34 48.9802 31.34C49.3736 31.34 49.7169 31.42 50.0102 31.58C50.3102 31.74 50.5402 31.95 50.7002 32.21V31.42H52.4102V37H50.7002V36.21C50.5336 36.47 50.3002 36.68 50.0002 36.84C49.7069 37 49.3636 37.08 48.9702 37.08C48.5169 37.08 48.1036 36.9633 47.7302 36.73C47.3569 36.49 47.0602 36.1533 46.8402 35.72C46.6269 35.28 46.5202 34.7733 46.5202 34.2ZM50.7002 34.21C50.7002 33.7833 50.5802 33.4467 50.3402 33.2C50.1069 32.9533 49.8202 32.83 49.4802 32.83C49.1402 32.83 48.8502 32.9533 48.6102 33.2C48.3769 33.44 48.2602 33.7733 48.2602 34.2C48.2602 34.6267 48.3769 34.9667 48.6102 35.22C48.8502 35.4667 49.1402 35.59 49.4802 35.59C49.8202 35.59 50.1069 35.4667 50.3402 35.22C50.5802 34.9733 50.7002 34.6367 50.7002 34.21ZM59.3473 31.42L55.8473 39.65H54.0073L55.2873 36.81L53.0173 31.42H54.9273L56.2173 34.91L57.4973 31.42H59.3473ZM67.0857 31.36C67.779 31.36 68.329 31.57 68.7357 31.99C69.149 32.41 69.3557 32.9933 69.3557 33.74V37H67.6557V33.97C67.6557 33.61 67.559 33.3333 67.3657 33.14C67.179 32.94 66.919 32.84 66.5857 32.84C66.2524 32.84 65.989 32.94 65.7957 33.14C65.609 33.3333 65.5157 33.61 65.5157 33.97V37H63.8157V33.97C63.8157 33.61 63.719 33.3333 63.5257 33.14C63.339 32.94 63.079 32.84 62.7457 32.84C62.4124 32.84 62.149 32.94 61.9557 33.14C61.769 33.3333 61.6757 33.61 61.6757 33.97V37H59.9657V31.42H61.6757V32.12C61.849 31.8867 62.0757 31.7033 62.3557 31.57C62.6357 31.43 62.9524 31.36 63.3057 31.36C63.7257 31.36 64.099 31.45 64.4257 31.63C64.759 31.81 65.019 32.0667 65.2057 32.4C65.399 32.0933 65.6624 31.8433 65.9957 31.65C66.329 31.4567 66.6924 31.36 67.0857 31.36ZM75.8116 34.12C75.8116 34.28 75.8016 34.4467 75.7816 34.62H71.9116C71.9383 34.9667 72.0483 35.2333 72.2416 35.42C72.4416 35.6 72.685 35.69 72.9716 35.69C73.3983 35.69 73.695 35.51 73.8616 35.15H75.6816C75.5883 35.5167 75.4183 35.8467 75.1716 36.14C74.9316 36.4333 74.6283 36.6633 74.2616 36.83C73.895 36.9967 73.485 37.08 73.0316 37.08C72.485 37.08 71.9983 36.9633 71.5716 36.73C71.145 36.4967 70.8116 36.1633 70.5716 35.73C70.3316 35.2967 70.2116 34.79 70.2116 34.21C70.2116 33.63 70.3283 33.1233 70.5616 32.69C70.8016 32.2567 71.135 31.9233 71.5616 31.69C71.9883 31.4567 72.4783 31.34 73.0316 31.34C73.5716 31.34 74.0516 31.4533 74.4716 31.68C74.8916 31.9067 75.2183 32.23 75.4516 32.65C75.6916 33.07 75.8116 33.56 75.8116 34.12ZM74.0616 33.67C74.0616 33.3767 73.9616 33.1433 73.7616 32.97C73.5616 32.7967 73.3116 32.71 73.0116 32.71C72.725 32.71 72.4816 32.7933 72.2816 32.96C72.0883 33.1267 71.9683 33.3633 71.9216 33.67H74.0616ZM80.1138 31.36C80.7671 31.36 81.2871 31.5733 81.6738 32C82.0671 32.42 82.2638 33 82.2638 33.74V37H80.5638V33.97C80.5638 33.5967 80.4671 33.3067 80.2738 33.1C80.0804 32.8933 79.8204 32.79 79.4938 32.79C79.1671 32.79 78.9071 32.8933 78.7138 33.1C78.5204 33.3067 78.4238 33.5967 78.4238 33.97V37H76.7138V31.42H78.4238V32.16C78.5971 31.9133 78.8304 31.72 79.1238 31.58C79.4171 31.4333 79.7471 31.36 80.1138 31.36ZM86.562 35.55V37H85.692C85.072 37 84.5887 36.85 84.242 36.55C83.8954 36.2433 83.722 35.7467 83.722 35.06V32.84H83.042V31.42H83.722V30.06H85.432V31.42H86.552V32.84H85.432V35.08C85.432 35.2467 85.472 35.3667 85.552 35.44C85.632 35.5133 85.7654 35.55 85.952 35.55H86.562Z" fill="#6B7280"/>
<path d="M174 30V37M170.5 33.5H177.5" stroke="#F91E5A" stroke-width="1.5" stroke-linecap="round" stroke-linejoin="round"/>
<path fill-rule="evenodd" clip-rule="evenodd" d="M49.5459 69.8861H56.622V57.1133H49.5459V69.8861Z" fill="#FF5F00"/>
<path fill-rule="evenodd" clip-rule="evenodd" d="M49.9952 63.4997C49.9952 60.9084 51.2031 58.6005 53.084 57.1132C51.7083 56.0254 49.9728 55.3765 48.0863 55.3765C43.6203 55.3765 40 59.0134 40 63.4997C40 67.9859 43.6203 71.6229 48.0863 71.6229C49.9728 71.6229 51.7083 70.9739 53.084 69.8861C51.2031 68.3986 49.9952 66.091 49.9952 63.4997Z" fill="#EB001B"/>
<path fill-rule="evenodd" clip-rule="evenodd" d="M65.9155 68.5333V68.2181H65.8335L65.7394 68.435L65.6451 68.2181H65.5631V68.5333H65.6208V68.2955L65.7093 68.5006H65.7693L65.8578 68.2951V68.5333H65.9155ZM65.3964 68.5333V68.2718H65.5015V68.2186H65.2342V68.2718H65.3391V68.5333H65.3964ZM66.168 63.4997C66.168 67.9859 62.5476 71.6229 58.0818 71.6229C56.1953 71.6229 54.4595 70.9739 53.084 69.8861C54.9649 68.3989 56.1728 66.091 56.1728 63.4997C56.1728 60.9086 54.9649 58.6007 53.084 57.1132C54.4595 56.0254 56.1953 55.3765 58.0818 55.3765C62.5476 55.3765 66.168 59.0134 66.168 63.4997Z" fill="#F79E1B"/>
<path d="M83.656 58.494L84.286 59.614L82.368 60.328L84.286 61.042L83.642 62.19L82.046 60.93L82.34 62.96H81.052L81.318 60.93L79.722 62.218L79.05 61.028L80.954 60.314L79.05 59.628L79.694 58.48L81.332 59.74L81.052 57.696H82.354L82.046 59.74L83.656 58.494ZM90.7107 58.494L91.3407 59.614L89.4227 60.328L91.3407 61.042L90.6967 62.19L89.1007 60.93L89.3947 62.96H88.1067L88.3727 60.93L86.7767 62.218L86.1047 61.028L88.0087 60.314L86.1047 59.628L86.7487 58.48L88.3867 59.74L88.1067 57.696H89.4087L89.1007 59.74L90.7107 58.494ZM97.7654 58.494L98.3954 59.614L96.4774 60.328L98.3954 61.042L97.7514 62.19L96.1554 60.93L96.4494 62.96H95.1614L95.4274 60.93L93.8314 62.218L93.1594 61.028L95.0634 60.314L93.1594 59.628L93.8034 58.48L95.4414 59.74L95.1614 57.696H96.4634L96.1554 59.74L97.7654 58.494ZM104.82 58.494L105.45 59.614L103.532 60.328L105.45 61.042L104.806 62.19L103.21 60.93L103.504 62.96H102.216L102.482 60.93L100.886 62.218L100.214 61.028L102.118 60.314L100.214 59.628L100.858 58.48L102.496 59.74L102.216 57.696H103.518L103.21 59.74L104.82 58.494ZM110.835 60.314C110.891 59.446 111.223 58.7693 111.829 58.284C112.445 57.7987 113.229 57.556 114.181 57.556C114.835 57.556 115.399 57.6727 115.875 57.906C116.351 58.1393 116.711 58.4567 116.953 58.858C117.196 59.2593 117.317 59.712 117.317 60.216C117.317 60.7947 117.163 61.2893 116.855 61.7C116.547 62.1107 116.179 62.386 115.749 62.526V62.582C116.3 62.75 116.729 63.058 117.037 63.506C117.345 63.9447 117.499 64.5093 117.499 65.2C117.499 65.7507 117.373 66.2407 117.121 66.67C116.869 67.0993 116.496 67.44 116.001 67.692C115.507 67.9347 114.914 68.056 114.223 68.056C113.215 68.056 112.385 67.7993 111.731 67.286C111.087 66.7633 110.742 66.0167 110.695 65.046H112.235C112.273 65.5407 112.464 65.9467 112.809 66.264C113.155 66.572 113.621 66.726 114.209 66.726C114.779 66.726 115.217 66.572 115.525 66.264C115.833 65.9467 115.987 65.5407 115.987 65.046C115.987 64.3927 115.777 63.9307 115.357 63.66C114.947 63.38 114.312 63.24 113.453 63.24H113.089V61.924H113.467C114.223 61.9147 114.797 61.7887 115.189 61.546C115.591 61.3033 115.791 60.9207 115.791 60.398C115.791 59.95 115.647 59.5953 115.357 59.334C115.068 59.0633 114.657 58.928 114.125 58.928C113.603 58.928 113.197 59.0633 112.907 59.334C112.618 59.5953 112.445 59.922 112.389 60.314H110.835ZM120.058 65.83C120.954 65.0553 121.659 64.4207 122.172 63.926C122.695 63.422 123.129 62.8993 123.474 62.358C123.819 61.8167 123.992 61.2753 123.992 60.734C123.992 60.174 123.857 59.7353 123.586 59.418C123.325 59.1007 122.909 58.942 122.34 58.942C121.789 58.942 121.36 59.1193 121.052 59.474C120.753 59.8193 120.595 60.286 120.576 60.874H119.036C119.064 59.81 119.381 58.998 119.988 58.438C120.604 57.8687 121.383 57.584 122.326 57.584C123.343 57.584 124.137 57.864 124.706 58.424C125.285 58.984 125.574 59.7307 125.574 60.664C125.574 61.336 125.401 61.9847 125.056 62.61C124.72 63.226 124.314 63.7813 123.838 64.276C123.371 64.7613 122.774 65.326 122.046 65.97L121.416 66.53H125.854V67.86H119.05V66.698L120.058 65.83ZM128.978 62.666C128.007 62.1807 127.522 61.4153 127.522 60.37C127.522 59.866 127.648 59.404 127.9 58.984C128.152 58.564 128.53 58.2327 129.034 57.99C129.538 57.738 130.154 57.612 130.882 57.612C131.601 57.612 132.212 57.738 132.716 57.99C133.229 58.2327 133.612 58.564 133.864 58.984C134.116 59.404 134.242 59.866 134.242 60.37C134.242 60.8927 134.107 61.3547 133.836 61.756C133.575 62.148 133.225 62.4513 132.786 62.666C133.318 62.862 133.738 63.184 134.046 63.632C134.354 64.0707 134.508 64.5887 134.508 65.186C134.508 65.7927 134.354 66.3293 134.046 66.796C133.738 67.2627 133.309 67.622 132.758 67.874C132.207 68.126 131.582 68.252 130.882 68.252C130.182 68.252 129.557 68.126 129.006 67.874C128.465 67.622 128.04 67.2627 127.732 66.796C127.424 66.3293 127.27 65.7927 127.27 65.186C127.27 64.5793 127.424 64.0567 127.732 63.618C128.04 63.1793 128.455 62.862 128.978 62.666ZM132.716 60.566C132.716 60.0433 132.553 59.642 132.226 59.362C131.899 59.082 131.451 58.942 130.882 58.942C130.322 58.942 129.879 59.082 129.552 59.362C129.225 59.642 129.062 60.048 129.062 60.58C129.062 61.0467 129.23 61.4293 129.566 61.728C129.911 62.0173 130.35 62.162 130.882 62.162C131.414 62.162 131.853 62.0127 132.198 61.714C132.543 61.4153 132.716 61.0327 132.716 60.566ZM130.882 63.366C130.266 63.366 129.762 63.52 129.37 63.828C128.987 64.1267 128.796 64.5607 128.796 65.13C128.796 65.662 128.983 66.096 129.356 66.432C129.729 66.7587 130.238 66.922 130.882 66.922C131.517 66.922 132.016 66.754 132.38 66.418C132.753 66.082 132.94 65.6527 132.94 65.13C132.94 64.57 132.749 64.136 132.366 63.828C131.993 63.52 131.498 63.366 130.882 63.366ZM136.184 62.764C136.184 61.1493 136.454 59.8893 136.996 58.984C137.546 58.0693 138.489 57.612 139.824 57.612C141.158 57.612 142.096 58.0693 142.638 58.984C143.188 59.8893 143.464 61.1493 143.464 62.764C143.464 64.3973 143.188 65.676 142.638 66.6C142.096 67.5147 141.158 67.972 139.824 67.972C138.489 67.972 137.546 67.5147 136.996 66.6C136.454 65.676 136.184 64.3973 136.184 62.764ZM141.896 62.764C141.896 62.008 141.844 61.3687 141.742 60.846C141.648 60.3233 141.452 59.8987 141.154 59.572C140.855 59.236 140.412 59.068 139.824 59.068C139.236 59.068 138.792 59.236 138.494 59.572C138.195 59.8987 137.994 60.3233 137.892 60.846C137.798 61.3687 137.752 62.008 137.752 62.764C137.752 63.548 137.798 64.206 137.892 64.738C137.985 65.27 138.181 65.6993 138.48 66.026C138.788 66.3527 139.236 66.516 139.824 66.516C140.412 66.516 140.855 66.3527 141.154 66.026C141.462 65.6993 141.662 65.27 141.756 64.738C141.849 64.206 141.896 63.548 141.896 62.764Z" fill="#111827"/>
<defs>
<filter id="filter0_d_28_1438" x="0" y="0" width="208" height="118" filterUnits="userSpaceOnUse" color-interpolation-filters="sRGB">
<feFlood flood-opacity="0" result="BackgroundImageFix"/>
<feColorMatrix in="SourceAlpha" type="matrix" values="0 0 0 0 0 0 0 0 0 0 0 0 0 0 0 0 0 0 127 0" result="hardAlpha"/>
<feOffset dx="-5" dy="10"/>
<feGaussianBlur stdDeviation="12.5"/>
<feComposite in2="hardAlpha" operator="out"/>
<feColorMatrix type="matrix" values="0 0 0 0 0.611765 0 0 0 0 0.639216 0 0 0 0 0.686275 0 0 0 0.08 0"/>
<feBlend mode="normal" in2="BackgroundImageFix" result="effect1_dropShadow_28_1438"/>
<feBlend mode="normal" in="SourceGraphic" in2="effect1_dropShadow_28_1438" result="shape"/>
</filter>
</defs>
</svg>
