<svg width="50" height="50" viewBox="0 0 50 50" fill="none" xmlns="http://www.w3.org/2000/svg">
<rect width="50" height="50" rx="12" fill="#E7EDFF"/>
<path d="M36.6308 20.0314C36.6132 19.9662 36.5919 19.9021 36.567 19.8394C36.5354 19.7685 36.5001 19.6992 36.4613 19.6319C36.436 19.5802 36.4075 19.5301 36.3758 19.482C36.2999 19.3686 36.2132 19.2627 36.1168 19.166C36.0206 19.07 35.9152 18.9837 35.8021 18.9083C35.7401 18.8682 35.6758 18.8317 35.6095 18.7991C35.5542 18.7671 35.4969 18.7386 35.438 18.7137C35.3629 18.6844 35.2861 18.6597 35.2081 18.6398C35.1559 18.6217 35.1026 18.607 35.0486 18.5957C34.9148 18.5692 34.7788 18.5558 34.6424 18.5557H29.7331C29.1906 18.5556 28.6695 18.7672 28.2806 19.1454C27.8917 19.5236 27.6657 20.0386 27.6506 20.5809C27.6354 21.1232 27.8325 21.65 28.1997 22.0492C28.567 22.4485 29.0755 22.6888 29.6172 22.7189L24.3309 28.0046C23.9411 28.3956 23.7224 28.9254 23.7229 29.4775C23.7234 30.0296 23.943 30.5589 24.3335 30.9492C24.724 31.3396 25.2535 31.5589 25.8056 31.5592C26.3577 31.5594 26.8873 31.3405 27.2782 30.9505L32.5638 25.6649C32.594 26.2065 32.8342 26.7149 33.2334 27.0821C33.6326 27.4494 34.1593 27.6464 34.7015 27.6314C35.2437 27.6164 35.7587 27.3905 36.1369 27.0017C36.5152 26.613 36.7269 26.092 36.7271 25.5496V20.6404C36.7272 20.5042 36.7135 20.3683 36.6864 20.2348C36.6717 20.166 36.6531 20.0981 36.6308 20.0314ZM35.3382 25.5496C35.3382 25.7338 35.265 25.9104 35.1348 26.0407C35.0046 26.1709 34.8279 26.2441 34.6438 26.2441C34.4596 26.2441 34.283 26.1709 34.1527 26.0407C34.0225 25.9104 33.9493 25.7338 33.9493 25.5496V23.9919C33.9493 23.8545 33.9086 23.7203 33.8323 23.6061C33.756 23.4919 33.6475 23.4029 33.5206 23.3503C33.3938 23.2978 33.2541 23.284 33.1194 23.3108C32.9847 23.3376 32.861 23.4038 32.7639 23.5009L26.2962 29.9686C26.1658 30.0981 25.9894 30.1707 25.8056 30.1705C25.6218 30.1702 25.4456 30.0971 25.3156 29.9672C25.1856 29.8373 25.1124 29.6611 25.112 29.4773C25.1116 29.2935 25.1841 29.1171 25.3136 28.9866L31.7819 22.5189C31.879 22.4218 31.9452 22.298 31.972 22.1633C31.9988 22.0286 31.985 21.889 31.9325 21.7621C31.8799 21.6352 31.7909 21.5268 31.6767 21.4505C31.5625 21.3742 31.4283 21.3334 31.2909 21.3334H29.7331C29.549 21.3334 29.3723 21.2603 29.2421 21.13C29.1119 20.9998 29.0387 20.8232 29.0387 20.639C29.0387 20.4548 29.1119 20.2782 29.2421 20.148C29.3723 20.0177 29.549 19.9446 29.7331 19.9446H34.6424C34.6838 19.9444 34.7251 19.9483 34.7658 19.9561L34.8363 19.9785L34.9259 20.0083L35.0276 20.0612C35.0661 20.0865 35.102 20.1156 35.1347 20.148C35.1621 20.1758 35.1875 20.2055 35.2107 20.2369L35.2466 20.3067L35.2914 20.4003L35.3239 20.5047C35.3334 20.5493 35.3382 20.5948 35.3382 20.6404L35.3382 25.5496Z" fill="#0052FF"/>
<path d="M27.5101 21.5225C27.5109 21.2488 27.4574 20.9776 27.3526 20.7248C27.2478 20.4719 27.0939 20.2424 26.8998 20.0495C26.5029 19.6708 25.9754 19.4595 25.4268 19.4595C24.8782 19.4595 24.3507 19.6708 23.9538 20.0495L18.6675 25.3351C18.6374 24.7936 18.3972 24.2851 17.9981 23.9179C17.599 23.5506 17.0723 23.3536 16.5301 23.3686C15.9879 23.3836 15.473 23.6095 15.0948 23.9983C14.7166 24.3871 14.505 24.908 14.5049 25.4504V30.3597C14.5051 30.4997 14.5192 30.6394 14.5469 30.7767C14.5571 30.8256 14.5713 30.8724 14.6005 30.9687C14.6181 31.0338 14.6394 31.0979 14.6643 31.1606C14.6974 31.2345 14.7343 31.3067 14.7748 31.3769C14.7985 31.4224 14.8229 31.4678 14.8555 31.518C14.9314 31.6315 15.0182 31.7373 15.1145 31.834C15.2107 31.93 15.3161 32.0163 15.4292 32.0917C15.491 32.1316 15.5551 32.1679 15.6211 32.2002C15.6757 32.2321 15.7324 32.2604 15.7907 32.285C15.8664 32.3147 15.9439 32.3398 16.0226 32.3603C16.075 32.3782 16.1285 32.393 16.1827 32.4043C16.3164 32.4309 16.4525 32.4443 16.5889 32.4444H21.4982C22.0406 32.4444 22.5618 32.2328 22.9507 31.8546C23.3396 31.4764 23.5656 30.9614 23.5807 30.4191C23.5959 29.8768 23.3988 29.3501 23.0316 28.9508C22.6643 28.5515 22.1558 28.3112 21.6141 28.2811L26.8998 22.9954C27.0938 22.8024 27.2477 22.5729 27.3524 22.3201C27.4572 22.0672 27.5108 21.7961 27.5101 21.5225ZM25.9178 22.0134L19.4501 28.4812C19.353 28.5783 19.2868 28.702 19.26 28.8367C19.2332 28.9714 19.247 29.111 19.2995 29.2379C19.3521 29.3648 19.4411 29.4733 19.5553 29.5496C19.6695 29.6259 19.8037 29.6666 19.9411 29.6666H21.4982C21.6823 29.6666 21.859 29.7398 21.9892 29.87C22.1194 30.0002 22.1926 30.1769 22.1926 30.361C22.1926 30.5452 22.1194 30.7218 21.9892 30.8521C21.859 30.9823 21.6823 31.0555 21.4982 31.0555H16.5889C16.547 31.0556 16.5052 31.0515 16.4641 31.0433L16.395 31.0216L16.3041 30.9911L16.2037 30.9388C16.1652 30.9135 16.1293 30.8844 16.0966 30.852C16.0651 30.8207 16.0373 30.7859 16.0138 30.7483C16.0098 30.7401 15.984 30.692 15.9799 30.6845L15.9399 30.5997L15.908 30.5007C15.8989 30.4543 15.8941 30.407 15.8938 30.3597V25.4504C15.895 25.2671 15.9686 25.0917 16.0986 24.9624C16.2287 24.8332 16.4046 24.7607 16.5879 24.7607C16.7712 24.7607 16.9471 24.8332 17.0771 24.9624C17.2072 25.0917 17.2808 25.2671 17.282 25.4504V27.0082C17.282 27.1455 17.3227 27.2798 17.399 27.394C17.4753 27.5082 17.5838 27.5972 17.7107 27.6497C17.8375 27.7023 17.9772 27.716 18.1119 27.6892C18.2466 27.6624 18.3703 27.5963 18.4674 27.4991L24.9365 21.0314C25.0685 20.9049 25.2444 20.8343 25.4272 20.8344C25.6101 20.8346 25.7859 20.9054 25.9178 21.0321C25.9823 21.0965 26.0334 21.173 26.0683 21.2572C26.1032 21.3414 26.1212 21.4317 26.1212 21.5228C26.1212 21.6139 26.1032 21.7042 26.0683 21.7884C26.0334 21.8726 25.9823 21.949 25.9178 22.0134Z" fill="#0052FF"/>
</svg>
