<svg width="37" height="37" viewBox="0 0 37 37" fill="none" xmlns="http://www.w3.org/2000/svg">
<path d="M33.9166 18.5002C33.9166 27.0102 27.01 33.9168 18.5 33.9168C9.98998 33.9168 3.08331 27.0102 3.08331 18.5002C3.08331 9.99016 9.98998 3.0835 18.5 3.0835" stroke="white" stroke-width="3" stroke-linecap="round" stroke-linejoin="round"/>
<path d="M9.66669 17.1663C9.66669 16.7061 10.0398 16.333 10.5 16.333C10.9603 16.333 11.3334 16.7061 11.3334 17.1663V26.333C11.3334 26.7932 10.9603 27.1663 10.5 27.1663C10.0398 27.1663 9.66669 26.7932 9.66669 26.333V17.1663Z" fill="white"/>
<path d="M11.0279 20.0889C10.6717 20.3804 10.1467 20.328 9.85519 19.9719C9.56368 19.6157 9.61607 19.0907 9.97221 18.7992L11.9841 17.1524C12.6961 16.5696 13.6706 16.425 14.5211 16.7759L16.7162 17.6817C18.2342 18.3423 18.8344 19.5072 18.2082 20.8666C17.5405 22.316 15.9876 22.3787 13.9144 21.3998C13.4982 21.2033 13.3201 20.7066 13.5166 20.2904C13.7131 19.8743 14.2098 19.6962 14.626 19.8927C15.9718 20.5281 16.5397 20.5052 16.6944 20.1693C16.8906 19.7432 16.7791 19.5267 16.0658 19.2162L13.8855 18.3166C13.602 18.1996 13.2771 18.2478 13.0398 18.4421L11.0279 20.0889Z" fill="white"/>
<path d="M23.2964 18.9223C24.4282 18.4071 25.4263 18.4979 26.0255 19.3596C26.7481 20.3989 26.3562 21.4338 25.4201 22.309C25.0748 22.6319 23.305 24.0196 19.9918 26.569C19.3434 27.068 18.4918 27.2181 17.7119 26.9709L10.5634 23.2125C10.1247 23.0735 9.88175 22.6051 10.0208 22.1664C10.1598 21.7276 10.6282 21.4847 11.067 21.6237L18.2154 25.3822C18.4754 25.4646 18.7593 25.4145 18.9754 25.2482C22.19 22.7745 23.9984 21.3567 24.2819 21.0916C24.6879 20.712 24.7753 20.4811 24.6571 20.3111C24.6026 20.2327 24.4676 20.2204 24.0212 20.4227L19.1728 22.9027C18.9768 23.003 18.7491 23.0216 18.5394 22.9546L14.0046 21.5045C13.5663 21.3643 13.3245 20.8953 13.4647 20.4569C13.6049 20.0185 14.0739 19.7768 14.5123 19.917L18.7198 21.2624L23.2964 18.9223Z" fill="white"/>
<path d="M23.8334 12.1667C24.2936 12.1667 24.6667 11.7936 24.6667 11.3333C24.6667 10.8731 24.2936 10.5 23.8334 10.5H19.6783C18.7578 10.5 18.0116 11.2462 18.0116 12.1667V13C18.0116 13.9205 18.7578 14.6667 19.6783 14.6667H23V15.5H18.8334C18.3731 15.5 18 15.8731 18 16.3333C18 16.7936 18.3731 17.1667 18.8334 17.1667H23C23.9205 17.1667 24.6667 16.4205 24.6667 15.5V14.6667C24.6667 13.7462 23.9205 13 23 13H19.6783V12.1667H23.8334Z" fill="white"/>
<path d="M22.1667 17.1594C22.1667 17.6196 21.7936 17.9927 21.3333 17.9927C20.8731 17.9927 20.5 17.6196 20.5 17.1594V16.3333C20.5 15.8731 20.8731 15.5 21.3333 15.5C21.7936 15.5 22.1667 15.8731 22.1667 16.3333V17.1594Z" fill="white"/>
<path d="M22.1667 11.3332C22.1667 11.7934 21.7936 12.1665 21.3333 12.1665C20.8731 12.1665 20.5 11.7934 20.5 11.3332V10.4998C20.5 10.0396 20.8731 9.6665 21.3333 9.6665C21.7936 9.6665 22.1667 10.0396 22.1667 10.4998V11.3332Z" fill="white"/>
</svg>
