<svg width="124" height="41" viewBox="0 0 124 41" fill="none" xmlns="http://www.w3.org/2000/svg">
<path d="M0 8C0 3.58172 3.58172 0 8 0H116C120.418 0 124 3.58172 124 8V33C124 37.4183 120.418 41 116 41H8C3.58172 41 0 37.4183 0 33V8Z" fill="#2D60FF"/>
<path d="M0 8C0 3.58172 3.58172 0 8 0H116C120.418 0 124 3.58172 124 8V33C124 37.4183 120.418 41 116 41H8C3.58172 41 0 37.4183 0 33V8Z" fill="white" fill-opacity="0.9"/>
<path d="M32.0565 14.6364H34.6705V22.6655C34.6705 23.567 34.4552 24.3558 34.0245 25.032C33.5979 25.7081 33.0003 26.2353 32.2316 26.6136C31.4629 26.9879 30.5674 27.1751 29.5451 27.1751C28.5189 27.1751 27.6214 26.9879 26.8527 26.6136C26.084 26.2353 25.4863 25.7081 25.0597 25.032C24.6331 24.3558 24.4198 23.567 24.4198 22.6655V14.6364H27.0338V22.4421C27.0338 22.913 27.1364 23.3316 27.3417 23.6978C27.5509 24.064 27.8447 24.3518 28.2231 24.5611C28.6014 24.7704 29.0421 24.875 29.5451 24.875C30.0522 24.875 30.4929 24.7704 30.8672 24.5611C31.2455 24.3518 31.5373 24.064 31.7426 23.6978C31.9519 23.3316 32.0565 22.913 32.0565 22.4421V14.6364ZM36.7729 30.4773V17.7273H39.3084V19.2848H39.4231C39.5358 19.0353 39.6988 18.7817 39.9121 18.5241C40.1294 18.2625 40.4111 18.0452 40.7572 17.8722C41.1074 17.6951 41.542 17.6065 42.0612 17.6065C42.7373 17.6065 43.3612 17.7836 43.9327 18.1378C44.5042 18.4879 44.961 19.0172 45.303 19.7255C45.6451 20.4298 45.8162 21.3132 45.8162 22.3757C45.8162 23.41 45.6492 24.2834 45.3151 24.9957C44.9851 25.7041 44.5343 26.2414 43.9628 26.6076C43.3954 26.9698 42.7595 27.1509 42.0552 27.1509C41.5561 27.1509 41.1315 27.0684 40.7814 26.9034C40.4353 26.7384 40.1515 26.5311 39.9302 26.2816C39.7088 26.0281 39.5398 25.7725 39.4231 25.5149H39.3446V30.4773H36.7729ZM39.2903 22.3636C39.2903 22.915 39.3667 23.396 39.5197 23.8065C39.6726 24.217 39.894 24.5369 40.1837 24.7663C40.4735 24.9917 40.8257 25.1044 41.2402 25.1044C41.6588 25.1044 42.0129 24.9897 42.3027 24.7603C42.5925 24.5269 42.8118 24.2049 42.9607 23.7944C43.1137 23.3799 43.1901 22.9029 43.1901 22.3636C43.1901 21.8284 43.1157 21.3575 42.9668 20.951C42.8178 20.5445 42.5985 20.2266 42.3087 19.9972C42.019 19.7678 41.6628 19.6531 41.2402 19.6531C40.8216 19.6531 40.4675 19.7637 40.1777 19.9851C39.8919 20.2064 39.6726 20.5204 39.5197 20.9268C39.3667 21.3333 39.2903 21.8123 39.2903 22.3636ZM50.1024 14.6364V27H47.5307V14.6364H50.1024ZM56.3521 27.1811C55.4144 27.1811 54.6034 26.9819 53.9193 26.5835C53.2391 26.181 52.7139 25.6216 52.3436 24.9052C51.9734 24.1848 51.7882 23.3497 51.7882 22.3999C51.7882 21.442 51.9734 20.6049 52.3436 19.8885C52.7139 19.1681 53.2391 18.6087 53.9193 18.2102C54.6034 17.8078 55.4144 17.6065 56.3521 17.6065C57.2899 17.6065 58.0988 17.8078 58.779 18.2102C59.4632 18.6087 59.9904 19.1681 60.3607 19.8885C60.7309 20.6049 60.9161 21.442 60.9161 22.3999C60.9161 23.3497 60.7309 24.1848 60.3607 24.9052C59.9904 25.6216 59.4632 26.181 58.779 26.5835C58.0988 26.9819 57.2899 27.1811 56.3521 27.1811ZM56.3642 25.1889C56.7908 25.1889 57.147 25.0682 57.4328 24.8267C57.7185 24.5812 57.9338 24.2472 58.0787 23.8246C58.2276 23.402 58.3021 22.921 58.3021 22.3817C58.3021 21.8424 58.2276 21.3615 58.0787 20.9389C57.9338 20.5163 57.7185 20.1823 57.4328 19.9368C57.147 19.6913 56.7908 19.5685 56.3642 19.5685C55.9336 19.5685 55.5714 19.6913 55.2776 19.9368C54.9878 20.1823 54.7685 20.5163 54.6195 20.9389C54.4747 21.3615 54.4022 21.8424 54.4022 22.3817C54.4022 22.921 54.4747 23.402 54.6195 23.8246C54.7685 24.2472 54.9878 24.5812 55.2776 24.8267C55.5714 25.0682 55.9336 25.1889 56.3642 25.1889ZM65.2325 27.1751C64.6408 27.1751 64.1136 27.0724 63.6508 26.8672C63.188 26.6579 62.8217 26.35 62.5521 25.9435C62.2864 25.533 62.1536 25.0219 62.1536 24.4102C62.1536 23.895 62.2482 23.4624 62.4374 23.1122C62.6265 22.7621 62.8841 22.4804 63.2101 22.267C63.5361 22.0537 63.9064 21.8928 64.3209 21.7841C64.7395 21.6754 65.1781 21.599 65.6369 21.5547C66.1762 21.4983 66.6109 21.446 66.9409 21.3977C67.2709 21.3454 67.5104 21.2689 67.6593 21.1683C67.8082 21.0677 67.8827 20.9188 67.8827 20.7216V20.6854C67.8827 20.303 67.7619 20.0072 67.5205 19.7979C67.283 19.5887 66.9449 19.484 66.5063 19.484C66.0434 19.484 65.6752 19.5866 65.4015 19.7919C65.1278 19.9931 64.9467 20.2467 64.8582 20.5526L62.4796 20.3594C62.6004 19.7959 62.8378 19.3089 63.192 18.8984C63.5462 18.4839 64.0029 18.166 64.5624 17.9446C65.1258 17.7192 65.7778 17.6065 66.5183 17.6065C67.0335 17.6065 67.5265 17.6669 67.9974 17.7876C68.4723 17.9084 68.8929 18.0955 69.2591 18.3491C69.6294 18.6026 69.9212 18.9286 70.1345 19.3271C70.3478 19.7215 70.4544 20.1944 70.4544 20.7457V27H68.0155V25.7141H67.943C67.7941 26.0039 67.5949 26.2595 67.3454 26.4808C67.0959 26.6982 66.796 26.8692 66.4459 26.994C66.0957 27.1147 65.6913 27.1751 65.2325 27.1751ZM65.969 25.4002C66.3473 25.4002 66.6813 25.3258 66.9711 25.1768C67.2609 25.0239 67.4883 24.8187 67.6533 24.5611C67.8183 24.3035 67.9008 24.0117 67.9008 23.6857V22.7017C67.8203 22.754 67.7096 22.8023 67.5688 22.8466C67.4319 22.8868 67.277 22.9251 67.1039 22.9613C66.9309 22.9935 66.7578 23.0237 66.5847 23.0518C66.4117 23.076 66.2547 23.0981 66.1139 23.1183C65.812 23.1625 65.5484 23.233 65.323 23.3295C65.0976 23.4261 64.9226 23.5569 64.7978 23.7219C64.673 23.8829 64.6107 24.0842 64.6107 24.3256C64.6107 24.6758 64.7374 24.9434 64.991 25.1286C65.2486 25.3097 65.5746 25.4002 65.969 25.4002ZM75.8665 27.1509C75.1622 27.1509 74.5243 26.9698 73.9528 26.6076C73.3853 26.2414 72.9346 25.7041 72.6005 24.9957C72.2705 24.2834 72.1055 23.41 72.1055 22.3757C72.1055 21.3132 72.2766 20.4298 72.6187 19.7255C72.9607 19.0172 73.4155 18.4879 73.983 18.1378C74.5545 17.7836 75.1803 17.6065 75.8605 17.6065C76.3797 17.6065 76.8123 17.6951 77.1584 17.8722C77.5086 18.0452 77.7903 18.2625 78.0036 18.5241C78.2209 18.7817 78.3859 19.0353 78.4986 19.2848H78.5771V14.6364H81.1428V27H78.6073V25.5149H78.4986C78.3779 25.7725 78.2068 26.0281 77.9855 26.2816C77.7682 26.5311 77.4844 26.7384 77.1343 26.9034C76.7882 27.0684 76.3656 27.1509 75.8665 27.1509ZM76.6815 25.1044C77.096 25.1044 77.4462 24.9917 77.7319 24.7663C78.0217 24.5369 78.2431 24.217 78.396 23.8065C78.553 23.396 78.6314 22.915 78.6314 22.3636C78.6314 21.8123 78.555 21.3333 78.402 20.9268C78.2491 20.5204 78.0277 20.2064 77.738 19.9851C77.4482 19.7637 77.096 19.6531 76.6815 19.6531C76.2589 19.6531 75.9027 19.7678 75.613 19.9972C75.3232 20.2266 75.1039 20.5445 74.9549 20.951C74.806 21.3575 74.7316 21.8284 74.7316 22.3636C74.7316 22.9029 74.806 23.3799 74.9549 23.7944C75.1079 24.2049 75.3272 24.5269 75.613 24.7603C75.9027 24.9897 76.2589 25.1044 76.6815 25.1044ZM94.7968 26.3299V17.7816H96.9581V26.3299H94.7968ZM91.6033 23.1364V20.9751H100.152V23.1364H91.6033Z" fill="#2D60FF"/>
</svg>
