<svg xmlns="http://www.w3.org/2000/svg" width="24" height="24" viewBox="0 0 24 24" fill="none">
  <path fill-rule="evenodd" clip-rule="evenodd" d="M0.25 22C0.25 21.5858 0.585786 21.25 1 21.25H23C23.4142 21.25 23.75 21.5858 23.75 22C23.75 22.4142 23.4142 22.75 23 22.75H1C0.585786 22.75 0.25 22.4142 0.25 22Z" fill="black"/>
  <path fill-rule="evenodd" clip-rule="evenodd" d="M19.78 16.8C20.1942 16.8 20.53 17.1358 20.53 17.55V22.01C20.53 22.4242 20.1942 22.76 19.78 22.76C19.3658 22.76 19.03 22.4242 19.03 22.01V17.55C19.03 17.1358 19.3658 16.8 19.78 16.8Z" fill="black"/>
  <path fill-rule="evenodd" clip-rule="evenodd" d="M16.85 13.09C16.85 11.4558 18.1658 10.14 19.8 10.14C21.4342 10.14 22.75 11.4558 22.75 13.09V15.36C22.75 16.9942 21.4342 18.31 19.8 18.31C18.1658 18.31 16.85 16.9942 16.85 15.36V13.09ZM19.8 11.64C18.9942 11.64 18.35 12.2842 18.35 13.09V15.36C18.35 16.1658 18.9942 16.81 19.8 16.81C20.6058 16.81 21.25 16.1658 21.25 15.36V13.09C21.25 12.2842 20.6058 11.64 19.8 11.64Z" fill="black"/>
  <path fill-rule="evenodd" clip-rule="evenodd" d="M3.38172 4.29395C3.0711 4.60767 2.84998 5.13971 2.84998 6.03003V22C2.84998 22.4142 2.51419 22.75 2.09998 22.75C1.68576 22.75 1.34998 22.4142 1.34998 22V6.03003C1.34998 4.91034 1.62887 3.93238 2.31579 3.23859C3.00405 2.54343 3.97656 2.26001 5.09003 2.26001H11.32C12.4335 2.26001 13.4045 2.54348 14.0905 3.23994C14.7746 3.93432 15.05 4.91224 15.05 6.03003V22C15.05 22.4142 14.7142 22.75 14.3 22.75C13.8858 22.75 13.55 22.4142 13.55 22V6.03003C13.55 5.13782 13.3304 4.60573 13.0219 4.2926C12.7155 3.98155 12.1965 3.76001 11.32 3.76001H5.09003C4.21349 3.76001 3.69098 3.9816 3.38172 4.29395Z" fill="black"/>
  <path fill-rule="evenodd" clip-rule="evenodd" d="M5.04999 8.25C5.04999 7.83579 5.38577 7.5 5.79999 7.5H10.75C11.1642 7.5 11.5 7.83579 11.5 8.25C11.5 8.66421 11.1642 9 10.75 9H5.79999C5.38577 9 5.04999 8.66421 5.04999 8.25Z" fill="black"/>
  <path fill-rule="evenodd" clip-rule="evenodd" d="M5.04999 12C5.04999 11.5858 5.38577 11.25 5.79999 11.25H10.75C11.1642 11.25 11.5 11.5858 11.5 12C11.5 12.4142 11.1642 12.75 10.75 12.75H5.79999C5.38577 12.75 5.04999 12.4142 5.04999 12Z" fill="black"/>
  <path fill-rule="evenodd" clip-rule="evenodd" d="M8.25 17.5C8.66421 17.5 9 17.8358 9 18.25V22C9 22.4142 8.66421 22.75 8.25 22.75C7.83579 22.75 7.5 22.4142 7.5 22V18.25C7.5 17.8358 7.83579 17.5 8.25 17.5Z" fill="black"/>
</svg>