<svg width="30" height="30" viewBox="0 0 30 30" fill="none" xmlns="http://www.w3.org/2000/svg">
<circle cx="14.9089" cy="14.9089" r="13.0453" fill="#5F38CA"/>
<circle cx="14.9089" cy="14.9089" r="9.31807" fill="#F5F7FA"/>
<g clip-path="url(#clip0_1306_1667)">
<path d="M17.8607 16.511C17.8607 14.8439 16.6857 14.3659 15.4147 14.0968L14.741 13.9604C13.7448 13.7645 13.6679 13.4755 13.6679 13.0887C13.6679 12.5868 14.1202 12.2868 14.8779 12.2868C15.7753 12.2868 16.0052 12.7376 16.1006 13.0761L16.1097 13.1043C16.2225 13.3995 16.4848 13.5757 16.812 13.5757C16.8968 13.5757 16.9729 13.5627 17.0299 13.5512C17.3811 13.4813 17.6257 13.2018 17.6257 12.8707C17.6257 12.7886 17.6108 12.7072 17.5809 12.628C17.401 12.0494 16.8954 11.1386 15.4943 10.9307V9.93829C15.4943 9.11172 14.1997 9.11172 14.1997 9.93829V10.9366C12.6947 11.1721 12.1405 12.1959 12.1405 13.0884C12.1405 14.7122 13.2713 15.1649 14.3758 15.3927L15.1045 15.5475C16.1423 15.7585 16.3253 16.0292 16.3253 16.5194C16.3253 17.1185 15.8188 17.4756 14.9697 17.4756C13.8674 17.4756 13.6427 16.9793 13.4925 16.4221C13.4046 16.1137 13.1259 15.9151 12.7823 15.9151C12.7073 15.9151 12.6472 15.925 12.5747 15.9374L12.5529 15.9416C12.1975 16.026 11.959 16.3059 11.959 16.6377C11.959 16.7008 11.9702 16.7544 11.9793 16.7977L11.9904 16.8473C12.1503 17.3877 12.5032 18.5679 14.2635 18.8312V19.8699C14.2635 20.2834 14.5888 20.4999 14.9106 20.4999C15.2324 20.4999 15.5581 20.2834 15.5581 19.8699V18.8494C16.9558 18.6673 17.8621 17.7744 17.8621 16.5112" fill="#5F38CA"/>
</g>
<defs>
<clipPath id="clip0_1306_1667">
<rect width="11.1817" height="11.1817" fill="white" transform="translate(9.31807 9.31812)"/>
</clipPath>
</defs>
</svg>
