<svg xmlns="http://www.w3.org/2000/svg" width="96" height="75" viewBox="0 0 96 75" fill="none">
  <mask id="path-1-inside-1_1304_4826" fill="white">
    <path fill-rule="evenodd" clip-rule="evenodd" d="M25.0013 0C18.9255 0 14.0001 4.92538 14.0001 11.0011V23.2102C14 23.4843 14 23.7648 14 24.0521V44.0887C14 50.2499 14 53.3305 15.1991 55.6838C16.2538 57.7538 17.9367 59.4367 20.0067 60.4914C22.36 61.6905 25.4406 61.6905 31.6018 61.6905H64.5388C70.7 61.6905 73.7807 61.6905 76.1339 60.4914C78.2039 59.4367 79.8869 57.7538 80.9416 55.6838C82.1407 53.3305 82.1407 50.2499 82.1407 44.0887V24.0521C82.1407 17.8909 82.1407 14.8103 80.9416 12.457C79.8869 10.387 78.2039 8.70403 76.1339 7.64931C73.7807 6.45026 70.7 6.45026 64.5388 6.45026H57.1299C51.4499 6.45026 45.9925 0 40.3125 0H25.0013Z"/>
  </mask>
  <path fill-rule="evenodd" clip-rule="evenodd" d="M25.0013 0C18.9255 0 14.0001 4.92538 14.0001 11.0011V23.2102C14 23.4843 14 23.7648 14 24.0521V44.0887C14 50.2499 14 53.3305 15.1991 55.6838C16.2538 57.7538 17.9367 59.4367 20.0067 60.4914C22.36 61.6905 25.4406 61.6905 31.6018 61.6905H64.5388C70.7 61.6905 73.7807 61.6905 76.1339 60.4914C78.2039 59.4367 79.8869 57.7538 80.9416 55.6838C82.1407 53.3305 82.1407 50.2499 82.1407 44.0887V24.0521C82.1407 17.8909 82.1407 14.8103 80.9416 12.457C79.8869 10.387 78.2039 8.70403 76.1339 7.64931C73.7807 6.45026 70.7 6.45026 64.5388 6.45026H57.1299C51.4499 6.45026 45.9925 0 40.3125 0H25.0013Z" fill="url(#paint0_radial_1304_4826)"/>
  <path d="M14.0001 23.2102L14.4402 23.2104V23.2102H14.0001ZM15.1991 55.6838L14.807 55.8835H14.807L15.1991 55.6838ZM20.0067 60.4914L20.2065 60.0994L20.0067 60.4914ZM76.1339 60.4914L75.9342 60.0994L76.1339 60.4914ZM80.9416 55.6838L81.3337 55.8835L80.9416 55.6838ZM80.9416 12.457L81.3337 12.2572L80.9416 12.457ZM76.1339 7.64931L75.9342 8.0414L76.1339 7.64931ZM14.4402 11.0011C14.4402 5.16841 19.1685 0.440046 25.0013 0.440046V-0.440046C18.6825 -0.440046 13.5601 4.68235 13.5601 11.0011H14.4402ZM14.4402 23.2102V11.0011H13.5601V23.2102H14.4402ZM14.44 24.0521C14.44 23.7648 14.44 23.4844 14.4402 23.2104L13.5601 23.21C13.56 23.4842 13.56 23.7649 13.56 24.0521H14.44ZM14.44 44.0887V24.0521H13.56V44.0887H14.44ZM15.5911 55.484C15.0285 54.3797 14.7361 53.0856 14.5885 51.2784C14.4404 49.466 14.44 47.1765 14.44 44.0887H13.56C13.56 47.162 13.5596 49.4935 13.7113 51.35C13.8634 53.2117 14.1706 54.6345 14.807 55.8835L15.5911 55.484ZM20.2065 60.0994C18.2193 59.0868 16.6037 57.4712 15.5911 55.484L14.807 55.8835C15.9039 58.0363 17.6542 59.7866 19.807 60.8835L20.2065 60.0994ZM31.6018 61.2504C28.514 61.2504 26.2245 61.2501 24.4121 61.102C22.6049 60.9544 21.3108 60.662 20.2065 60.0994L19.807 60.8835C21.056 61.5199 22.4788 61.8271 24.3405 61.9792C26.197 62.1309 28.5285 62.1305 31.6018 62.1305V61.2504ZM64.5388 61.2504H31.6018V62.1305H64.5388V61.2504ZM75.9342 60.0994C74.8299 60.662 73.5358 60.9544 71.7285 61.102C69.9161 61.2501 67.6267 61.2504 64.5388 61.2504V62.1305C67.6122 62.1305 69.9436 62.1309 71.8002 61.9792C73.6619 61.8271 75.0847 61.5199 76.3337 60.8835L75.9342 60.0994ZM80.5495 55.484C79.537 57.4712 77.9213 59.0868 75.9342 60.0994L76.3337 60.8835C78.4865 59.7866 80.2368 58.0363 81.3337 55.8835L80.5495 55.484ZM81.7006 44.0887C81.7006 47.1765 81.7003 49.466 81.5522 51.2784C81.4045 53.0856 81.1122 54.3797 80.5495 55.484L81.3337 55.8835C81.9701 54.6345 82.2773 53.2117 82.4294 51.35C82.581 49.4935 82.5807 47.162 82.5807 44.0887H81.7006ZM81.7006 24.0521V44.0887H82.5807V24.0521H81.7006ZM80.5495 12.6568C81.1122 13.761 81.4045 15.0551 81.5522 16.8624C81.7003 18.6748 81.7006 20.9642 81.7006 24.0521H82.5807C82.5807 20.9787 82.581 18.6473 82.4294 16.7907C82.2773 14.929 81.9701 13.5062 81.3337 12.2572L80.5495 12.6568ZM75.9342 8.0414C77.9213 9.05392 79.537 10.6696 80.5495 12.6568L81.3337 12.2572C80.2368 10.1044 78.4865 8.35413 76.3337 7.25723L75.9342 8.0414ZM64.5388 6.8903C67.6267 6.8903 69.9161 6.89065 71.7285 7.03872C73.5358 7.18638 74.8299 7.47874 75.9342 8.0414L76.3337 7.25723C75.0847 6.62083 73.6619 6.31366 71.8002 6.16156C69.9436 6.00987 67.6122 6.01021 64.5388 6.01021V6.8903ZM57.1299 6.8903H64.5388V6.01021H57.1299V6.8903ZM25.0013 0.440046H40.3125V-0.440046H25.0013V0.440046ZM57.1299 6.01021C54.4315 6.01021 51.7559 4.4742 48.9417 2.84434C46.1873 1.24907 43.2942 -0.440046 40.3125 -0.440046V0.440046C43.0109 0.440046 45.6865 1.97606 48.5007 3.60592C51.2551 5.20119 54.1482 6.8903 57.1299 6.8903V6.01021Z" fill="url(#paint1_linear_1304_4826)" mask="url(#path-1-inside-1_1304_4826)"/>
  <path d="M14.0001 23.2102L14.4402 23.2104V23.2102H14.0001ZM15.1991 55.6838L14.807 55.8835H14.807L15.1991 55.6838ZM20.0067 60.4914L20.2065 60.0994L20.0067 60.4914ZM76.1339 60.4914L75.9342 60.0994L76.1339 60.4914ZM80.9416 55.6838L81.3337 55.8835L80.9416 55.6838ZM80.9416 12.457L81.3337 12.2572L80.9416 12.457ZM76.1339 7.64931L75.9342 8.0414L76.1339 7.64931ZM14.4402 11.0011C14.4402 5.16841 19.1685 0.440046 25.0013 0.440046V-0.440046C18.6825 -0.440046 13.5601 4.68235 13.5601 11.0011H14.4402ZM14.4402 23.2102V11.0011H13.5601V23.2102H14.4402ZM14.44 24.0521C14.44 23.7648 14.44 23.4844 14.4402 23.2104L13.5601 23.21C13.56 23.4842 13.56 23.7649 13.56 24.0521H14.44ZM14.44 44.0887V24.0521H13.56V44.0887H14.44ZM15.5911 55.484C15.0285 54.3797 14.7361 53.0856 14.5885 51.2784C14.4404 49.466 14.44 47.1765 14.44 44.0887H13.56C13.56 47.162 13.5596 49.4935 13.7113 51.35C13.8634 53.2117 14.1706 54.6345 14.807 55.8835L15.5911 55.484ZM20.2065 60.0994C18.2193 59.0868 16.6037 57.4712 15.5911 55.484L14.807 55.8835C15.9039 58.0363 17.6542 59.7866 19.807 60.8835L20.2065 60.0994ZM31.6018 61.2504C28.514 61.2504 26.2245 61.2501 24.4121 61.102C22.6049 60.9544 21.3108 60.662 20.2065 60.0994L19.807 60.8835C21.056 61.5199 22.4788 61.8271 24.3405 61.9792C26.197 62.1309 28.5285 62.1305 31.6018 62.1305V61.2504ZM64.5388 61.2504H31.6018V62.1305H64.5388V61.2504ZM75.9342 60.0994C74.8299 60.662 73.5358 60.9544 71.7285 61.102C69.9161 61.2501 67.6267 61.2504 64.5388 61.2504V62.1305C67.6122 62.1305 69.9436 62.1309 71.8002 61.9792C73.6619 61.8271 75.0847 61.5199 76.3337 60.8835L75.9342 60.0994ZM80.5495 55.484C79.537 57.4712 77.9213 59.0868 75.9342 60.0994L76.3337 60.8835C78.4865 59.7866 80.2368 58.0363 81.3337 55.8835L80.5495 55.484ZM81.7006 44.0887C81.7006 47.1765 81.7003 49.466 81.5522 51.2784C81.4045 53.0856 81.1122 54.3797 80.5495 55.484L81.3337 55.8835C81.9701 54.6345 82.2773 53.2117 82.4294 51.35C82.581 49.4935 82.5807 47.162 82.5807 44.0887H81.7006ZM81.7006 24.0521V44.0887H82.5807V24.0521H81.7006ZM80.5495 12.6568C81.1122 13.761 81.4045 15.0551 81.5522 16.8624C81.7003 18.6748 81.7006 20.9642 81.7006 24.0521H82.5807C82.5807 20.9787 82.581 18.6473 82.4294 16.7907C82.2773 14.929 81.9701 13.5062 81.3337 12.2572L80.5495 12.6568ZM75.9342 8.0414C77.9213 9.05392 79.537 10.6696 80.5495 12.6568L81.3337 12.2572C80.2368 10.1044 78.4865 8.35413 76.3337 7.25723L75.9342 8.0414ZM64.5388 6.8903C67.6267 6.8903 69.9161 6.89065 71.7285 7.03872C73.5358 7.18638 74.8299 7.47874 75.9342 8.0414L76.3337 7.25723C75.0847 6.62083 73.6619 6.31366 71.8002 6.16156C69.9436 6.00987 67.6122 6.01021 64.5388 6.01021V6.8903ZM57.1299 6.8903H64.5388V6.01021H57.1299V6.8903ZM25.0013 0.440046H40.3125V-0.440046H25.0013V0.440046ZM57.1299 6.01021C54.4315 6.01021 51.7559 4.4742 48.9417 2.84434C46.1873 1.24907 43.2942 -0.440046 40.3125 -0.440046V0.440046C43.0109 0.440046 45.6865 1.97606 48.5007 3.60592C51.2551 5.20119 54.1482 6.8903 57.1299 6.8903V6.01021Z" fill="url(#paint2_linear_1304_4826)" mask="url(#path-1-inside-1_1304_4826)"/>
  <g filter="url(#filter0_f_1304_4826)">
    <rect x="14" y="15.5466" width="68.1407" height="46.1438" rx="11.0011" fill="black" fill-opacity="0.1"/>
  </g>
  <path d="M14.0002 33.1654C14.0002 27.0124 13.96 23.9382 15.1579 21.5881C16.2116 19.5209 17.8862 17.8451 19.9542 16.7918C22.3052 15.5944 25.3763 15.6341 31.5315 15.6341H64.6095C70.7646 15.6341 73.8358 15.5944 76.1868 16.7918C78.2547 17.8451 79.9294 19.5209 80.9831 21.5881C82.181 23.9382 82.1408 27.0124 82.1408 33.1654V44.2465C82.1408 50.3995 82.181 53.4737 80.9831 55.8238C79.9294 57.8911 78.2547 59.5668 76.1868 60.6201C73.8358 61.8176 70.7646 61.7779 64.6095 61.7779H31.5315C25.3763 61.7779 22.3052 61.8176 19.9542 60.6201C17.8862 59.5668 16.2116 57.8911 15.1579 55.8238C13.96 53.4737 14.0002 50.3995 14.0002 44.2465V33.1654Z" fill="url(#paint3_radial_1304_4826)"/>
  <path d="M14.2202 33.1654C14.2202 32.9707 14.2201 32.7791 14.2201 32.5905C14.2195 29.7961 14.2191 27.6732 14.3492 25.9674C14.4879 24.1492 14.7739 22.8261 15.3539 21.688C16.3865 19.6621 18.0276 18.02 20.0541 16.9879C21.1925 16.408 22.5152 16.122 24.333 15.9833C26.0396 15.853 28.164 15.8535 30.962 15.854C31.1488 15.8541 31.3386 15.8541 31.5315 15.8541H64.6095C64.8024 15.8541 64.9922 15.8541 65.179 15.854C67.977 15.8535 70.1014 15.853 71.808 15.9833C73.6258 16.122 74.9484 16.408 76.0869 16.9879C78.1134 18.02 79.7544 19.6621 80.7871 21.688C81.3671 22.8261 81.6531 24.1492 81.7918 25.9674C81.9219 27.6732 81.9214 29.7961 81.9209 32.5904C81.9208 32.779 81.9208 32.9706 81.9208 33.1654V44.2465C81.9208 44.4413 81.9208 44.633 81.9209 44.8216C81.9214 47.6159 81.9219 49.7387 81.7918 51.4445C81.6531 53.2627 81.3671 54.5859 80.7871 55.7239C79.7544 57.7498 78.1134 59.3919 76.0869 60.4241C74.9484 61.004 73.6258 61.2899 71.808 61.4287C70.1014 61.5589 67.977 61.5585 65.1791 61.5579C64.9922 61.5579 64.8024 61.5578 64.6095 61.5578H31.5315C31.3386 61.5578 31.1487 61.5579 30.9619 61.5579C28.1639 61.5585 26.0396 61.5589 24.333 61.4287C22.5152 61.2899 21.1925 61.004 20.0541 60.4241C18.0276 59.3919 16.3865 57.7498 15.3539 55.7239C14.7739 54.5859 14.4879 53.2627 14.3492 51.4445C14.2191 49.7387 14.2195 47.6158 14.2201 44.8214C14.2201 44.6329 14.2202 44.4413 14.2202 44.2465V33.1654Z" stroke="url(#paint4_linear_1304_4826)" stroke-width="0.440046"/>
  <defs>
    <filter id="filter0_f_1304_4826" x="0.798631" y="2.34528" width="94.5434" height="72.5465" filterUnits="userSpaceOnUse" color-interpolation-filters="sRGB">
      <feFlood flood-opacity="0" result="BackgroundImageFix"/>
      <feBlend mode="normal" in="SourceGraphic" in2="BackgroundImageFix" result="shape"/>
      <feGaussianBlur stdDeviation="6.60068" result="effect1_foregroundBlur_1304_4826"/>
    </filter>
    <radialGradient id="paint0_radial_1304_4826" cx="0" cy="0" r="1" gradientUnits="userSpaceOnUse" gradientTransform="translate(82.1407 61.7545) rotate(-137.815) scale(91.9607 122.102)">
      <stop stop-color="#0164E3" stop-opacity="0.37"/>
      <stop offset="1" stop-color="#3394F0" stop-opacity="0.45"/>
    </radialGradient>
    <linearGradient id="paint1_linear_1304_4826" x1="14" y1="0" x2="80.019" y2="67.0425" gradientUnits="userSpaceOnUse">
      <stop offset="0.508799" stop-color="#85BFF8"/>
      <stop offset="1" stop-color="#1050A9"/>
    </linearGradient>
    <linearGradient id="paint2_linear_1304_4826" x1="14" y1="0" x2="90.2659" y2="52.537" gradientUnits="userSpaceOnUse">
      <stop offset="0.228092" stop-color="#85BFF8"/>
      <stop offset="0.99027" stop-color="#0567E4"/>
    </linearGradient>
    <radialGradient id="paint3_radial_1304_4826" cx="0" cy="0" r="1" gradientUnits="userSpaceOnUse" gradientTransform="translate(82.141 61.778) rotate(-145.895) scale(82.295 101.954)">
      <stop stop-color="#0164E3" stop-opacity="0.37"/>
      <stop offset="1" stop-color="#3394F0" stop-opacity="0.45"/>
    </radialGradient>
    <linearGradient id="paint4_linear_1304_4826" x1="14" y1="15.6339" x2="74.7864" y2="71.6776" gradientUnits="userSpaceOnUse">
      <stop offset="0.228092" stop-color="#85BFF8"/>
      <stop offset="0.946844" stop-color="#0567E4"/>
    </linearGradient>
  </defs>
</svg>