<svg xmlns="http://www.w3.org/2000/svg" width="24" height="24" viewBox="0 0 24 24" fill="none">
  <path fill-rule="evenodd" clip-rule="evenodd" d="M11.25 5.56C11.25 5.14579 11.5858 4.81 12 4.81H22C22.4142 4.81 22.75 5.14579 22.75 5.56C22.75 5.97422 22.4142 6.31 22 6.31H12C11.5858 6.31 11.25 5.97422 11.25 5.56Z" fill="black"/>
  <path fill-rule="evenodd" clip-rule="evenodd" d="M12.9708 2.97233C12.879 3.06343 12.75 3.31436 12.75 4.2V8.31C12.75 9.19564 12.879 9.44657 12.9708 9.53767C13.0647 9.63083 13.3232 9.76 14.22 9.76H19.78C20.6768 9.76 20.9353 9.63083 21.0292 9.53767C21.121 9.44657 21.25 9.19564 21.25 8.31V4.2C21.25 3.31436 21.121 3.06343 21.0292 2.97233C20.9353 2.87917 20.6768 2.75 19.78 2.75H14.22C13.3232 2.75 13.0647 2.87917 12.9708 2.97233ZM11.9142 1.90767C12.4853 1.34083 13.3368 1.25 14.22 1.25H19.78C20.6632 1.25 21.5147 1.34083 22.0858 1.90767C22.659 2.47657 22.75 3.32564 22.75 4.2V8.31C22.75 9.18436 22.659 10.0334 22.0858 10.6023C21.5147 11.1692 20.6632 11.26 19.78 11.26H14.22C13.3368 11.26 12.4853 11.1692 11.9142 10.6023C11.341 10.0334 11.25 9.18436 11.25 8.31V4.2C11.25 3.32564 11.341 2.47657 11.9142 1.90767Z" fill="black"/>
  <path fill-rule="evenodd" clip-rule="evenodd" d="M1.25 17.06C1.25 16.6458 1.58579 16.31 2 16.31H12C12.4142 16.31 12.75 16.6458 12.75 17.06C12.75 17.4742 12.4142 17.81 12 17.81H2C1.58579 17.81 1.25 17.4742 1.25 17.06Z" fill="black"/>
  <path fill-rule="evenodd" clip-rule="evenodd" d="M2.97083 14.4723C2.87903 14.5634 2.75 14.8144 2.75 15.7V19.81C2.75 20.6956 2.87903 20.9466 2.97083 21.0377C3.06469 21.1308 3.32322 21.26 4.22 21.26H9.78C10.6768 21.26 10.9353 21.1308 11.0292 21.0377C11.121 20.9466 11.25 20.6956 11.25 19.81V15.7C11.25 14.8144 11.121 14.5634 11.0292 14.4723C10.9353 14.3792 10.6768 14.25 9.78 14.25H4.22C3.32322 14.25 3.06469 14.3792 2.97083 14.4723ZM1.91418 13.4077C2.48532 12.8408 3.33679 12.75 4.22 12.75H9.78C10.6632 12.75 11.5147 12.8408 12.0858 13.4077C12.659 13.9766 12.75 14.8256 12.75 15.7V19.81C12.75 20.6844 12.659 21.5334 12.0858 22.1023C11.5147 22.6692 10.6632 22.76 9.78 22.76H4.22C3.33679 22.76 2.48532 22.6692 1.91418 22.1023C1.34097 21.5334 1.25 20.6844 1.25 19.81V15.7C1.25 14.8256 1.34097 13.9766 1.91418 13.4077Z" fill="black"/>
  <path fill-rule="evenodd" clip-rule="evenodd" d="M22 14.25C22.4142 14.25 22.75 14.5858 22.75 15C22.75 19.2842 19.2842 22.75 15 22.75C14.7298 22.75 14.4805 22.6047 14.3474 22.3695C14.2142 22.1344 14.2179 21.8458 14.3569 21.6141L15.4069 19.8641C15.62 19.5089 16.0807 19.3938 16.4359 19.6069C16.791 19.82 16.9062 20.2807 16.6931 20.6359L16.4218 21.0881C19.1909 20.4456 21.25 17.9666 21.25 15C21.25 14.5858 21.5858 14.25 22 14.25Z" fill="black"/>
  <path fill-rule="evenodd" clip-rule="evenodd" d="M7.57821 2.91194C4.8091 3.55436 2.75 6.03342 2.75 9C2.75 9.41421 2.41421 9.75 2 9.75C1.58579 9.75 1.25 9.41421 1.25 9C1.25 4.71579 4.71579 1.25 9 1.25C9.2702 1.25 9.51952 1.39534 9.65265 1.63047C9.78578 1.8656 9.78214 2.15417 9.64312 2.38587L8.59313 4.13587C8.38002 4.49105 7.91933 4.60623 7.56414 4.39312C7.20896 4.18001 7.09378 3.71932 7.30689 3.36413L7.57821 2.91194Z" fill="black"/>
</svg>