<svg xmlns="http://www.w3.org/2000/svg" width="22" height="20" viewBox="0 0 22 20" fill="none">
<path d="M20.4977 18.2109L15.6196 13.6094C16.8288 12.2188 17.5576 10.4375 17.5576 8.49609C17.5576 4.04297 13.7272 0.429688 9.00651 0.429688C4.28169 0.429688 0.455444 4.04297 0.455444 8.49609C0.455444 12.9492 4.28169 16.5625 9.00651 16.5625C11.0646 16.5625 12.9487 15.8789 14.4229 14.7383L19.3009 19.3359C19.6322 19.6484 20.1664 19.6484 20.4977 19.3359C20.8289 19.0273 20.8289 18.5195 20.4977 18.2109ZM9.00651 14.957C5.22582 14.957 2.15324 12.0586 2.15324 8.49609C2.15324 4.93359 5.22582 2.03125 9.00651 2.03125C12.7831 2.03125 15.8598 4.93359 15.8598 8.49609C15.8598 12.0586 12.7831 14.957 9.00651 14.957Z" fill="#00000080"/>
</svg>