<svg xmlns="http://www.w3.org/2000/svg" width="26" height="26" viewBox="0 0 26 26" fill="none">
  <path opacity="0.4" d="M20.1047 11.4326C21.7562 11.125 23.0277 9.24779 23.0312 6.97349C23.0312 4.73216 21.7988 2.8738 20.1829 2.52222" stroke="black" stroke-width="1.5" stroke-linecap="round" stroke-linejoin="round"/>
  <path d="M22.2842 16.6962C23.8836 17.0132 25 17.7556 25 19.2859C25 20.3391 24.4743 21.0234 23.6243 21.4535" stroke="black" stroke-width="1.5" stroke-linecap="round" stroke-linejoin="round"/>
  <path fill-rule="evenodd" clip-rule="evenodd" d="M13.0004 17.3453C9.19551 17.3453 5.9458 18.1097 5.9458 21.1625C5.9458 24.2137 9.17538 25.0001 13.0004 25.0001C16.8054 25.0001 20.0539 24.2436 20.0539 21.1892C20.0539 18.1348 16.8255 17.3453 13.0004 17.3453Z" stroke="black" stroke-width="1.5" stroke-linecap="round" stroke-linejoin="round"/>
  <path opacity="0.4" fill-rule="evenodd" clip-rule="evenodd" d="M13.0005 12.9883C15.4973 12.9883 17.5217 10.3059 17.5217 6.99415C17.5217 3.68395 15.4973 1 13.0005 1C10.5037 1 8.47928 3.68395 8.47928 6.99415C8.46984 10.2934 10.4789 12.9773 12.9673 12.9883H13.0005Z" stroke="black" stroke-width="1.5" stroke-linecap="round" stroke-linejoin="round"/>
  <path opacity="0.4" d="M5.89502 11.4326C4.24234 11.125 2.97206 9.24779 2.96851 6.97349C2.96851 4.73216 4.20091 2.8738 5.81688 2.52222" stroke="black" stroke-width="1.5" stroke-linecap="round" stroke-linejoin="round"/>
  <path d="M3.71578 16.6962C2.11638 17.0132 1 17.7556 1 19.2859C1 20.3391 1.52564 21.0234 2.37565 21.4535" stroke="black" stroke-width="1.5" stroke-linecap="round" stroke-linejoin="round"/>
</svg>