<svg xmlns="http://www.w3.org/2000/svg" width="20" height="21" viewBox="0 0 20 21" fill="none">
  <path fill-rule="evenodd" clip-rule="evenodd" d="M11.6667 2.17499C12.0119 2.17499 12.2917 2.45481 12.2917 2.79999V6.13332C12.2917 6.18857 12.3137 6.24156 12.3528 6.28063C12.3918 6.31971 12.4448 6.34165 12.5001 6.34165H15.8334C16.1786 6.34165 16.4584 6.62148 16.4584 6.96665C16.4584 7.31183 16.1786 7.59165 15.8334 7.59165H12.5001C12.1133 7.59165 11.7424 7.43801 11.4689 7.16452C11.1954 6.89103 11.0417 6.5201 11.0417 6.13332V2.79999C11.0417 2.45481 11.3216 2.17499 11.6667 2.17499Z" fill="white"/>
  <path fill-rule="evenodd" clip-rule="evenodd" d="M5.83341 3.42499C5.55715 3.42499 5.2922 3.53473 5.09685 3.73008C4.90149 3.92544 4.79175 4.19039 4.79175 4.46665V16.1333C4.79175 16.4096 4.90149 16.6745 5.09685 16.8699C5.2922 17.0652 5.55715 17.175 5.83341 17.175H14.1667C14.443 17.175 14.708 17.0652 14.9033 16.8699C15.0987 16.6745 15.2084 16.4096 15.2084 16.1333V7.22554L11.4079 3.42499H5.83341ZM4.21296 2.8462C4.64273 2.41643 5.22563 2.17499 5.83341 2.17499H11.6667C11.8325 2.17499 11.9915 2.24084 12.1087 2.35805L16.2754 6.52471C16.3926 6.64192 16.4584 6.80089 16.4584 6.96665V16.1333C16.4584 16.7411 16.217 17.324 15.7872 17.7538C15.3574 18.1835 14.7745 18.425 14.1667 18.425H5.83341C5.22563 18.425 4.64273 18.1835 4.21296 17.7538C3.78319 17.324 3.54175 16.7411 3.54175 16.1333V4.46665C3.54175 3.85887 3.78319 3.27597 4.21296 2.8462Z" fill="white"/>
  <path fill-rule="evenodd" clip-rule="evenodd" d="M10.0001 15.0917C9.6549 15.0917 9.37508 14.8118 9.37508 14.4667L9.37508 9.46665C9.37508 9.12148 9.6549 8.84165 10.0001 8.84165C10.3453 8.84165 10.6251 9.12148 10.6251 9.46665L10.6251 14.4667C10.6251 14.8118 10.3453 15.0917 10.0001 15.0917Z" fill="white"/>
  <path fill-rule="evenodd" clip-rule="evenodd" d="M12.942 12.4086C12.6979 12.6527 12.3022 12.6527 12.0581 12.4086L10.0001 10.3505L7.94202 12.4086C7.69795 12.6527 7.30222 12.6527 7.05814 12.4086C6.81406 12.1645 6.81406 11.7688 7.05814 11.5247L9.55814 9.02471C9.80222 8.78063 10.1979 8.78063 10.442 9.02471L12.942 11.5247C13.1861 11.7688 13.1861 12.1645 12.942 12.4086Z" fill="white"/>
</svg>