<svg xmlns="http://www.w3.org/2000/svg" width="20" height="20" viewBox="0 0 20 20" fill="none">
  <path fill-rule="evenodd" clip-rule="evenodd" d="M10 2.29163C5.74283 2.29163 2.29169 5.74276 2.29169 9.99996C2.29169 14.2572 5.74283 17.7083 10 17.7083C14.2572 17.7083 17.7084 14.2572 17.7084 9.99996C17.7084 5.74276 14.2572 2.29163 10 2.29163ZM1.04169 9.99996C1.04169 5.05241 5.05247 1.04163 10 1.04163C14.9476 1.04163 18.9584 5.05241 18.9584 9.99996C18.9584 14.9475 14.9476 18.9583 10 18.9583C5.05247 18.9583 1.04169 14.9475 1.04169 9.99996Z" fill="#A0AEC0"/>
  <path fill-rule="evenodd" clip-rule="evenodd" d="M6.04169 2.49996C6.04169 2.15478 6.32151 1.87496 6.66669 1.87496H7.50002C7.70098 1.87496 7.88968 1.97159 8.00714 2.13465C8.1246 2.2977 8.15649 2.50729 8.09285 2.69791C6.51075 7.4361 6.51075 12.5638 8.09285 17.302C8.15649 17.4926 8.1246 17.7022 8.00714 17.8653C7.88968 18.0283 7.70098 18.125 7.50002 18.125H6.66669C6.32151 18.125 6.04169 17.8451 6.04169 17.5C6.04169 17.1608 6.3118 16.8848 6.64863 16.8752C5.32548 12.3884 5.32548 7.61154 6.64863 3.1247C6.3118 3.11515 6.04169 2.8391 6.04169 2.49996Z" fill="#A0AEC0"/>
  <path fill-rule="evenodd" clip-rule="evenodd" d="M12.3021 1.90713C12.6295 1.79781 12.9835 1.9746 13.0928 2.30201C14.7607 7.29716 14.7607 12.7028 13.0928 17.6979C12.9835 18.0253 12.6295 18.2021 12.3021 18.0928C11.9747 17.9835 11.7979 17.6294 11.9072 17.302C13.4893 12.5638 13.4893 7.4361 11.9072 2.69791C11.7979 2.3705 11.9747 2.01646 12.3021 1.90713Z" fill="#A0AEC0"/>
  <path fill-rule="evenodd" clip-rule="evenodd" d="M2.13471 11.9928C2.29776 11.8754 2.50735 11.8435 2.69797 11.9071C7.43616 13.4892 12.5639 13.4892 17.3021 11.9071C17.4927 11.8435 17.7023 11.8754 17.8653 11.9928C18.0284 12.1103 18.125 12.299 18.125 12.5V13.3333C18.125 13.6785 17.8452 13.9583 17.5 13.9583C17.1609 13.9583 16.8848 13.6882 16.8753 13.3513C12.3884 14.6745 7.6116 14.6745 3.12476 13.3513C3.11521 13.6882 2.83916 13.9583 2.50002 13.9583C2.15484 13.9583 1.87502 13.6785 1.87502 13.3333V12.5C1.87502 12.299 1.97165 12.1103 2.13471 11.9928Z" fill="#A0AEC0"/>
  <path fill-rule="evenodd" clip-rule="evenodd" d="M17.3021 8.09278C12.5639 6.51068 7.43616 6.51068 2.69797 8.09278C2.37056 8.20211 2.01652 8.02532 1.90719 7.69791C1.79787 7.3705 1.97466 7.01646 2.30207 6.90713C7.29722 5.23923 12.7028 5.23923 17.698 6.90713C18.0254 7.01646 18.2022 7.3705 18.0928 7.69791C17.9835 8.02532 17.6295 8.20211 17.3021 8.09278Z" fill="#A0AEC0"/>
</svg>