<svg width="30" height="31" viewBox="0 0 30 31" fill="none" xmlns="http://www.w3.org/2000/svg">
<rect y="0.5" width="30" height="30" rx="8" fill="black"/>
<path fill-rule="evenodd" clip-rule="evenodd" d="M15 13.6133C13.9562 13.6133 13.1134 14.4561 13.1134 15.5C13.1134 16.5438 13.9562 17.3866 15 17.3866C16.0439 17.3866 16.8867 16.5438 16.8867 15.5C16.8867 14.4561 16.0439 13.6133 15 13.6133ZM12.1134 15.5C12.1134 13.9038 13.4039 12.6133 15 12.6133C16.5962 12.6133 17.8867 13.9038 17.8867 15.5C17.8867 17.0961 16.5962 18.3866 15 18.3866C13.4039 18.3866 12.1134 17.0961 12.1134 15.5Z" fill="white"/>
<path fill-rule="evenodd" clip-rule="evenodd" d="M8.50501 13.498C10.099 10.9924 12.4347 9.47998 15 9.47998C17.5654 9.47998 19.9013 10.9925 21.4952 13.4983C21.8585 14.0678 22.0234 14.7974 22.0234 15.4966C22.0234 16.1959 21.8586 16.9254 21.4952 17.495C19.9013 20.0008 17.5654 21.5133 15 21.5133C12.4346 21.5133 10.0988 20.0008 8.50481 17.495C8.14149 16.9254 7.97668 16.1959 7.97668 15.4966C7.97668 14.7973 8.14155 14.0676 8.50501 13.498ZM15 10.48C12.8588 10.48 10.8079 11.7408 9.34856 14.035L9.34815 14.0357C9.11176 14.406 8.97668 14.9361 8.97668 15.4966C8.97668 16.0571 9.11176 16.5873 9.34815 16.9576L9.34856 16.9583C10.8079 19.2525 12.8588 20.5133 15 20.5133C17.1413 20.5133 19.1921 19.2525 20.6515 16.9583L20.6519 16.9576C20.8883 16.5873 21.0234 16.0571 21.0234 15.4966C21.0234 14.9361 20.8883 14.406 20.6519 14.0357L20.6515 14.035C19.1921 11.7408 17.1413 10.48 15 10.48Z" fill="white"/>
</svg>
