<svg width="30" height="30" viewBox="0 0 30 30" fill="none" xmlns="http://www.w3.org/2000/svg">
<rect width="30" height="30" rx="8" fill="#5F38CA"/>
<path fill-rule="evenodd" clip-rule="evenodd" d="M13.6665 9.5C13.6223 9.5 13.5799 9.51756 13.5487 9.54882C13.5174 9.58007 13.4998 9.62246 13.4998 9.66667V11.1667H16.4998V9.66667C16.4998 9.62246 16.4823 9.58007 16.451 9.54882C16.4198 9.51756 16.3774 9.5 16.3332 9.5H13.6665ZM10.8766 12.1667L11.4981 19.6251C11.4993 19.639 11.4998 19.6528 11.4998 19.6667C11.4998 19.8877 11.5876 20.0996 11.7439 20.2559C11.9002 20.4122 12.1122 20.5 12.3332 20.5H17.6665C17.8875 20.5 18.0995 20.4122 18.2558 20.2559C18.412 20.0996 18.4998 19.8877 18.4998 19.6667C18.4998 19.6528 18.5004 19.639 18.5016 19.6251L19.1231 12.1667H10.8766ZM20.1266 12.1667L19.4997 19.6891C19.4939 20.1672 19.3014 20.6245 18.9629 20.963C18.619 21.3068 18.1527 21.5 17.6665 21.5H12.3332C11.8469 21.5 11.3806 21.3068 11.0368 20.963C10.6983 20.6245 10.5058 20.1672 10.5 19.6891L9.8731 12.1667H9.6665C9.39036 12.1667 9.1665 11.9428 9.1665 11.6667C9.1665 11.3905 9.39036 11.1667 9.6665 11.1667H12.4998V9.66667C12.4998 9.35725 12.6228 9.0605 12.8415 8.84171C13.0603 8.62292 13.3571 8.5 13.6665 8.5H16.3332C16.6426 8.5 16.9393 8.62292 17.1581 8.84171C17.3769 9.0605 17.4998 9.35725 17.4998 9.66667V11.1667H20.3332C20.6093 11.1667 20.8332 11.3905 20.8332 11.6667C20.8332 11.9428 20.6093 12.1667 20.3332 12.1667H20.1266ZM13.6665 13.8333C13.9426 13.8333 14.1665 14.0572 14.1665 14.3333V18.3333C14.1665 18.6095 13.9426 18.8333 13.6665 18.8333C13.3904 18.8333 13.1665 18.6095 13.1665 18.3333V14.3333C13.1665 14.0572 13.3904 13.8333 13.6665 13.8333ZM16.3332 13.8333C16.6093 13.8333 16.8332 14.0572 16.8332 14.3333V18.3333C16.8332 18.6095 16.6093 18.8333 16.3332 18.8333C16.057 18.8333 15.8332 18.6095 15.8332 18.3333V14.3333C15.8332 14.0572 16.057 13.8333 16.3332 13.8333Z" fill="white"/>
</svg>
