<svg width="40" height="40" viewBox="0 0 40 40" fill="none" xmlns="http://www.w3.org/2000/svg">
<g id="pre approved icon">
<rect width="40" height="40" rx="12" fill="#DCFAF8"/>
<path id="Vector" fill-rule="evenodd" clip-rule="evenodd" d="M27.78 16.9184L23.42 12.2904C23.268 12.1312 23.0592 12 22.84 12H13.6C12.7168 12 12 12.8 12 13.6832V19.2832C12 19.4954 12.0843 19.6989 12.2343 19.8489C12.3843 19.9989 12.5878 20.0832 12.8 20.0832C13.0122 20.0832 13.2157 19.9989 13.3657 19.8489C13.5157 19.6989 13.6 19.4954 13.6 19.2832V14.4832C13.6 14.0416 13.9584 13.6 14.4 13.6H21.6V16.8832C21.6 17.7672 22.3168 18.4 23.2 18.4H26.4V19.2832C26.4 19.4954 26.4843 19.6989 26.6343 19.8489C26.7843 19.9989 26.9878 20.0832 27.2 20.0832C27.4122 20.0832 27.6157 19.9989 27.7657 19.8489C27.9157 19.6989 28 19.4954 28 19.2832V17.4696C28.0002 17.2644 27.9214 17.067 27.78 16.9184ZM20.8 24C20.8 23.7878 20.7157 23.5843 20.5657 23.4343C20.4157 23.2843 20.2122 23.2 20 23.2C19.7878 23.2 19.5843 23.2843 19.4343 23.4343C19.2843 23.5843 19.2 23.7878 19.2 24V25.6C19.2 25.8122 19.2843 26.0157 19.4343 26.1657C19.5843 26.3157 19.7878 26.4 20 26.4C20.2122 26.4 20.4157 26.3157 20.5657 26.1657C20.7157 26.0157 20.8 25.8122 20.8 25.6V24ZM22.4 23.2V26.4C22.4 26.8243 22.2314 27.2313 21.9314 27.5314C21.6313 27.8314 21.2243 28 20.8 28H19.2C18.7757 28 18.3687 27.8314 18.0686 27.5314C17.7686 27.2313 17.6 26.8243 17.6 26.4V23.2C17.6 22.7757 17.7686 22.3687 18.0686 22.0686C18.3687 21.7686 18.7757 21.6 19.2 21.6H20.8C21.2243 21.6 21.6313 21.7686 21.9314 22.0686C22.2314 22.3687 22.4 22.7757 22.4 23.2ZM15.2 24.0832C15.2 23.6416 14.8424 23.2 14.4 23.2H13.6V26.4H14.4C14.8424 26.4 15.2 26.1248 15.2 25.6832V24.0832ZM16.8 23.2832V26.4832C16.8 27.3672 16.084 28 15.2 28H12.8C12.3584 28 12 27.7248 12 27.2832V22.4832C12 22.0416 12.3584 21.6 12.8 21.6H15.2C16.084 21.6 16.8 22.4 16.8 23.2832ZM28 22.4208V22.4416C28 22.8832 27.6424 23.2 27.2 23.2H26.4C26.1672 23.2 25.9372 23.2507 25.726 23.3488C25.5148 23.4468 25.3276 23.5898 25.1774 23.7676C25.0272 23.9455 24.9176 24.154 24.8563 24.3786C24.795 24.6032 24.7834 24.8385 24.8224 25.068C24.9496 25.8552 25.6888 26.4 26.4856 26.4H27.2C27.6424 26.4 28 26.7784 28 27.2208V27.2416C28 27.6832 27.6424 28 27.2 28H26.5376C24.8656 28 23.3736 26.7776 23.2152 25.1136C23.1714 24.6691 23.2212 24.2204 23.3613 23.7963C23.5014 23.3722 23.7287 22.9822 24.0286 22.6512C24.3285 22.3203 24.6943 22.0558 25.1026 21.8747C25.5109 21.6937 25.9526 21.6001 26.3992 21.6H27.1992C27.6424 21.6 28 21.9784 28 22.4208Z" fill="#16DBCC"/>
</g>
</svg>
