<svg width="45" height="44" viewBox="0 0 45 44" fill="none" xmlns="http://www.w3.org/2000/svg">
<rect opacity="0.6" x="0.991211" y="0.5" width="43" height="43" rx="7.5" stroke="#CFDBD5" stroke-opacity="0.7" stroke-linecap="square"/>
<path d="M22.7363 26.9271V24.3901" stroke="black" stroke-width="1.5" stroke-linecap="round" stroke-linejoin="round"/>
<path fill-rule="evenodd" clip-rule="evenodd" d="M28.9312 15.5806C30.6212 15.5806 31.9812 16.9506 31.9812 18.6406V22.0806C29.5212 23.5206 26.2712 24.3906 22.7312 24.3906C19.1912 24.3906 15.9512 23.5206 13.4912 22.0806V18.6306C13.4912 16.9406 14.8612 15.5806 16.5512 15.5806H28.9312Z" stroke="black" stroke-width="1.5" stroke-linecap="round" stroke-linejoin="round"/>
<path d="M26.2363 15.576V15.21C26.2363 13.99 25.2463 13 24.0263 13H21.4463C20.2263 13 19.2363 13.99 19.2363 15.21V15.576" stroke="black" stroke-width="1.5" stroke-linecap="round" stroke-linejoin="round"/>
<path d="M13.5156 25.7334L13.7046 28.2424C13.8326 29.9334 15.2416 31.2404 16.9366 31.2404H28.5356C30.2306 31.2404 31.6396 29.9334 31.7676 28.2424L31.9566 25.7334" stroke="black" stroke-width="1.5" stroke-linecap="round" stroke-linejoin="round"/>
</svg>
