<svg width="44" height="44" viewBox="0 0 44 44" fill="none" xmlns="http://www.w3.org/2000/svg">
<rect x="0.5" y="0.5" width="43" height="43" rx="7.5" stroke="#CFDBD5" stroke-opacity="0.7" stroke-linecap="square"/>
<path fill-rule="evenodd" clip-rule="evenodd" d="M27.8572 30.417C29.7302 30.417 31.2492 28.899 31.2502 27.026V27.024V24.324C30.0132 24.324 29.0112 23.322 29.0102 22.085C29.0102 20.849 30.0122 19.846 31.2492 19.846L31.2502 17.146C31.2522 15.272 29.7352 13.752 27.8622 13.75H27.8562H16.1442C14.2702 13.75 12.7512 15.268 12.7502 17.142V19.933C13.9442 19.891 14.9452 20.825 14.9872 22.019C14.9882 22.041 14.9892 22.063 14.9892 22.085C14.9902 23.32 13.9912 24.322 12.7562 24.324H12.7502V27.024C12.7492 28.897 14.2682 30.417 16.1412 30.417H27.8572Z" stroke="black" stroke-width="1.5" stroke-linecap="round" stroke-linejoin="round"/>
<path fill-rule="evenodd" clip-rule="evenodd" d="M22.3713 19.063L22.9873 20.31C23.0473 20.432 23.1633 20.517 23.2983 20.537L24.6753 20.738C25.0163 20.788 25.1513 21.206 24.9053 21.445L23.9093 22.415C23.8113 22.51 23.7673 22.647 23.7893 22.782L24.0243 24.152C24.0823 24.491 23.7273 24.749 23.4233 24.589L22.1923 23.942C22.0713 23.878 21.9273 23.878 21.8063 23.942L20.5763 24.589C20.2713 24.749 19.9163 24.491 19.9743 24.152L20.2093 22.782C20.2323 22.647 20.1873 22.51 20.0893 22.415L19.0943 21.445C18.8483 21.206 18.9833 20.788 19.3233 20.738L20.7003 20.537C20.8353 20.517 20.9523 20.432 21.0123 20.31L21.6273 19.063C21.7793 18.755 22.2193 18.755 22.3713 19.063Z" stroke="black" stroke-width="1.5" stroke-linecap="round" stroke-linejoin="round"/>
</svg>
