<svg xmlns="http://www.w3.org/2000/svg" width="50" height="50" viewBox="0 0 50 50" fill="none">
  <rect width="50" height="50" rx="12" fill="#DCFAF8"/>
  <path fill-rule="evenodd" clip-rule="evenodd" d="M34.725 21.148L29.275 15.363C29.085 15.164 28.824 15 28.55 15H17C15.896 15 15 16 15 17.104V24.104C15 24.3692 15.1054 24.6236 15.2929 24.8111C15.4804 24.9986 15.7348 25.104 16 25.104C16.2652 25.104 16.5196 24.9986 16.7071 24.8111C16.8946 24.6236 17 24.3692 17 24.104V18.104C17 17.552 17.448 17 18 17H27V21.104C27 22.209 27.896 23 29 23H33V24.104C33 24.3692 33.1054 24.6236 33.2929 24.8111C33.4804 24.9986 33.7348 25.104 34 25.104C34.2652 25.104 34.5196 24.9986 34.7071 24.8111C34.8946 24.6236 35 24.3692 35 24.104V21.837C35.0003 21.5805 34.9018 21.3338 34.725 21.148ZM26 30C26 29.7348 25.8946 29.4804 25.7071 29.2929C25.5196 29.1054 25.2652 29 25 29C24.7348 29 24.4804 29.1054 24.2929 29.2929C24.1054 29.4804 24 29.7348 24 30V32C24 32.2652 24.1054 32.5196 24.2929 32.7071C24.4804 32.8946 24.7348 33 25 33C25.2652 33 25.5196 32.8946 25.7071 32.7071C25.8946 32.5196 26 32.2652 26 32V30ZM28 29V33C28 33.5304 27.7893 34.0391 27.4142 34.4142C27.0391 34.7893 26.5304 35 26 35H24C23.4696 35 22.9609 34.7893 22.5858 34.4142C22.2107 34.0391 22 33.5304 22 33V29C22 28.4696 22.2107 27.9609 22.5858 27.5858C22.9609 27.2107 23.4696 27 24 27H26C26.5304 27 27.0391 27.2107 27.4142 27.5858C27.7893 27.9609 28 28.4696 28 29ZM19 30.104C19 29.552 18.553 29 18 29H17V33H18C18.553 33 19 32.656 19 32.104V30.104ZM21 29.104V33.104C21 34.209 20.105 35 19 35H16C15.448 35 15 34.656 15 34.104V28.104C15 27.552 15.448 27 16 27H19C20.105 27 21 28 21 29.104ZM35 28.026V28.052C35 28.604 34.553 29 34 29H33C32.709 29 32.4215 29.0634 32.1575 29.186C31.8936 29.3085 31.6595 29.4872 31.4718 29.7096C31.284 29.9319 31.147 30.1925 31.0704 30.4733C30.9937 30.754 30.9793 31.0481 31.028 31.335C31.187 32.319 32.111 33 33.107 33H34C34.553 33 35 33.473 35 34.026V34.052C35 34.604 34.553 35 34 35H33.172C31.082 35 29.217 33.472 29.019 31.392C28.9643 30.8364 29.0265 30.2755 29.2016 29.7454C29.3767 29.2153 29.6608 28.7277 30.0357 28.314C30.4106 27.9003 30.8679 27.5697 31.3783 27.3434C31.8886 27.1171 32.4407 27.0001 32.999 27H33.999C34.553 27 35 27.473 35 28.026Z" fill="#16DBCC"/>
</svg>