<svg width="30" height="30" viewBox="0 0 30 30" fill="none" xmlns="http://www.w3.org/2000/svg">
<rect width="30" height="30" rx="8" fill="#2969FF"/>
<path fill-rule="evenodd" clip-rule="evenodd" d="M16.3333 8.5C16.6095 8.5 16.8333 8.72386 16.8333 9V11.6667C16.8333 11.7109 16.8509 11.7533 16.8821 11.7845C16.9134 11.8158 16.9558 11.8333 17 11.8333H19.6666C19.9428 11.8333 20.1666 12.0572 20.1666 12.3333C20.1666 12.6095 19.9428 12.8333 19.6666 12.8333H17C16.6906 12.8333 16.3938 12.7104 16.175 12.4916C15.9562 12.2728 15.8333 11.9761 15.8333 11.6667V9C15.8333 8.72386 16.0572 8.5 16.3333 8.5Z" fill="white"/>
<path fill-rule="evenodd" clip-rule="evenodd" d="M11.6666 9.5C11.4456 9.5 11.2337 9.5878 11.0774 9.74408C10.9211 9.90036 10.8333 10.1123 10.8333 10.3333V19.6667C10.8333 19.8877 10.9211 20.0996 11.0774 20.2559C11.2337 20.4122 11.4456 20.5 11.6666 20.5H18.3333C18.5543 20.5 18.7663 20.4122 18.9226 20.2559C19.0788 20.0996 19.1666 19.8877 19.1666 19.6667V12.5404L16.1262 9.5H11.6666ZM10.3703 9.03697C10.7141 8.69315 11.1804 8.5 11.6666 8.5H16.3333C16.4659 8.5 16.5931 8.55268 16.6869 8.64645L20.0202 11.9798C20.114 12.0735 20.1666 12.2007 20.1666 12.3333V19.6667C20.1666 20.1529 19.9735 20.6192 19.6297 20.963C19.2859 21.3068 18.8195 21.5 18.3333 21.5H11.6666C11.1804 21.5 10.7141 21.3068 10.3703 20.963C10.0265 20.6192 9.83331 20.1529 9.83331 19.6667V10.3333C9.83331 9.8471 10.0265 9.38079 10.3703 9.03697Z" fill="white"/>
<path fill-rule="evenodd" clip-rule="evenodd" d="M15 13.8333C15.2761 13.8333 15.5 14.0572 15.5 14.3333V18.3333C15.5 18.6095 15.2761 18.8333 15 18.8333C14.7238 18.8333 14.5 18.6095 14.5 18.3333V14.3333C14.5 14.0572 14.7238 13.8333 15 13.8333Z" fill="white"/>
<path fill-rule="evenodd" clip-rule="evenodd" d="M12.6464 15.9798C12.8417 15.7845 13.1583 15.7845 13.3535 15.9798L15 17.6262L16.6464 15.9798C16.8417 15.7845 17.1583 15.7845 17.3535 15.9798C17.5488 16.175 17.5488 16.4916 17.3535 16.6869L15.3535 18.6869C15.1583 18.8821 14.8417 18.8821 14.6464 18.6869L12.6464 16.6869C12.4512 16.4916 12.4512 16.175 12.6464 15.9798Z" fill="white"/>
</svg>
