<svg xmlns="http://www.w3.org/2000/svg" width="20" height="20" viewBox="0 0 20 20" fill="none">
<path fill-rule="evenodd" clip-rule="evenodd" d="M0.208252 18.3333C0.208252 17.9882 0.488074 17.7083 0.833252 17.7083H19.1666C19.5118 17.7083 19.7916 17.9882 19.7916 18.3333C19.7916 18.6785 19.5118 18.9583 19.1666 18.9583H0.833252C0.488074 18.9583 0.208252 18.6785 0.208252 18.3333Z" fill="#70707A"/>
<path fill-rule="evenodd" clip-rule="evenodd" d="M16.4833 14C16.8285 14 17.1083 14.2798 17.1083 14.625V18.3417C17.1083 18.6869 16.8285 18.9667 16.4833 18.9667C16.1381 18.9667 15.8583 18.6869 15.8583 18.3417V14.625C15.8583 14.2798 16.1381 14 16.4833 14Z" fill="#70707A"/>
<path fill-rule="evenodd" clip-rule="evenodd" d="M14.0416 10.9084C14.0416 9.54652 15.1381 8.45002 16.4999 8.45002C17.8618 8.45002 18.9583 9.54652 18.9583 10.9084V12.8C18.9583 14.1618 17.8618 15.2583 16.4999 15.2583C15.1381 15.2583 14.0416 14.1618 14.0416 12.8V10.9084ZM16.4999 9.70002C15.8284 9.70002 15.2916 10.2369 15.2916 10.9084V12.8C15.2916 13.4715 15.8284 14.0083 16.4999 14.0083C17.1714 14.0083 17.7083 13.4715 17.7083 12.8V10.9084C17.7083 10.2369 17.1714 9.70002 16.4999 9.70002Z" fill="#70707A"/>
<path fill-rule="evenodd" clip-rule="evenodd" d="M2.81801 3.5783C2.55917 3.83973 2.3749 4.2831 2.3749 5.02503V18.3333C2.3749 18.6785 2.09508 18.9583 1.7499 18.9583C1.40472 18.9583 1.1249 18.6785 1.1249 18.3333V5.02503C1.1249 4.09196 1.35731 3.27699 1.92974 2.69883C2.50329 2.11953 3.31372 1.88335 4.24161 1.88335H9.43326C10.3612 1.88335 11.1703 2.11957 11.742 2.69995C12.3121 3.27861 12.5416 4.09354 12.5416 5.02503V18.3333C12.5416 18.6785 12.2618 18.9583 11.9166 18.9583C11.5714 18.9583 11.2916 18.6785 11.2916 18.3333V5.02503C11.2916 4.28152 11.1086 3.83811 10.8515 3.57717C10.5962 3.31797 10.1637 3.13335 9.43326 3.13335H4.24161C3.51116 3.13335 3.07573 3.318 2.81801 3.5783Z" fill="#70707A"/>
<path fill-rule="evenodd" clip-rule="evenodd" d="M4.20824 6.87501C4.20824 6.52983 4.48806 6.25001 4.83324 6.25001H8.95825C9.30343 6.25001 9.58325 6.52983 9.58325 6.87501C9.58325 7.22018 9.30343 7.50001 8.95825 7.50001H4.83324C4.48806 7.50001 4.20824 7.22018 4.20824 6.87501Z" fill="#70707A"/>
<path fill-rule="evenodd" clip-rule="evenodd" d="M4.20824 10C4.20824 9.65483 4.48806 9.37501 4.83324 9.37501H8.95825C9.30343 9.37501 9.58325 9.65483 9.58325 10C9.58325 10.3452 9.30343 10.625 8.95825 10.625H4.83324C4.48806 10.625 4.20824 10.3452 4.20824 10Z" fill="#70707A"/>
<path fill-rule="evenodd" clip-rule="evenodd" d="M6.87492 14.5833C7.2201 14.5833 7.49992 14.8632 7.49992 15.2083V18.3333C7.49992 18.6785 7.2201 18.9583 6.87492 18.9583C6.52974 18.9583 6.24992 18.6785 6.24992 18.3333V15.2083C6.24992 14.8632 6.52974 14.5833 6.87492 14.5833Z" fill="#70707A"/>
</svg>