<svg xmlns="http://www.w3.org/2000/svg" width="20" height="20" viewBox="0 0 20 20" fill="none">
<path fill-rule="evenodd" clip-rule="evenodd" d="M5.83341 9.79167C5.25812 9.79167 4.79175 10.258 4.79175 10.8333V15.8333C4.79175 16.4086 5.25812 16.875 5.83341 16.875H14.1667C14.742 16.875 15.2084 16.4086 15.2084 15.8333V10.8333C15.2084 10.258 14.742 9.79167 14.1667 9.79167H5.83341ZM3.54175 10.8333C3.54175 9.56768 4.56776 8.54167 5.83341 8.54167H14.1667C15.4324 8.54167 16.4584 9.56768 16.4584 10.8333V15.8333C16.4584 17.099 15.4324 18.125 14.1667 18.125H5.83341C4.56776 18.125 3.54175 17.099 3.54175 15.8333V10.8333Z" fill="#70707A"/>
<path fill-rule="evenodd" clip-rule="evenodd" d="M8.33342 13.3333C8.33342 12.4129 9.07961 11.6667 10.0001 11.6667C10.9206 11.6667 11.6667 12.4129 11.6667 13.3333C11.6667 14.2538 10.9206 15 10.0001 15C9.07961 15 8.33342 14.2538 8.33342 13.3333Z" fill="#70707A"/>
<path fill-rule="evenodd" clip-rule="evenodd" d="M10.0001 3.125C9.28179 3.125 8.59291 3.41034 8.085 3.91825C7.57709 4.42616 7.29175 5.11504 7.29175 5.83333V9.16667C7.29175 9.51184 7.01193 9.79167 6.66675 9.79167C6.32157 9.79167 6.04175 9.51184 6.04175 9.16667V5.83333C6.04175 4.78352 6.45879 3.7767 7.20112 3.03437C7.94345 2.29204 8.95027 1.875 10.0001 1.875C11.0499 1.875 12.0567 2.29204 12.799 3.03437C13.5414 3.7767 13.9584 4.78352 13.9584 5.83333V9.16667C13.9584 9.51184 13.6786 9.79167 13.3334 9.79167C12.9882 9.79167 12.7084 9.51184 12.7084 9.16667V5.83333C12.7084 5.11504 12.4231 4.42616 11.9152 3.91825C11.4073 3.41034 10.7184 3.125 10.0001 3.125Z" fill="#70707A"/>
</svg> 
