<svg xmlns="http://www.w3.org/2000/svg" width="20" height="20" viewBox="0 0 20 20" fill="none">
  <path fill-rule="evenodd" clip-rule="evenodd" d="M9.37508 4.63334C9.37508 4.28816 9.6549 4.00834 10.0001 4.00834H18.3334C18.6786 4.00834 18.9584 4.28816 18.9584 4.63334C18.9584 4.97851 18.6786 5.25834 18.3334 5.25834H10.0001C9.6549 5.25834 9.37508 4.97851 9.37508 4.63334Z" fill="#70707A"/>
  <path fill-rule="evenodd" clip-rule="evenodd" d="M10.8091 2.47694C10.7326 2.55286 10.6251 2.76197 10.6251 3.5V6.925C10.6251 7.66304 10.7326 7.87214 10.8091 7.94806C10.8873 8.02569 11.1028 8.13333 11.8501 8.13333H16.4834C17.2307 8.13333 17.4462 8.02569 17.5244 7.94806C17.6009 7.87214 17.7084 7.66304 17.7084 6.925V3.5C17.7084 2.76197 17.6009 2.55286 17.5244 2.47694C17.4462 2.39931 17.2307 2.29167 16.4834 2.29167H11.8501C11.1028 2.29167 10.8873 2.39931 10.8091 2.47694ZM9.92856 1.58973C10.4045 1.11736 11.1141 1.04167 11.8501 1.04167H16.4834C17.2194 1.04167 17.929 1.11736 18.4049 1.58973C18.8826 2.06381 18.9584 2.77137 18.9584 3.5V6.925C18.9584 7.65363 18.8826 8.3612 18.4049 8.83528C17.929 9.30764 17.2194 9.38333 16.4834 9.38333H11.8501C11.1141 9.38333 10.4045 9.30764 9.92856 8.83528C9.45089 8.3612 9.37508 7.65363 9.37508 6.925V3.5C9.37508 2.77137 9.45089 2.06381 9.92856 1.58973Z" fill="#70707A"/>
  <path fill-rule="evenodd" clip-rule="evenodd" d="M1.04175 14.2167C1.04175 13.8715 1.32157 13.5917 1.66675 13.5917H10.0001C10.3453 13.5917 10.6251 13.8715 10.6251 14.2167C10.6251 14.5618 10.3453 14.8417 10.0001 14.8417H1.66675C1.32157 14.8417 1.04175 14.5618 1.04175 14.2167Z" fill="#70707A"/>
  <path fill-rule="evenodd" clip-rule="evenodd" d="M2.47577 12.0603C2.39927 12.1362 2.29175 12.3453 2.29175 13.0833V16.5083C2.29175 17.2464 2.39927 17.4555 2.47577 17.5314C2.55399 17.609 2.76943 17.7167 3.51675 17.7167H8.15008C8.8974 17.7167 9.11284 17.609 9.19106 17.5314C9.26756 17.4555 9.37508 17.2464 9.37508 16.5083V13.0833C9.37508 12.3453 9.26756 12.1362 9.19106 12.0603C9.11284 11.9826 8.8974 11.875 8.15008 11.875H3.51675C2.76943 11.875 2.55399 11.9826 2.47577 12.0603ZM1.59523 11.1731C2.07118 10.7007 2.78074 10.625 3.51675 10.625H8.15008C8.88609 10.625 9.59565 10.7007 10.0716 11.1731C10.5493 11.6471 10.6251 12.3547 10.6251 13.0833V16.5083C10.6251 17.237 10.5493 17.9445 10.0716 18.4186C9.59565 18.891 8.88609 18.9667 8.15008 18.9667H3.51675C2.78074 18.9667 2.07118 18.891 1.59523 18.4186C1.11756 17.9445 1.04175 17.237 1.04175 16.5083V13.0833C1.04175 12.3547 1.11756 11.6471 1.59523 11.1731Z" fill="#70707A"/>
  <path fill-rule="evenodd" clip-rule="evenodd" d="M18.3334 11.875C18.6786 11.875 18.9584 12.1548 18.9584 12.5C18.9584 16.0702 16.0703 18.9583 12.5001 18.9583C12.2749 18.9583 12.0671 18.8372 11.9562 18.6413C11.8453 18.4453 11.8483 18.2049 11.9641 18.0118L12.8391 16.5534C13.0167 16.2575 13.4006 16.1615 13.6966 16.3391C13.9926 16.5167 14.0886 16.9006 13.911 17.1966L13.6849 17.5734C15.9925 17.038 17.7084 14.9722 17.7084 12.5C17.7084 12.1548 17.9882 11.875 18.3334 11.875Z" fill="#70707A"/>
  <path fill-rule="evenodd" clip-rule="evenodd" d="M6.31525 2.42661C4.00767 2.96197 2.29175 5.02785 2.29175 7.5C2.29175 7.84518 2.01193 8.125 1.66675 8.125C1.32157 8.125 1.04175 7.84518 1.04175 7.5C1.04175 3.92982 3.9299 1.04167 7.50008 1.04167C7.72525 1.04167 7.93301 1.16279 8.04396 1.35873C8.1549 1.55467 8.15186 1.79514 8.03602 1.98823L7.16103 3.44656C6.98344 3.74255 6.59952 3.83853 6.30353 3.66094C6.00755 3.48335 5.91157 3.09943 6.08916 2.80344L6.31525 2.42661Z" fill="#70707A"/>
</svg>