<svg xmlns="http://www.w3.org/2000/svg" width="24" height="24" viewBox="0 0 24 24" fill="none">
  <path opacity="0.4" d="M17.8877 10.8967C19.2827 10.7007 20.3567 9.5047 20.3597 8.0557C20.3597 6.6277 19.3187 5.4437 17.9537 5.2197" stroke="#70707A" stroke-width="1.5" stroke-linecap="round" stroke-linejoin="round"/>
  <path d="M19.7285 14.2503C21.0795 14.4523 22.0225 14.9253 22.0225 15.9003C22.0225 16.5713 21.5785 17.0073 20.8605 17.2813" stroke="#70707A" stroke-width="1.5" stroke-linecap="round" stroke-linejoin="round"/>
  <path fill-rule="evenodd" clip-rule="evenodd" d="M11.8867 14.6638C8.67273 14.6638 5.92773 15.1508 5.92773 17.0958C5.92773 19.0398 8.65573 19.5408 11.8867 19.5408C15.1007 19.5408 17.8447 19.0588 17.8447 17.1128C17.8447 15.1668 15.1177 14.6638 11.8867 14.6638Z" stroke="#70707A" stroke-width="1.5" stroke-linecap="round" stroke-linejoin="round"/>
  <path opacity="0.4" fill-rule="evenodd" clip-rule="evenodd" d="M11.8867 11.8879C13.9957 11.8879 15.7057 10.1789 15.7057 8.0689C15.7057 5.9599 13.9957 4.2499 11.8867 4.2499C9.77768 4.2499 8.06765 5.9599 8.06765 8.0689C8.05968 10.1709 9.75668 11.8809 11.8587 11.8879H11.8867Z" stroke="#70707A" stroke-width="1.5" stroke-linecap="round" stroke-linejoin="round"/>
  <path opacity="0.4" d="M5.88484 10.8967C4.48884 10.7007 3.41584 9.5047 3.41284 8.0557C3.41284 6.6277 4.45384 5.4437 5.81884 5.2197" stroke="#70707A" stroke-width="1.5" stroke-linecap="round" stroke-linejoin="round"/>
  <path d="M4.044 14.2503C2.693 14.4523 1.75 14.9253 1.75 15.9003C1.75 16.5713 2.194 17.0073 2.912 17.2813" stroke="#70707A" stroke-width="1.5" stroke-linecap="round" stroke-linejoin="round"/>
</svg>