<svg width="30" height="30" viewBox="0 0 30 30" fill="none" xmlns="http://www.w3.org/2000/svg">
<g clip-path="url(#clip0_28_1467)">
<path d="M23.6019 0H6.39813C2.86454 0 0 2.86454 0 6.39813V23.6019C0 27.1355 2.86454 30 6.39813 30H23.6019C27.1355 30 30 27.1355 30 23.6019V6.39813C30 2.86454 27.1355 0 23.6019 0Z" fill="#1976D2"/>
<path fill-rule="evenodd" clip-rule="evenodd" d="M18.443 15.4371H16.0393V24.2433H12.392V15.4371H10.6606V12.3435H12.392V10.3397C12.392 8.90712 13.0731 6.66602 16.0657 6.66602L18.7638 6.6748V9.68052H16.8039C16.4831 9.68052 16.0349 9.83871 16.0349 10.5242V12.3435H18.7594L18.4386 15.4371H18.443Z" fill="white"/>
</g>
<defs>
<clipPath id="clip0_28_1467">
<rect width="30" height="30" fill="white"/>
</clipPath>
</defs>
</svg>
