<svg width="37" height="37" viewBox="0 0 37 37" fill="none" xmlns="http://www.w3.org/2000/svg">
<path d="M33.9167 12.7497V6.52141C33.9167 4.07016 32.93 3.0835 30.4788 3.0835H24.2504C21.7992 3.0835 20.8125 4.07016 20.8125 6.52141V12.7497C20.8125 15.201 21.7992 16.1877 24.2504 16.1877H30.4788C32.93 16.1877 33.9167 15.201 33.9167 12.7497Z" stroke="#FB6039" stroke-width="3" stroke-linecap="round" stroke-linejoin="round"/>
<path d="M16.1875 13.1352V6.136C16.1875 3.96225 15.2008 3.0835 12.7496 3.0835H6.52123C4.06998 3.0835 3.08331 3.96225 3.08331 6.136V13.1197C3.08331 15.3089 4.06998 16.1722 6.52123 16.1722H12.7496C15.2008 16.1877 16.1875 15.3089 16.1875 13.1352Z" stroke="#FB6039" stroke-width="3" stroke-linecap="round" stroke-linejoin="round"/>
<path d="M16.1875 30.4788V24.2504C16.1875 21.7992 15.2008 20.8125 12.7496 20.8125H6.52123C4.06998 20.8125 3.08331 21.7992 3.08331 24.2504V30.4788C3.08331 32.93 4.06998 33.9167 6.52123 33.9167H12.7496C15.2008 33.9167 16.1875 32.93 16.1875 30.4788Z" stroke="#FB6039" stroke-width="3" stroke-linecap="round" stroke-linejoin="round"/>
<path d="M22.3542 26.979H31.6042" stroke="#FB6039" stroke-width="3" stroke-linecap="round"/>
<path d="M26.9792 31.604V22.354" stroke="#FB6039" stroke-width="3" stroke-linecap="round"/>
</svg>
