<svg width="28" height="27" viewBox="0 0 28 27" fill="none" xmlns="http://www.w3.org/2000/svg">
<path fill-rule="evenodd" clip-rule="evenodd" d="M10.6262 17.8228C15.8164 17.8228 20.2525 18.6092 20.2525 21.7509C20.2525 24.8926 15.846 25.7016 10.6262 25.7016C5.43466 25.7016 1 24.9221 1 21.7791C1 18.636 5.40511 17.8228 10.6262 17.8228Z" stroke="#FB6039" stroke-width="2" stroke-linecap="round" stroke-linejoin="round"/>
<path fill-rule="evenodd" clip-rule="evenodd" d="M10.6264 13.3388C7.21878 13.3388 4.45557 10.577 4.45557 7.16941C4.45557 3.76181 7.21878 1 10.6264 1C14.0326 1 16.7958 3.76181 16.7958 7.16941C16.8084 10.5643 14.0649 13.3261 10.67 13.3388H10.6264Z" stroke="#FB6039" stroke-width="2" stroke-linecap="round" stroke-linejoin="round"/>
<path d="M20.3223 11.7373C22.5748 11.4207 24.3095 9.4876 24.3137 7.14787C24.3137 4.84191 22.6325 2.92848 20.4278 2.56689" stroke="#FB6039" stroke-width="2" stroke-linecap="round" stroke-linejoin="round"/>
<path d="M23.2942 17.1548C25.4763 17.4798 27.0001 18.2452 27.0001 19.8209C27.0001 20.9057 26.2825 21.6091 25.1232 22.0495" stroke="#FB6039" stroke-width="2" stroke-linecap="round" stroke-linejoin="round"/>
</svg>
