<svg xmlns="http://www.w3.org/2000/svg" width="31" height="31" viewBox="0 0 31 31" fill="none">
<path d="M12.9177 3.65537C13.5745 0.948208 17.4255 0.948208 18.0823 3.65537C18.1808 4.06207 18.374 4.43974 18.6461 4.75767C18.9182 5.07559 19.2615 5.32478 19.6481 5.48494C20.0347 5.64511 20.4536 5.71173 20.8708 5.67938C21.288 5.64703 21.6917 5.51663 22.049 5.29879C24.4278 3.84962 27.1519 6.57221 25.7027 8.95254C25.4852 9.30968 25.355 9.7131 25.3228 10.13C25.2905 10.5469 25.357 10.9656 25.517 11.352C25.677 11.7383 25.9259 12.0815 26.2435 12.3535C26.561 12.6256 26.9383 12.8189 27.3446 12.9177C30.0518 13.5745 30.0518 17.4255 27.3446 18.0823C26.9379 18.1808 26.5603 18.374 26.2423 18.6461C25.9244 18.9182 25.6752 19.2615 25.5151 19.6481C25.3549 20.0347 25.2883 20.4536 25.3206 20.8708C25.353 21.288 25.4834 21.6917 25.7012 22.049C27.1504 24.4278 24.4278 27.1519 22.0475 25.7027C21.6903 25.4852 21.2869 25.355 20.87 25.3228C20.4531 25.2905 20.0344 25.357 19.648 25.517C19.2617 25.677 18.9185 25.9259 18.6465 26.2435C18.3744 26.561 18.1811 26.9383 18.0823 27.3446C17.4255 30.0518 13.5745 30.0518 12.9177 27.3446C12.8192 26.9379 12.626 26.5603 12.3539 26.2423C12.0818 25.9244 11.7385 25.6752 11.3519 25.5151C10.9653 25.3549 10.5464 25.2883 10.1292 25.3206C9.71196 25.353 9.30828 25.4834 8.951 25.7012C6.57221 27.1504 3.84808 24.4278 5.29725 22.0475C5.51478 21.6903 5.64497 21.2869 5.67725 20.87C5.70952 20.4531 5.64296 20.0344 5.48298 19.648C5.323 19.2617 5.07411 18.9185 4.75655 18.6465C4.43898 18.3744 4.0617 18.1811 3.65537 18.0823C0.948208 17.4255 0.948208 13.5745 3.65537 12.9177C4.06207 12.8192 4.43974 12.626 4.75767 12.3539C5.07559 12.0818 5.32478 11.7385 5.48494 11.3519C5.64511 10.9653 5.71173 10.5464 5.67938 10.1292C5.64703 9.71196 5.51663 9.30828 5.29879 8.951C3.84962 6.57221 6.57221 3.84808 8.95254 5.29725C10.4942 6.23458 12.4922 5.40517 12.9177 3.65537Z" stroke="#FB6039" stroke-width="3" stroke-linecap="round" stroke-linejoin="round"/>
<path d="M15.5 20.125C18.0543 20.125 20.125 18.0543 20.125 15.5C20.125 12.9457 18.0543 10.875 15.5 10.875C12.9457 10.875 10.875 12.9457 10.875 15.5C10.875 18.0543 12.9457 20.125 15.5 20.125Z" stroke="#FB6039" stroke-width="3" stroke-linecap="round" stroke-linejoin="round"/>
</svg>