<svg xmlns="http://www.w3.org/2000/svg" width="13" height="15" viewBox="0 0 23 25" fill="none">
<path d="M20.0938 0H2.90625C1.65625 0 0.5625 1.09375 0.5625 2.34375V22.6562C0.5625 23.9062 1.65625 25 2.90625 25H20.0938C21.3438 25 22.4375 23.9062 22.4375 22.6562V2.34375C22.4375 1.09375 21.3438 0 20.0938 0ZM6.8125 21.25C6.8125 21.5625 6.5 21.875 6.1875 21.875H4.3125C4 21.875 3.6875 21.5625 3.6875 21.25V19.375C3.6875 19.0625 4 18.75 4.3125 18.75H6.1875C6.5 18.75 6.8125 19.0625 6.8125 19.375V21.25ZM6.8125 15C6.8125 15.3125 6.5 15.625 6.1875 15.625H4.3125C4 15.625 3.6875 15.3125 3.6875 15V13.125C3.6875 12.8125 4 12.5 4.3125 12.5H6.1875C6.5 12.5 6.8125 12.8125 6.8125 13.125V15ZM13.0625 21.25C13.0625 21.5625 12.75 21.875 12.4375 21.875H10.5625C10.25 21.875 9.9375 21.5625 9.9375 21.25V19.375C9.9375 19.0625 10.25 18.75 10.5625 18.75H12.4375C12.75 18.75 13.0625 19.0625 13.0625 19.375V21.25ZM13.0625 15C13.0625 15.3125 12.75 15.625 12.4375 15.625H10.5625C10.25 15.625 9.9375 15.3125 9.9375 15V13.125C9.9375 12.8125 10.25 12.5 10.5625 12.5H12.4375C12.75 12.5 13.0625 12.8125 13.0625 13.125V15ZM19.3125 21.25C19.3125 21.5625 19 21.875 18.6875 21.875H16.8125C16.5 21.875 16.1875 21.5625 16.1875 21.25V13.125C16.1875 12.8125 16.5 12.5 16.8125 12.5H18.6875C19 12.5 19.3125 12.8125 19.3125 13.125V21.25ZM19.3125 8.75C19.3125 9.0625 19 9.375 18.6875 9.375H4.3125C4 9.375 3.6875 9.0625 3.6875 8.75V3.75C3.6875 3.4375 4 3.125 4.3125 3.125H18.6875C19 3.125 19.3125 3.4375 19.3125 3.75V8.75Z" fill="#FB6039"/>
</svg>