<svg width="37" height="37" viewBox="0 0 37 37" fill="none" xmlns="http://www.w3.org/2000/svg">
<path d="M33.9166 18.4999C33.9166 27.0099 27.0099 33.9166 18.4999 33.9166C9.98992 33.9166 3.08325 27.0099 3.08325 18.4999C3.08325 9.98992 9.98992 3.08325 18.4999 3.08325" stroke="#FB6039" stroke-width="3" stroke-linecap="round" stroke-linejoin="round"/>
<g clip-path="url(#clip0_28_7746)">
<path d="M17.8716 18.1914C19.0628 18.1914 20.0943 17.837 20.9371 17.1379C21.7799 16.4389 22.2071 15.5836 22.2071 14.5956C22.2071 13.6078 21.7799 12.7525 20.9369 12.0532C20.094 11.3543 19.0627 11 17.8716 11C16.6803 11 15.6491 11.3543 14.8063 12.0533C13.9635 12.7523 13.5361 13.6077 13.5361 14.5956C13.5361 15.5836 13.9635 16.439 14.8064 17.138C15.6494 17.8369 16.6807 18.1914 17.8716 18.1914Z" fill="#FB6039"/>
<path d="M25.4577 22.4796C25.4333 22.1887 25.3842 21.8713 25.3118 21.5362C25.2388 21.1986 25.1447 20.8795 25.0321 20.5878C24.9158 20.2863 24.7576 19.9886 24.562 19.7033C24.359 19.4071 24.1206 19.1493 23.8531 18.9371C23.5734 18.7151 23.2309 18.5366 22.8348 18.4064C22.4401 18.2769 22.0027 18.2113 21.5349 18.2113C21.3511 18.2113 21.1734 18.2738 20.8302 18.4591C20.619 18.5734 20.3719 18.7055 20.0962 18.8516C19.8604 18.9762 19.541 19.093 19.1464 19.1987C18.7615 19.302 18.3707 19.3544 17.9849 19.3544C17.5991 19.3544 17.2084 19.302 16.8231 19.1987C16.429 19.0931 16.1095 18.9764 15.874 18.8518C15.6009 18.707 15.3537 18.5749 15.1393 18.459C14.7965 18.2737 14.6187 18.2112 14.4349 18.2112C13.9669 18.2112 13.5297 18.2769 13.1351 18.4065C12.7393 18.5365 12.3967 18.715 12.1167 18.9372C11.8493 19.1495 11.6108 19.4072 11.4081 19.7033C11.2126 19.9886 11.0544 20.2862 10.938 20.5879C10.8255 20.8796 10.7314 21.1986 10.6584 21.5362C10.586 21.8709 10.5368 22.1883 10.5125 22.4799C10.4886 22.7656 10.4766 23.062 10.4766 23.3615C10.4766 24.1408 10.7753 24.7717 11.3643 25.2369C11.946 25.6961 12.7157 25.929 13.6517 25.929H22.3189C23.2549 25.929 24.0244 25.6962 24.6062 25.2369C25.1954 24.772 25.494 24.141 25.494 23.3614C25.4939 23.0606 25.4817 22.7638 25.4577 22.4796Z" fill="#FB6039"/>
</g>
<defs>
<clipPath id="clip0_28_7746">
<rect width="18" height="14.9291" fill="white" transform="translate(9 11)"/>
</clipPath>
</defs>
</svg>
