<svg xmlns="http://www.w3.org/2000/svg" width="37" height="37" viewBox="0 0 37 37" fill="none">
  <path d="M15.9177 6.65537C16.5745 3.94821 20.4255 3.94821 21.0823 6.65537C21.1808 7.06207 21.374 7.43974 21.6461 7.75767C21.9182 8.07559 22.2615 8.32478 22.6481 8.48494C23.0347 8.64511 23.4536 8.71173 23.8708 8.67938C24.288 8.64703 24.6917 8.51663 25.049 8.29879C27.4278 6.84962 30.1519 9.57221 28.7027 11.9525C28.4852 12.3097 28.355 12.7131 28.3228 13.13C28.2905 13.5469 28.357 13.9656 28.517 14.352C28.677 14.7383 28.9259 15.0815 29.2435 15.3535C29.561 15.6256 29.9383 15.8189 30.3446 15.9177C33.0518 16.5745 33.0518 20.4255 30.3446 21.0823C29.9379 21.1808 29.5603 21.374 29.2423 21.6461C28.9244 21.9182 28.6752 22.2615 28.5151 22.6481C28.3549 23.0347 28.2883 23.4536 28.3206 23.8708C28.353 24.288 28.4834 24.6917 28.7012 25.049C30.1504 27.4278 27.4278 30.1519 25.0475 28.7027C24.6903 28.4852 24.2869 28.355 23.87 28.3228C23.4531 28.2905 23.0344 28.357 22.648 28.517C22.2617 28.677 21.9185 28.9259 21.6465 29.2435C21.3744 29.561 21.1811 29.9383 21.0823 30.3446C20.4255 33.0518 16.5745 33.0518 15.9177 30.3446C15.8192 29.9379 15.626 29.5603 15.3539 29.2423C15.0818 28.9244 14.7385 28.6752 14.3519 28.5151C13.9653 28.3549 13.5464 28.2883 13.1292 28.3206C12.712 28.353 12.3083 28.4834 11.951 28.7012C9.57221 30.1504 6.84808 27.4278 8.29725 25.0475C8.51478 24.6903 8.64497 24.2869 8.67725 23.87C8.70952 23.4531 8.64296 23.0344 8.48298 22.648C8.323 22.2617 8.07411 21.9185 7.75655 21.6465C7.43898 21.3744 7.0617 21.1811 6.65537 21.0823C3.94821 20.4255 3.94821 16.5745 6.65537 15.9177C7.06207 15.8192 7.43974 15.626 7.75767 15.3539C8.07559 15.0818 8.32478 14.7385 8.48494 14.3519C8.64511 13.9653 8.71173 13.5464 8.67938 13.1292C8.64703 12.712 8.51663 12.3083 8.29879 11.951C6.84962 9.57221 9.57221 6.84808 11.9525 8.29725C13.4942 9.23458 15.4922 8.40517 15.9177 6.65537Z" stroke="#FB6039" stroke-width="3" stroke-linecap="round" stroke-linejoin="round"/>
  <path d="M18.5 23.125C21.0543 23.125 23.125 21.0543 23.125 18.5C23.125 15.9457 21.0543 13.875 18.5 13.875C15.9457 13.875 13.875 15.9457 13.875 18.5C13.875 21.0543 15.9457 23.125 18.5 23.125Z" stroke="#FB6039" stroke-width="3" stroke-linecap="round" stroke-linejoin="round"/>
</svg>