<svg xmlns="http://www.w3.org/2000/svg" width="28" height="28" viewBox="0 0 28 28" fill="none">
  <path fill-rule="evenodd" clip-rule="evenodd" d="M9.16667 2.3335C8.61438 2.3335 8.16667 2.78121 8.16667 3.3335V4.16683H7.5C5.01472 4.16683 3 6.18155 3 8.66683V21.6668C3 24.1521 5.01472 26.1668 7.5 26.1668H20.5C22.9853 26.1668 25 24.1521 25 21.6668V8.66683C25 6.18155 22.9853 4.16683 20.5 4.16683H19.8333V3.3335C19.8333 2.78121 19.3856 2.3335 18.8333 2.3335H18.5C17.9477 2.3335 17.5 2.78121 17.5 3.3335V4.16683H10.5V3.3335C10.5 2.78121 10.0523 2.3335 9.5 2.3335H9.16667ZM18.5 5.8335C18.0646 5.8335 17.6942 5.55523 17.5569 5.16683H10.4431C10.3058 5.55523 9.93541 5.8335 9.5 5.8335H9.16667C8.73126 5.8335 8.36085 5.55523 8.22357 5.16683H7.5C5.567 5.16683 4 6.73383 4 8.66683V21.6668C4 23.5998 5.567 25.1668 7.5 25.1668H20.5C22.433 25.1668 24 23.5998 24 21.6668V8.66683C24 6.73383 22.433 5.16683 20.5 5.16683H19.7764C19.6392 5.55523 19.2687 5.8335 18.8333 5.8335H18.5ZM22.1667 11.6668H5.83333V21.3335C5.83333 22.4381 6.72876 23.3335 7.83333 23.3335H20.1667C21.2712 23.3335 22.1667 22.4381 22.1667 21.3335V11.6668Z" fill="#000032"/>
</svg>