<svg width="202" height="115" viewBox="0 0 202 115" fill="none" xmlns="http://www.w3.org/2000/svg">
<g filter="url(#filter0_d_28_1451)">
<rect x="30" y="15" width="152" height="65" rx="8" fill="white"/>
</g>
<path d="M45.0247 32.9995C45.7647 32.9995 46.4113 33.1462 46.9647 33.4395C47.518 33.7329 47.9447 34.1462 48.2447 34.6795C48.5513 35.2062 48.7047 35.8162 48.7047 36.5095C48.7047 37.1962 48.5513 37.8062 48.2447 38.3395C47.9447 38.8729 47.5147 39.2862 46.9547 39.5795C46.4013 39.8729 45.758 40.0195 45.0247 40.0195H42.3947V32.9995H45.0247ZM44.9147 38.5395C45.5613 38.5395 46.0647 38.3629 46.4247 38.0095C46.7847 37.6562 46.9647 37.1562 46.9647 36.5095C46.9647 35.8629 46.7847 35.3595 46.4247 34.9995C46.0647 34.6395 45.5613 34.4595 44.9147 34.4595H44.1047V38.5395H44.9147ZM50.5203 33.8595C50.2203 33.8595 49.9736 33.7729 49.7803 33.5995C49.5936 33.4195 49.5003 33.1995 49.5003 32.9395C49.5003 32.6729 49.5936 32.4529 49.7803 32.2795C49.9736 32.0995 50.2203 32.0095 50.5203 32.0095C50.8136 32.0095 51.0536 32.0995 51.2403 32.2795C51.4336 32.4529 51.5303 32.6729 51.5303 32.9395C51.5303 33.1995 51.4336 33.4195 51.2403 33.5995C51.0536 33.7729 50.8136 33.8595 50.5203 33.8595ZM51.3703 34.4395V40.0195H49.6603V34.4395H51.3703ZM54.3195 35.3695C54.5195 35.0629 54.7695 34.8229 55.0695 34.6495C55.3695 34.4695 55.7028 34.3795 56.0695 34.3795V36.1895H55.5995C55.1728 36.1895 54.8528 36.2829 54.6395 36.4695C54.4262 36.6495 54.3195 36.9695 54.3195 37.4295V40.0195H52.6095V34.4395H54.3195V35.3695ZM62.1468 37.1395C62.1468 37.2995 62.1368 37.4662 62.1168 37.6395H58.2468C58.2735 37.9862 58.3835 38.2529 58.5768 38.4395C58.7768 38.6195 59.0202 38.7095 59.3068 38.7095C59.7335 38.7095 60.0302 38.5295 60.1968 38.1695H62.0168C61.9235 38.5362 61.7535 38.8662 61.5068 39.1595C61.2668 39.4529 60.9635 39.6829 60.5968 39.8495C60.2302 40.0162 59.8202 40.0995 59.3668 40.0995C58.8202 40.0995 58.3335 39.9829 57.9068 39.7495C57.4802 39.5162 57.1468 39.1829 56.9068 38.7495C56.6668 38.3162 56.5468 37.8095 56.5468 37.2295C56.5468 36.6495 56.6635 36.1429 56.8968 35.7095C57.1368 35.2762 57.4702 34.9429 57.8968 34.7095C58.3235 34.4762 58.8135 34.3595 59.3668 34.3595C59.9068 34.3595 60.3868 34.4729 60.8068 34.6995C61.2268 34.9262 61.5535 35.2495 61.7868 35.6695C62.0268 36.0895 62.1468 36.5795 62.1468 37.1395ZM60.3968 36.6895C60.3968 36.3962 60.2968 36.1629 60.0968 35.9895C59.8968 35.8162 59.6468 35.7295 59.3468 35.7295C59.0602 35.7295 58.8168 35.8129 58.6168 35.9795C58.4235 36.1462 58.3035 36.3829 58.2568 36.6895H60.3968ZM62.709 37.2295C62.709 36.6495 62.8256 36.1429 63.059 35.7095C63.299 35.2762 63.629 34.9429 64.049 34.7095C64.4756 34.4762 64.9623 34.3595 65.509 34.3595C66.209 34.3595 66.7923 34.5429 67.259 34.9095C67.7323 35.2762 68.0423 35.7929 68.189 36.4595H66.369C66.2156 36.0329 65.919 35.8195 65.479 35.8195C65.1656 35.8195 64.9156 35.9429 64.729 36.1895C64.5423 36.4295 64.449 36.7762 64.449 37.2295C64.449 37.6829 64.5423 38.0329 64.729 38.2795C64.9156 38.5195 65.1656 38.6395 65.479 38.6395C65.919 38.6395 66.2156 38.4262 66.369 37.9995H68.189C68.0423 38.6529 67.7323 39.1662 67.259 39.5395C66.7856 39.9129 66.2023 40.0995 65.509 40.0995C64.9623 40.0995 64.4756 39.9829 64.049 39.7495C63.629 39.5162 63.299 39.1829 63.059 38.7495C62.8256 38.3162 62.709 37.8095 62.709 37.2295ZM72.2136 38.5695V40.0195H71.3436C70.7236 40.0195 70.2403 39.8695 69.8936 39.5695C69.547 39.2629 69.3736 38.7662 69.3736 38.0795V35.8595H68.6936V34.4395H69.3736V33.0795H71.0836V34.4395H72.2036V35.8595H71.0836V38.0995C71.0836 38.2662 71.1236 38.3862 71.2036 38.4595C71.2836 38.5329 71.417 38.5695 71.6036 38.5695H72.2136ZM77.9153 32.9995C78.6553 32.9995 79.302 33.1462 79.8553 33.4395C80.4086 33.7329 80.8353 34.1462 81.1353 34.6795C81.442 35.2062 81.5953 35.8162 81.5953 36.5095C81.5953 37.1962 81.442 37.8062 81.1353 38.3395C80.8353 38.8729 80.4053 39.2862 79.8453 39.5795C79.292 39.8729 78.6486 40.0195 77.9153 40.0195H75.2853V32.9995H77.9153ZM77.8053 38.5395C78.4519 38.5395 78.9553 38.3629 79.3153 38.0095C79.6753 37.6562 79.8553 37.1562 79.8553 36.5095C79.8553 35.8629 79.6753 35.3595 79.3153 34.9995C78.9553 34.6395 78.4519 34.4595 77.8053 34.4595H76.9953V38.5395H77.8053ZM87.8109 37.1395C87.8109 37.2995 87.8009 37.4662 87.7809 37.6395H83.9109C83.9376 37.9862 84.0476 38.2529 84.2409 38.4395C84.4409 38.6195 84.6842 38.7095 84.9709 38.7095C85.3976 38.7095 85.6942 38.5295 85.8609 38.1695H87.6809C87.5876 38.5362 87.4176 38.8662 87.1709 39.1595C86.9309 39.4529 86.6276 39.6829 86.2609 39.8495C85.8942 40.0162 85.4842 40.0995 85.0309 40.0995C84.4842 40.0995 83.9976 39.9829 83.5709 39.7495C83.1442 39.5162 82.8109 39.1829 82.5709 38.7495C82.3309 38.3162 82.2109 37.8095 82.2109 37.2295C82.2109 36.6495 82.3276 36.1429 82.5609 35.7095C82.8009 35.2762 83.1342 34.9429 83.5609 34.7095C83.9876 34.4762 84.4776 34.3595 85.0309 34.3595C85.5709 34.3595 86.0509 34.4729 86.4709 34.6995C86.8909 34.9262 87.2176 35.2495 87.4509 35.6695C87.6909 36.0895 87.8109 36.5795 87.8109 37.1395ZM86.0609 36.6895C86.0609 36.3962 85.9609 36.1629 85.7609 35.9895C85.5609 35.8162 85.3109 35.7295 85.0109 35.7295C84.7242 35.7295 84.4809 35.8129 84.2809 35.9795C84.0876 36.1462 83.9676 36.3829 83.9209 36.6895H86.0609ZM90.423 35.2295C90.5897 34.9695 90.8197 34.7595 91.113 34.5995C91.4064 34.4395 91.7497 34.3595 92.143 34.3595C92.603 34.3595 93.0197 34.4762 93.393 34.7095C93.7664 34.9429 94.0597 35.2762 94.273 35.7095C94.493 36.1429 94.603 36.6462 94.603 37.2195C94.603 37.7929 94.493 38.2995 94.273 38.7395C94.0597 39.1729 93.7664 39.5095 93.393 39.7495C93.0197 39.9829 92.603 40.0995 92.143 40.0995C91.7564 40.0995 91.413 40.0195 91.113 39.8595C90.8197 39.6995 90.5897 39.4929 90.423 39.2395V42.6795H88.713V34.4395H90.423V35.2295ZM92.863 37.2195C92.863 36.7929 92.743 36.4595 92.503 36.2195C92.2697 35.9729 91.9797 35.8495 91.633 35.8495C91.293 35.8495 91.003 35.9729 90.763 36.2195C90.5297 36.4662 90.413 36.8029 90.413 37.2295C90.413 37.6562 90.5297 37.9929 90.763 38.2395C91.003 38.4862 91.293 38.6095 91.633 38.6095C91.973 38.6095 92.263 38.4862 92.503 38.2395C92.743 37.9862 92.863 37.6462 92.863 37.2195ZM98.0401 40.0995C97.4935 40.0995 97.0001 39.9829 96.5601 39.7495C96.1268 39.5162 95.7835 39.1829 95.5301 38.7495C95.2835 38.3162 95.1601 37.8095 95.1601 37.2295C95.1601 36.6562 95.2868 36.1529 95.5401 35.7195C95.7935 35.2795 96.1401 34.9429 96.5801 34.7095C97.0201 34.4762 97.5135 34.3595 98.0601 34.3595C98.6068 34.3595 99.1001 34.4762 99.5401 34.7095C99.9801 34.9429 100.327 35.2795 100.58 35.7195C100.833 36.1529 100.96 36.6562 100.96 37.2295C100.96 37.8029 100.83 38.3095 100.57 38.7495C100.317 39.1829 99.9668 39.5162 99.5201 39.7495C99.0801 39.9829 98.5868 40.0995 98.0401 40.0995ZM98.0401 38.6195C98.3668 38.6195 98.6435 38.4995 98.8701 38.2595C99.1035 38.0195 99.2201 37.6762 99.2201 37.2295C99.2201 36.7829 99.1068 36.4395 98.8801 36.1995C98.6601 35.9595 98.3868 35.8395 98.0601 35.8395C97.7268 35.8395 97.4501 35.9595 97.2301 36.1995C97.0101 36.4329 96.9001 36.7762 96.9001 37.2295C96.9001 37.6762 97.0068 38.0195 97.2201 38.2595C97.4401 38.4995 97.7135 38.6195 98.0401 38.6195ZM104.137 40.0995C103.651 40.0995 103.217 40.0162 102.837 39.8495C102.457 39.6829 102.157 39.4562 101.937 39.1695C101.717 38.8762 101.594 38.5495 101.567 38.1895H103.257C103.277 38.3829 103.367 38.5395 103.527 38.6595C103.687 38.7795 103.884 38.8395 104.117 38.8395C104.331 38.8395 104.494 38.7995 104.607 38.7195C104.727 38.6329 104.787 38.5229 104.787 38.3895C104.787 38.2295 104.704 38.1129 104.537 38.0395C104.371 37.9595 104.101 37.8729 103.727 37.7795C103.327 37.6862 102.994 37.5895 102.727 37.4895C102.461 37.3829 102.231 37.2195 102.037 36.9995C101.844 36.7729 101.747 36.4695 101.747 36.0895C101.747 35.7695 101.834 35.4795 102.007 35.2195C102.187 34.9529 102.447 34.7429 102.787 34.5895C103.134 34.4362 103.544 34.3595 104.017 34.3595C104.717 34.3595 105.267 34.5329 105.667 34.8795C106.074 35.2262 106.307 35.6862 106.367 36.2595H104.787C104.761 36.0662 104.674 35.9129 104.527 35.7995C104.387 35.6862 104.201 35.6295 103.967 35.6295C103.767 35.6295 103.614 35.6695 103.507 35.7495C103.401 35.8229 103.347 35.9262 103.347 36.0595C103.347 36.2195 103.431 36.3395 103.597 36.4195C103.771 36.4995 104.037 36.5795 104.397 36.6595C104.811 36.7662 105.147 36.8729 105.407 36.9795C105.667 37.0795 105.894 37.2462 106.087 37.4795C106.287 37.7062 106.391 38.0129 106.397 38.3995C106.397 38.7262 106.304 39.0195 106.117 39.2795C105.937 39.5329 105.674 39.7329 105.327 39.8795C104.987 40.0262 104.591 40.0995 104.137 40.0995ZM108.303 33.8595C108.003 33.8595 107.757 33.7729 107.563 33.5995C107.377 33.4195 107.283 33.1995 107.283 32.9395C107.283 32.6729 107.377 32.4529 107.563 32.2795C107.757 32.0995 108.003 32.0095 108.303 32.0095C108.597 32.0095 108.837 32.0995 109.023 32.2795C109.217 32.4529 109.313 32.6729 109.313 32.9395C109.313 33.1995 109.217 33.4195 109.023 33.5995C108.837 33.7729 108.597 33.8595 108.303 33.8595ZM109.153 34.4395V40.0195H107.443V34.4395H109.153ZM113.503 38.5695V40.0195H112.633C112.013 40.0195 111.529 39.8695 111.183 39.5695C110.836 39.2629 110.663 38.7662 110.663 38.0795V35.8595H109.983V34.4395H110.663V33.0795H112.373V34.4395H113.493V35.8595H112.373V38.0995C112.373 38.2662 112.413 38.3862 112.493 38.4595C112.573 38.5329 112.706 38.5695 112.893 38.5695H113.503Z" fill="#111827"/>
<path d="M44.1587 55.0755C43.7907 55.0755 43.46 55.0115 43.1667 54.8835C42.8787 54.7502 42.652 54.5689 42.4867 54.3395C42.3213 54.1049 42.236 53.8355 42.2307 53.5315H43.0067C43.0333 53.7929 43.14 54.0142 43.3267 54.1955C43.5187 54.3715 43.796 54.4595 44.1587 54.4595C44.5053 54.4595 44.7773 54.3742 44.9747 54.2035C45.1773 54.0275 45.2787 53.8035 45.2787 53.5315C45.2787 53.3182 45.22 53.1449 45.1027 53.0115C44.9853 52.8782 44.8387 52.7769 44.6627 52.7075C44.4867 52.6382 44.2493 52.5635 43.9507 52.4835C43.5827 52.3875 43.2867 52.2915 43.0627 52.1955C42.844 52.0995 42.6547 51.9502 42.4947 51.7475C42.34 51.5395 42.2627 51.2622 42.2627 50.9155C42.2627 50.6115 42.34 50.3422 42.4947 50.1075C42.6493 49.8729 42.8653 49.6915 43.1427 49.5635C43.4253 49.4355 43.748 49.3715 44.1107 49.3715C44.6333 49.3715 45.06 49.5022 45.3907 49.7635C45.7267 50.0249 45.916 50.3715 45.9587 50.8035H45.1587C45.132 50.5902 45.02 50.4035 44.8227 50.2435C44.6253 50.0782 44.364 49.9955 44.0387 49.9955C43.7347 49.9955 43.4867 50.0755 43.2947 50.2355C43.1027 50.3902 43.0067 50.6089 43.0067 50.8915C43.0067 51.0942 43.0627 51.2595 43.1747 51.3875C43.292 51.5155 43.4333 51.6142 43.5987 51.6835C43.7693 51.7475 44.0067 51.8222 44.3107 51.9075C44.6787 52.0089 44.9747 52.1102 45.1987 52.2115C45.4227 52.3075 45.6147 52.4595 45.7747 52.6675C45.9347 52.8702 46.0147 53.1475 46.0147 53.4995C46.0147 53.7715 45.9427 54.0275 45.7987 54.2675C45.6547 54.5075 45.4413 54.7022 45.1587 54.8515C44.876 55.0009 44.5427 55.0755 44.1587 55.0755ZM50.974 50.6355V55.0195H50.246V54.3715C50.1073 54.5955 49.9126 54.7715 49.662 54.8995C49.4166 55.0222 49.1446 55.0835 48.846 55.0835C48.5046 55.0835 48.198 55.0142 47.926 54.8755C47.654 54.7315 47.438 54.5182 47.278 54.2355C47.1233 53.9529 47.046 53.6089 47.046 53.2035V50.6355H47.766V53.1075C47.766 53.5395 47.8753 53.8729 48.094 54.1075C48.3126 54.3369 48.6113 54.4515 48.99 54.4515C49.3793 54.4515 49.686 54.3315 49.91 54.0915C50.134 53.8515 50.246 53.5022 50.246 53.0435V50.6355H50.974ZM54.0112 50.5635C54.3898 50.5635 54.7205 50.6462 55.0032 50.8115C55.2912 50.9769 55.5045 51.1849 55.6432 51.4355V50.6355H56.3792V55.1155C56.3792 55.5155 56.2938 55.8702 56.1232 56.1795C55.9525 56.4942 55.7072 56.7395 55.3872 56.9155C55.0725 57.0915 54.7045 57.1795 54.2832 57.1795C53.7072 57.1795 53.2272 57.0435 52.8432 56.7715C52.4592 56.4995 52.2325 56.1289 52.1632 55.6595H52.8832C52.9632 55.9262 53.1285 56.1395 53.3792 56.2995C53.6298 56.4649 53.9312 56.5475 54.2832 56.5475C54.6832 56.5475 55.0085 56.4222 55.2592 56.1715C55.5152 55.9209 55.6432 55.5689 55.6432 55.1155V54.1955C55.4992 54.4515 55.2858 54.6649 55.0032 54.8355C54.7205 55.0062 54.3898 55.0915 54.0112 55.0915C53.6218 55.0915 53.2672 54.9955 52.9472 54.8035C52.6325 54.6115 52.3845 54.3422 52.2032 53.9955C52.0218 53.6489 51.9312 53.2542 51.9312 52.8115C51.9312 52.3635 52.0218 51.9715 52.2032 51.6355C52.3845 51.2942 52.6325 51.0302 52.9472 50.8435C53.2672 50.6569 53.6218 50.5635 54.0112 50.5635ZM55.6432 52.8195C55.6432 52.4889 55.5765 52.2009 55.4432 51.9555C55.3098 51.7102 55.1285 51.5235 54.8992 51.3955C54.6752 51.2622 54.4272 51.1955 54.1552 51.1955C53.8832 51.1955 53.6352 51.2595 53.4112 51.3875C53.1872 51.5155 53.0085 51.7022 52.8752 51.9475C52.7418 52.1929 52.6752 52.4809 52.6752 52.8115C52.6752 53.1475 52.7418 53.4409 52.8752 53.6915C53.0085 53.9369 53.1872 54.1262 53.4112 54.2595C53.6352 54.3875 53.8832 54.4515 54.1552 54.4515C54.4272 54.4515 54.6752 54.3875 54.8992 54.2595C55.1285 54.1262 55.3098 53.9369 55.4432 53.6915C55.5765 53.4409 55.6432 53.1502 55.6432 52.8195ZM61.6094 52.6595C61.6094 52.7982 61.6014 52.9449 61.5854 53.0995H58.0814C58.1081 53.5315 58.2547 53.8702 58.5214 54.1155C58.7934 54.3555 59.1214 54.4755 59.5054 54.4755C59.8201 54.4755 60.0814 54.4035 60.2894 54.2595C60.5027 54.1102 60.6521 53.9129 60.7374 53.6675H61.5214C61.4041 54.0889 61.1694 54.4329 60.8174 54.6995C60.4654 54.9609 60.0281 55.0915 59.5054 55.0915C59.0894 55.0915 58.7161 54.9982 58.3854 54.8115C58.0601 54.6249 57.8041 54.3609 57.6174 54.0195C57.4307 53.6729 57.3374 53.2729 57.3374 52.8195C57.3374 52.3662 57.4281 51.9689 57.6094 51.6275C57.7907 51.2862 58.0441 51.0249 58.3694 50.8435C58.7001 50.6569 59.0787 50.5635 59.5054 50.5635C59.9214 50.5635 60.2894 50.6542 60.6094 50.8355C60.9294 51.0169 61.1747 51.2675 61.3454 51.5875C61.5214 51.9022 61.6094 52.2595 61.6094 52.6595ZM60.8574 52.5075C60.8574 52.2302 60.7961 51.9929 60.6734 51.7955C60.5507 51.5929 60.3827 51.4409 60.1694 51.3395C59.9614 51.2329 59.7294 51.1795 59.4734 51.1795C59.1054 51.1795 58.7907 51.2969 58.5294 51.5315C58.2734 51.7662 58.1267 52.0915 58.0894 52.5075H60.8574ZM64.1223 55.0915C63.7863 55.0915 63.485 55.0355 63.2183 54.9235C62.9517 54.8062 62.741 54.6462 62.5863 54.4435C62.4317 54.2355 62.3463 53.9982 62.3303 53.7315H63.0823C63.1037 53.9502 63.205 54.1289 63.3863 54.2675C63.573 54.4062 63.8157 54.4755 64.1143 54.4755C64.3917 54.4755 64.6103 54.4142 64.7703 54.2915C64.9303 54.1689 65.0103 54.0142 65.0103 53.8275C65.0103 53.6355 64.925 53.4942 64.7543 53.4035C64.5837 53.3075 64.3197 53.2142 63.9623 53.1235C63.637 53.0382 63.3703 52.9529 63.1623 52.8675C62.9597 52.7769 62.7837 52.6462 62.6343 52.4755C62.4903 52.2995 62.4183 52.0702 62.4183 51.7875C62.4183 51.5635 62.485 51.3582 62.6183 51.1715C62.7517 50.9849 62.941 50.8382 63.1863 50.7315C63.4317 50.6195 63.7117 50.5635 64.0263 50.5635C64.5117 50.5635 64.9037 50.6862 65.2023 50.9315C65.501 51.1769 65.661 51.5129 65.6823 51.9395H64.9543C64.9383 51.7102 64.845 51.5262 64.6743 51.3875C64.509 51.2489 64.285 51.1795 64.0023 51.1795C63.741 51.1795 63.533 51.2355 63.3783 51.3475C63.2237 51.4595 63.1463 51.6062 63.1463 51.7875C63.1463 51.9315 63.1917 52.0515 63.2823 52.1475C63.3783 52.2382 63.4957 52.3129 63.6343 52.3715C63.7783 52.4249 63.9757 52.4862 64.2263 52.5555C64.541 52.6409 64.797 52.7262 64.9943 52.8115C65.1917 52.8915 65.3597 53.0142 65.4983 53.1795C65.6423 53.3449 65.717 53.5609 65.7223 53.8275C65.7223 54.0675 65.6557 54.2835 65.5223 54.4755C65.389 54.6675 65.1997 54.8195 64.9543 54.9315C64.7143 55.0382 64.437 55.0915 64.1223 55.0915ZM67.638 51.2355V53.8195C67.638 54.0329 67.6834 54.1849 67.774 54.2755C67.8647 54.3609 68.022 54.4035 68.246 54.4035H68.782V55.0195H68.126C67.7207 55.0195 67.4167 54.9262 67.214 54.7395C67.0114 54.5529 66.91 54.2462 66.91 53.8195V51.2355H66.342V50.6355H66.91V49.5315H67.638V50.6355H68.782V51.2355H67.638ZM73.6641 52.6595C73.6641 52.7982 73.6561 52.9449 73.6401 53.0995H70.1361C70.1628 53.5315 70.3094 53.8702 70.5761 54.1155C70.8481 54.3555 71.1761 54.4755 71.5601 54.4755C71.8748 54.4755 72.1361 54.4035 72.3441 54.2595C72.5574 54.1102 72.7068 53.9129 72.7921 53.6675H73.5761C73.4588 54.0889 73.2241 54.4329 72.8721 54.6995C72.5201 54.9609 72.0828 55.0915 71.5601 55.0915C71.1441 55.0915 70.7708 54.9982 70.4401 54.8115C70.1148 54.6249 69.8588 54.3609 69.6721 54.0195C69.4854 53.6729 69.3921 53.2729 69.3921 52.8195C69.3921 52.3662 69.4828 51.9689 69.6641 51.6275C69.8454 51.2862 70.0988 51.0249 70.4241 50.8435C70.7548 50.6569 71.1334 50.5635 71.5601 50.5635C71.9761 50.5635 72.3441 50.6542 72.6641 50.8355C72.9841 51.0169 73.2294 51.2675 73.4001 51.5875C73.5761 51.9022 73.6641 52.2595 73.6641 52.6595ZM72.9121 52.5075C72.9121 52.2302 72.8508 51.9929 72.7281 51.7955C72.6054 51.5929 72.4374 51.4409 72.2241 51.3395C72.0161 51.2329 71.7841 51.1795 71.5281 51.1795C71.1601 51.1795 70.8454 51.2969 70.5841 51.5315C70.3281 51.7662 70.1814 52.0915 70.1441 52.5075H72.9121ZM74.353 52.8115C74.353 52.3635 74.4437 51.9715 74.625 51.6355C74.8064 51.2942 75.0544 51.0302 75.369 50.8435C75.689 50.6569 76.0464 50.5635 76.441 50.5635C76.7824 50.5635 77.0997 50.6435 77.393 50.8035C77.6864 50.9582 77.9104 51.1635 78.065 51.4195V49.0995H78.801V55.0195H78.065V54.1955C77.921 54.4569 77.7077 54.6729 77.425 54.8435C77.1424 55.0089 76.8117 55.0915 76.433 55.0915C76.0437 55.0915 75.689 54.9955 75.369 54.8035C75.0544 54.6115 74.8064 54.3422 74.625 53.9955C74.4437 53.6489 74.353 53.2542 74.353 52.8115ZM78.065 52.8195C78.065 52.4889 77.9984 52.2009 77.865 51.9555C77.7317 51.7102 77.5504 51.5235 77.321 51.3955C77.097 51.2622 76.849 51.1955 76.577 51.1955C76.305 51.1955 76.057 51.2595 75.833 51.3875C75.609 51.5155 75.4304 51.7022 75.297 51.9475C75.1637 52.1929 75.097 52.4809 75.097 52.8115C75.097 53.1475 75.1637 53.4409 75.297 53.6915C75.4304 53.9369 75.609 54.1262 75.833 54.2595C76.057 54.3875 76.305 54.4515 76.577 54.4515C76.849 54.4515 77.097 54.3875 77.321 54.2595C77.5504 54.1262 77.7317 53.9369 77.865 53.6915C77.9984 53.4409 78.065 53.1502 78.065 52.8195ZM83.7161 55.0915C83.3801 55.0915 83.0788 55.0355 82.8121 54.9235C82.5454 54.8062 82.3348 54.6462 82.1801 54.4435C82.0254 54.2355 81.9401 53.9982 81.9241 53.7315H82.6761C82.6974 53.9502 82.7988 54.1289 82.9801 54.2675C83.1668 54.4062 83.4094 54.4755 83.7081 54.4755C83.9854 54.4755 84.2041 54.4142 84.3641 54.2915C84.5241 54.1689 84.6041 54.0142 84.6041 53.8275C84.6041 53.6355 84.5188 53.4942 84.3481 53.4035C84.1774 53.3075 83.9134 53.2142 83.5561 53.1235C83.2308 53.0382 82.9641 52.9529 82.7561 52.8675C82.5534 52.7769 82.3774 52.6462 82.2281 52.4755C82.0841 52.2995 82.0121 52.0702 82.0121 51.7875C82.0121 51.5635 82.0788 51.3582 82.2121 51.1715C82.3454 50.9849 82.5348 50.8382 82.7801 50.7315C83.0254 50.6195 83.3054 50.5635 83.6201 50.5635C84.1054 50.5635 84.4974 50.6862 84.7961 50.9315C85.0948 51.1769 85.2548 51.5129 85.2761 51.9395H84.5481C84.5321 51.7102 84.4388 51.5262 84.2681 51.3875C84.1028 51.2489 83.8788 51.1795 83.5961 51.1795C83.3348 51.1795 83.1268 51.2355 82.9721 51.3475C82.8174 51.4595 82.7401 51.6062 82.7401 51.7875C82.7401 51.9315 82.7854 52.0515 82.8761 52.1475C82.9721 52.2382 83.0894 52.3129 83.2281 52.3715C83.3721 52.4249 83.5694 52.4862 83.8201 52.5555C84.1348 52.6409 84.3908 52.7262 84.5881 52.8115C84.7854 52.8915 84.9534 53.0142 85.0921 53.1795C85.2361 53.3449 85.3108 53.5609 85.3161 53.8275C85.3161 54.0675 85.2494 54.2835 85.1161 54.4755C84.9828 54.6675 84.7934 54.8195 84.5481 54.9315C84.3081 55.0382 84.0308 55.0915 83.7161 55.0915ZM87.0718 51.4435C87.2158 51.1929 87.4291 50.9849 87.7118 50.8195C87.9998 50.6489 88.3331 50.5635 88.7118 50.5635C89.1011 50.5635 89.4531 50.6569 89.7678 50.8435C90.0878 51.0302 90.3384 51.2942 90.5198 51.6355C90.7011 51.9715 90.7918 52.3635 90.7918 52.8115C90.7918 53.2542 90.7011 53.6489 90.5198 53.9955C90.3384 54.3422 90.0878 54.6115 89.7678 54.8035C89.4531 54.9955 89.1011 55.0915 88.7118 55.0915C88.3384 55.0915 88.0078 55.0089 87.7198 54.8435C87.4371 54.6729 87.2211 54.4622 87.0718 54.2115V57.0995H86.3438V50.6355H87.0718V51.4435ZM90.0478 52.8115C90.0478 52.4809 89.9811 52.1929 89.8478 51.9475C89.7145 51.7022 89.5331 51.5155 89.3038 51.3875C89.0798 51.2595 88.8318 51.1955 88.5598 51.1955C88.2931 51.1955 88.0451 51.2622 87.8158 51.3955C87.5918 51.5235 87.4104 51.7129 87.2718 51.9635C87.1384 52.2089 87.0718 52.4942 87.0718 52.8195C87.0718 53.1502 87.1384 53.4409 87.2718 53.6915C87.4104 53.9369 87.5918 54.1262 87.8158 54.2595C88.0451 54.3875 88.2931 54.4515 88.5598 54.4515C88.8318 54.4515 89.0798 54.3875 89.3038 54.2595C89.5331 54.1262 89.7145 53.9369 89.8478 53.6915C89.9811 53.4409 90.0478 53.1475 90.0478 52.8115ZM92.478 49.0995V55.0195H91.75V49.0995H92.478ZM94.0948 49.9235C93.9561 49.9235 93.8388 49.8755 93.7428 49.7795C93.6468 49.6835 93.5988 49.5662 93.5988 49.4275C93.5988 49.2889 93.6468 49.1715 93.7428 49.0755C93.8388 48.9795 93.9561 48.9315 94.0948 48.9315C94.2281 48.9315 94.3401 48.9795 94.4308 49.0755C94.5268 49.1715 94.5748 49.2889 94.5748 49.4275C94.5748 49.5662 94.5268 49.6835 94.4308 49.7795C94.3401 49.8755 94.2281 49.9235 94.0948 49.9235ZM94.4468 50.6355V55.0195H93.7188V50.6355H94.4468ZM96.5755 51.2355V53.8195C96.5755 54.0329 96.6209 54.1849 96.7115 54.2755C96.8022 54.3609 96.9595 54.4035 97.1835 54.4035H97.7195V55.0195H97.0635C96.6582 55.0195 96.3542 54.9262 96.1515 54.7395C95.9489 54.5529 95.8475 54.2462 95.8475 53.8195V51.2355H95.2795V50.6355H95.8475V49.5315H96.5755V50.6355H97.7195V51.2355H96.5755Z" fill="#6B7280"/>
<path d="M149.071 43.8742V44.9702H147.583V49.4902H146.215V44.9702H144.727V43.8742H149.071ZM151.79 49.5542C151.352 49.5542 150.958 49.4609 150.606 49.2742C150.259 49.0876 149.984 48.8209 149.782 48.4742C149.584 48.1276 149.486 47.7222 149.486 47.2582C149.486 46.7996 149.587 46.3969 149.79 46.0502C149.992 45.6982 150.27 45.4289 150.622 45.2422C150.974 45.0556 151.368 44.9622 151.806 44.9622C152.243 44.9622 152.638 45.0556 152.99 45.2422C153.342 45.4289 153.619 45.6982 153.822 46.0502C154.024 46.3969 154.126 46.7996 154.126 47.2582C154.126 47.7169 154.022 48.1222 153.814 48.4742C153.611 48.8209 153.331 49.0876 152.974 49.2742C152.622 49.4609 152.227 49.5542 151.79 49.5542ZM151.79 48.3702C152.051 48.3702 152.272 48.2742 152.454 48.0822C152.64 47.8902 152.734 47.6156 152.734 47.2582C152.734 46.9009 152.643 46.6262 152.462 46.4342C152.286 46.2422 152.067 46.1462 151.806 46.1462C151.539 46.1462 151.318 46.2422 151.142 46.4342C150.966 46.6209 150.878 46.8956 150.878 47.2582C150.878 47.6156 150.963 47.8902 151.134 48.0822C151.31 48.2742 151.528 48.3702 151.79 48.3702ZM154.58 47.2502C154.58 46.7916 154.665 46.3889 154.836 46.0422C155.012 45.6956 155.249 45.4289 155.548 45.2422C155.846 45.0556 156.18 44.9622 156.548 44.9622C156.841 44.9622 157.108 45.0236 157.348 45.1462C157.593 45.2689 157.785 45.4342 157.924 45.6422V43.5702H159.292V49.4902H157.924V48.8502C157.796 49.0636 157.612 49.2342 157.372 49.3622C157.137 49.4902 156.862 49.5542 156.548 49.5542C156.18 49.5542 155.846 49.4609 155.548 49.2742C155.249 49.0822 155.012 48.8129 154.836 48.4662C154.665 48.1142 154.58 47.7089 154.58 47.2502ZM157.924 47.2582C157.924 46.9169 157.828 46.6476 157.636 46.4502C157.449 46.2529 157.22 46.1542 156.948 46.1542C156.676 46.1542 156.444 46.2529 156.252 46.4502C156.065 46.6422 155.972 46.9089 155.972 47.2502C155.972 47.5916 156.065 47.8636 156.252 48.0662C156.444 48.2636 156.676 48.3622 156.948 48.3622C157.22 48.3622 157.449 48.2636 157.636 48.0662C157.828 47.8689 157.924 47.5996 157.924 47.2582ZM160.009 47.2502C160.009 46.7916 160.095 46.3889 160.265 46.0422C160.441 45.6956 160.679 45.4289 160.977 45.2422C161.276 45.0556 161.609 44.9622 161.977 44.9622C162.292 44.9622 162.567 45.0262 162.801 45.1542C163.041 45.2822 163.225 45.4502 163.353 45.6582V45.0262H164.721V49.4902H163.353V48.8582C163.22 49.0662 163.033 49.2342 162.793 49.3622C162.559 49.4902 162.284 49.5542 161.969 49.5542C161.607 49.5542 161.276 49.4609 160.977 49.2742C160.679 49.0822 160.441 48.8129 160.265 48.4662C160.095 48.1142 160.009 47.7089 160.009 47.2502ZM163.353 47.2582C163.353 46.9169 163.257 46.6476 163.065 46.4502C162.879 46.2529 162.649 46.1542 162.377 46.1542C162.105 46.1542 161.873 46.2529 161.681 46.4502C161.495 46.6422 161.401 46.9089 161.401 47.2502C161.401 47.5916 161.495 47.8636 161.681 48.0662C161.873 48.2636 162.105 48.3622 162.377 48.3622C162.649 48.3622 162.879 48.2636 163.065 48.0662C163.257 47.8689 163.353 47.5996 163.353 47.2582ZM170.271 45.0262L167.471 51.6102H165.999L167.023 49.3382L165.207 45.0262H166.735L167.767 47.8182L168.791 45.0262H170.271Z" fill="#FB6039"/>
<defs>
<filter id="filter0_d_28_1451" x="0" y="0" width="202" height="115" filterUnits="userSpaceOnUse" color-interpolation-filters="sRGB">
<feFlood flood-opacity="0" result="BackgroundImageFix"/>
<feColorMatrix in="SourceAlpha" type="matrix" values="0 0 0 0 0 0 0 0 0 0 0 0 0 0 0 0 0 0 127 0" result="hardAlpha"/>
<feOffset dx="-5" dy="10"/>
<feGaussianBlur stdDeviation="12.5"/>
<feComposite in2="hardAlpha" operator="out"/>
<feColorMatrix type="matrix" values="0 0 0 0 0.611765 0 0 0 0 0.639216 0 0 0 0 0.686275 0 0 0 0.08 0"/>
<feBlend mode="normal" in2="BackgroundImageFix" result="effect1_dropShadow_28_1451"/>
<feBlend mode="normal" in="SourceGraphic" in2="effect1_dropShadow_28_1451" result="shape"/>
</filter>
</defs>
</svg>
