<svg width="32" height="32" viewBox="0 0 32 32" fill="none" xmlns="http://www.w3.org/2000/svg">
<circle cx="16" cy="16" r="14" fill="#93BAFB"/>
<circle cx="16" cy="16" r="10" fill="#F5F7FA"/>
<g clip-path="url(#clip0_28_4176)">
<path d="M19.1676 17.7193C19.1676 15.9302 17.9067 15.4172 16.5426 15.1284L15.8196 14.982C14.7505 14.7718 14.668 14.4617 14.668 14.0465C14.668 13.5079 15.1534 13.1859 15.9666 13.1859C16.9296 13.1859 17.1764 13.6697 17.2788 14.033L17.2885 14.0632C17.4096 14.3801 17.6911 14.5691 18.0423 14.5691C18.1332 14.5691 18.2149 14.5552 18.2761 14.5429C18.6529 14.4679 18.9154 14.1679 18.9154 13.8125C18.9154 13.7244 18.8995 13.637 18.8674 13.5521C18.6743 12.9311 18.1317 11.9537 16.6281 11.7305V10.6655C16.6281 9.77848 15.2387 9.77848 15.2387 10.6655V11.7369C13.6236 11.9897 13.0289 13.0884 13.0289 14.0462C13.0289 15.7888 14.2424 16.2746 15.4277 16.5191L16.2098 16.6852C17.3236 16.9117 17.5199 17.2022 17.5199 17.7283C17.5199 18.3712 16.9763 18.7545 16.0651 18.7545C14.8821 18.7545 14.641 18.2218 14.4797 17.6239C14.3854 17.2929 14.0864 17.0797 13.7176 17.0797C13.6371 17.0797 13.5726 17.0904 13.4948 17.1037L13.4714 17.1082C13.09 17.1988 12.8341 17.4992 12.8341 17.8552C12.8341 17.9229 12.8461 17.9805 12.8558 18.027L12.8678 18.0802C13.0394 18.6602 13.4181 19.9267 15.3072 20.2093V21.324C15.3072 21.7678 15.6563 22.0001 16.0017 22.0001C16.3471 22.0001 16.6966 21.7678 16.6966 21.324V20.2288C18.1966 20.0334 19.1691 19.0751 19.1691 17.7195" fill="#2969FF"/>
</g>
<defs>
<clipPath id="clip0_28_4176">
<rect width="12" height="12" fill="white" transform="translate(10 10)"/>
</clipPath>
</defs>
</svg>
