<svg xmlns="http://www.w3.org/2000/svg" width="26" height="26" viewBox="0 0 26 26" fill="none">
  <path d="M12.8839 17.1786L14.567 15.4955L12.3616 13.2902L10.6786 14.9732V15.7857H12.0714V17.1786H12.8839ZM19.2679 6.73215C19.1131 6.57739 18.9535 6.58222 18.7891 6.74666L13.7109 11.8248C13.5465 11.9892 13.5417 12.1488 13.6964 12.3036C13.8512 12.4583 14.0108 12.4535 14.1752 12.2891L19.2533 7.21094C19.4178 7.04651 19.4226 6.88691 19.2679 6.73215ZM20.4286 15.3505V18.1071C20.4286 19.2582 20.0199 20.2424 19.2026 21.0597C18.3852 21.8771 17.401 22.2857 16.25 22.2857H4.17857C3.02753 22.2857 2.04334 21.8771 1.226 21.0597C0.408668 20.2424 0 19.2582 0 18.1071V6.03572C0 4.88468 0.408668 3.90049 1.226 3.08315C2.04334 2.26582 3.02753 1.85715 4.17857 1.85715H16.25C16.8594 1.85715 17.4252 1.97805 17.9475 2.21987C18.0926 2.28758 18.1797 2.39881 18.2087 2.55358C18.2377 2.71801 18.1942 2.85826 18.0781 2.97433L17.3672 3.68527C17.2318 3.82069 17.077 3.85938 16.9029 3.80134C16.6804 3.74331 16.4628 3.71429 16.25 3.71429H4.17857C3.54018 3.71429 2.99368 3.9416 2.53906 4.39621C2.08445 4.85082 1.85714 5.39733 1.85714 6.03572V18.1071C1.85714 18.7455 2.08445 19.292 2.53906 19.7467C2.99368 20.2013 3.54018 20.4286 4.17857 20.4286H16.25C16.8884 20.4286 17.4349 20.2013 17.8895 19.7467C18.3441 19.292 18.5714 18.7455 18.5714 18.1071V16.279C18.5714 16.1533 18.615 16.0469 18.702 15.9598L19.6306 15.0313C19.7757 14.8862 19.9449 14.8523 20.1384 14.9297C20.3318 15.0071 20.4286 15.1473 20.4286 15.3505ZM19.0357 4.64286L23.2143 8.82143L13.4643 18.5714H9.28571V14.3929L19.0357 4.64286ZM25.4777 6.55804L24.1429 7.89286L19.9643 3.71429L21.2991 2.37947C21.5699 2.10864 21.8988 1.97322 22.2857 1.97322C22.6726 1.97322 23.0015 2.10864 23.2723 2.37947L25.4777 4.58483C25.7485 4.85566 25.8839 5.18453 25.8839 5.57143C25.8839 5.95834 25.7485 6.28721 25.4777 6.55804Z" fill="black"/>
</svg>