<svg xmlns="http://www.w3.org/2000/svg" width="20" height="20" viewBox="0 0 20 20" fill="none">
<path fill-rule="evenodd" clip-rule="evenodd" d="M4.16667 4.79163C3.59138 4.79163 3.12501 5.258 3.12501 5.83329V14.1666C3.12501 14.7419 3.59138 15.2083 4.16667 15.2083H15.8333C16.4086 15.2083 16.875 14.7419 16.875 14.1666V5.83329C16.875 5.258 16.4086 4.79163 15.8333 4.79163H4.16667ZM1.87501 5.83329C1.87501 4.56764 2.90102 3.54163 4.16667 3.54163H15.8333C17.099 3.54163 18.125 4.56764 18.125 5.83329V14.1666C18.125 15.4323 17.099 16.4583 15.8333 16.4583H4.16667C2.90102 16.4583 1.87501 15.4323 1.87501 14.1666V5.83329Z" fill="#A0AEC0"/>
<path fill-rule="evenodd" clip-rule="evenodd" d="M1.97997 5.48661C2.17144 5.1994 2.55949 5.12179 2.84669 5.31326L10 10.0821L17.1533 5.31326C17.4405 5.12179 17.8286 5.1994 18.02 5.48661C18.2115 5.77381 18.1339 6.16185 17.8467 6.35332L10.3467 11.3533C10.1368 11.4933 9.86326 11.4933 9.65332 11.3533L2.15332 6.35332C1.86611 6.16185 1.7885 5.77381 1.97997 5.48661Z" fill="#A0AEC0"/>
</svg>