<svg width="44" height="45" viewBox="0 0 44 45" fill="none" xmlns="http://www.w3.org/2000/svg">
<rect opacity="0.6" x="0.5" y="1.17822" width="43" height="43" rx="7.5" stroke="#CFDBD5" stroke-opacity="0.7" stroke-linecap="square"/>
<path d="M19.1437 31.7821V28.7152C19.1437 27.9381 19.7757 27.3067 20.5584 27.3018H23.4326C24.2189 27.3018 24.8563 27.9346 24.8563 28.7152V31.7732C24.8562 32.4473 25.404 32.9951 26.0829 33H28.0438C28.9596 33.0023 29.8388 32.6428 30.4872 32.0007C31.1356 31.3586 31.5 30.4868 31.5 29.5775V20.8658C31.5 20.1314 31.1721 19.4347 30.6046 18.9635L23.943 13.6743C22.7785 12.7491 21.1154 12.779 19.9854 13.7454L13.467 18.9635C12.8727 19.4208 12.5176 20.1196 12.5 20.8658V29.5686C12.5 31.4637 14.0474 33 15.9562 33H17.8723C18.1992 33.0023 18.5135 32.8751 18.7455 32.6464C18.9775 32.4178 19.1079 32.1067 19.1079 31.7821H19.1437Z" fill="#200E32"/>
</svg>
