<svg width="45" height="44" viewBox="0 0 45 44" fill="none" xmlns="http://www.w3.org/2000/svg">
<rect opacity="0.6" x="1.05396" y="0.5" width="43" height="43" rx="7.5" stroke="#CFDBD5" stroke-opacity="0.7" stroke-linecap="square"/>
<path d="M20.2112 30.7714V27.7047C20.2112 26.9246 20.8471 26.2908 21.635 26.2856H24.521C25.3127 26.2856 25.9545 26.9209 25.9545 27.7047V30.7809C25.9543 31.4432 26.4882 31.9845 27.157 32H29.081C30.9991 32 32.554 30.4607 32.554 28.5618V19.8378C32.5437 19.0908 32.1894 18.3893 31.5919 17.933L25.0117 12.6853C23.8589 11.7716 22.2202 11.7716 21.0674 12.6853L14.516 17.9426C13.9162 18.397 13.5613 19.0997 13.554 19.8474V28.5618C13.554 30.4607 15.1088 32 17.0269 32H18.9509C19.6363 32 20.1919 31.4499 20.1919 30.7714" stroke="black" stroke-width="1.5" stroke-linecap="round" stroke-linejoin="round"/>
</svg>
