<svg width="30" height="30" viewBox="0 0 30 30" fill="none" xmlns="http://www.w3.org/2000/svg">
<g clip-path="url(#clip0_28_1464)">
<path d="M24.375 0H5.625C2.5184 0 0 2.5184 0 5.625V24.375C0 27.4816 2.5184 30 5.625 30H24.375C27.4816 30 30 27.4816 30 24.375V5.625C30 2.5184 27.4816 0 24.375 0Z" fill="#0177B5"/>
<path d="M21.5625 7.5H8.4375C8.18886 7.5 7.9504 7.59877 7.77459 7.77459C7.59877 7.9504 7.5 8.18886 7.5 8.4375V21.5625C7.5 21.8111 7.59877 22.0496 7.77459 22.2254C7.9504 22.4012 8.18886 22.5 8.4375 22.5H21.5625C21.8111 22.5 22.0496 22.4012 22.2254 22.2254C22.4012 22.0496 22.5 21.8111 22.5 21.5625V8.4375C22.5 8.18886 22.4012 7.9504 22.2254 7.77459C22.0496 7.59877 21.8111 7.5 21.5625 7.5ZM12.1875 20.1562H9.84375V13.125H12.1875V20.1562ZM11.0156 12.1875C10.7375 12.1875 10.4656 12.105 10.2344 11.9505C10.0031 11.796 9.82286 11.5764 9.71642 11.3194C9.60998 11.0624 9.58214 10.7797 9.6364 10.5069C9.69066 10.2341 9.82459 9.98355 10.0213 9.78688C10.2179 9.59021 10.4685 9.45628 10.7413 9.40202C11.0141 9.34776 11.2968 9.37561 11.5538 9.48204C11.8107 9.58848 12.0304 9.76872 12.1849 9.99998C12.3394 10.2312 12.4219 10.5031 12.4219 10.7812C12.4219 11.1542 12.2737 11.5119 12.01 11.7756C11.7463 12.0393 11.3886 12.1875 11.0156 12.1875V12.1875ZM20.1562 20.1562H17.8125V15.4688C17.8125 15.0797 17.2875 14.7656 16.6406 14.7656C15.7031 14.7656 15.4688 16.0172 15.4688 16.4062V20.1562H13.125V13.125H15.4688V14.7656C15.4688 13.5938 16.5188 13.125 17.8125 13.125C18.4341 13.125 19.0302 13.3719 19.4698 13.8115C19.9093 14.251 20.1562 14.8471 20.1562 15.4688V20.1562Z" fill="white"/>
</g>
<defs>
<clipPath id="clip0_28_1464">
<rect width="30" height="30" fill="white"/>
</clipPath>
</defs>
</svg>
