<svg width="45" height="44" viewBox="0 0 45 44" fill="none" xmlns="http://www.w3.org/2000/svg">
<rect x="0.991211" y="0.5" width="43" height="43" rx="7.5" stroke="#CFDBD5" stroke-opacity="0.7" stroke-linecap="square"/>
<path d="M13.4912 13L15.5712 13.36L16.5342 24.833C16.6112 25.77 17.3942 26.489 18.3342 26.486H29.2432C30.1402 26.488 30.9012 25.828 31.0282 24.94L31.9772 18.382C32.0832 17.649 31.5742 16.969 30.8422 16.863C30.7782 16.854 15.9052 16.849 15.9052 16.849" stroke="black" stroke-width="1.5" stroke-linecap="round" stroke-linejoin="round"/>
<path d="M24.8662 20.5449H27.6392" stroke="black" stroke-width="1.5" stroke-linecap="round" stroke-linejoin="round"/>
<path fill-rule="evenodd" clip-rule="evenodd" d="M17.8956 29.9526C18.1966 29.9526 18.4396 30.1966 18.4396 30.4966C18.4396 30.7976 18.1966 31.0416 17.8956 31.0416C17.5946 31.0416 17.3516 30.7976 17.3516 30.4966C17.3516 30.1966 17.5946 29.9526 17.8956 29.9526Z" fill="black" stroke="black" stroke-width="1.5" stroke-linecap="round" stroke-linejoin="round"/>
<path fill-rule="evenodd" clip-rule="evenodd" d="M29.1758 29.9526C29.4768 29.9526 29.7208 30.1966 29.7208 30.4966C29.7208 30.7976 29.4768 31.0416 29.1758 31.0416C28.8748 31.0416 28.6318 30.7976 28.6318 30.4966C28.6318 30.1966 28.8748 29.9526 29.1758 29.9526Z" fill="black" stroke="black" stroke-width="1.5" stroke-linecap="round" stroke-linejoin="round"/>
</svg>
