<svg xmlns="http://www.w3.org/2000/svg" width="20" height="20" viewBox="0 0 20 20" fill="none">
  <path fill-rule="evenodd" clip-rule="evenodd" d="M4.16667 3.95837C3.8904 3.95837 3.62545 4.06812 3.4301 4.26347C3.23875 4.45482 3.12954 4.71294 3.12514 4.98306C3.31806 8.07353 4.63275 10.9875 6.82263 13.1774C9.01252 15.3673 11.9265 16.682 15.017 16.8749C15.2871 16.8705 15.5452 16.7613 15.7366 16.5699C15.9319 16.3746 16.0417 16.1096 16.0417 15.8334V12.9232L12.7621 11.6114L11.7859 13.2383C11.6186 13.5172 11.2653 13.6211 10.9736 13.4772C9.04056 12.5239 7.47611 10.9595 6.5228 9.02649C6.37892 8.73476 6.48286 8.38146 6.76177 8.21411L8.38869 7.23796L7.07685 3.95837H4.16667ZM2.54621 3.37959C2.97598 2.94982 3.55888 2.70837 4.16667 2.70837H7.5C7.75557 2.70837 7.98538 2.86397 8.0803 3.10125L9.74696 7.26792C9.86089 7.55274 9.75127 7.87815 9.48823 8.03597L7.91508 8.97986C8.66174 10.2677 9.73232 11.3383 11.0202 12.085L11.9641 10.5118C12.1219 10.2488 12.4473 10.1391 12.7321 10.2531L16.8988 11.9197C17.1361 12.0147 17.2917 12.2445 17.2917 12.5V15.8334C17.2917 16.4412 17.0502 17.0241 16.6205 17.4538C16.1907 17.8836 15.6078 18.125 15 18.125C14.9874 18.125 14.9747 18.1247 14.9621 18.1239C11.5591 17.9171 8.34946 16.472 5.93875 14.0613C3.52804 11.6506 2.08295 8.44094 1.87615 5.03795C1.87538 5.02533 1.875 5.01269 1.875 5.00004C1.875 4.39225 2.11644 3.80936 2.54621 3.37959Z" fill="#A0AEC0"/>
</svg>