<svg width="24" height="24" viewBox="0 0 24 24" fill="none" xmlns="http://www.w3.org/2000/svg">
<path d="M20.71 8.11998V17.53C20.71 19.99 18.7 22 16.24 22H7.76C5.3 22 3.29 19.99 3.29 17.53V8.11998C3.29 6.40998 4.25 4.91998 5.66 4.16998C6.15 3.90998 6.76 4.25998 6.76 4.81998C6.76 6.40998 8.06 7.70998 9.65 7.70998H14.35C15.94 7.70998 17.24 6.40998 17.24 4.81998C17.24 4.25998 17.84 3.90998 18.34 4.16998C19.75 4.91998 20.71 6.40998 20.71 8.11998Z" fill="#0A112F"/>
<path d="M15.73 3.87519L15.73 3.87519V3.88V4.82C15.73 5.58386 15.1139 6.2 14.35 6.2H9.64C8.87614 6.2 8.26 5.58386 8.26 4.82V3.88C8.26 3.11959 8.88268 2.5 9.65 2.5H14.35C15.1183 2.5 15.7373 3.11947 15.73 3.87519Z" fill="#0A112F" stroke="#FAFAFA"/>
<path d="M14.9986 15.7754C14.9986 14.3441 13.8043 13.9337 12.5124 13.7027L11.8277 13.5855C10.8151 13.4174 10.7369 13.1693 10.7369 12.8372C10.7369 12.4062 11.1967 12.1487 11.9669 12.1487C12.8789 12.1487 13.1126 12.5357 13.2096 12.8264L13.2188 12.8505C13.3336 13.104 13.6001 13.2552 13.9327 13.2552C14.0189 13.2552 14.0963 13.2441 14.1542 13.2342C14.5111 13.1742 14.7597 12.9342 14.7597 12.65C14.7597 12.5795 14.7446 12.5096 14.7143 12.4416C14.5314 11.9448 14.0174 11.1629 12.5934 10.9844V10.1323C12.5934 9.42268 11.2775 9.42268 11.2775 10.1323V10.9895C9.7478 11.1917 9.18451 12.0707 9.18451 12.8369C9.18451 14.231 10.3338 14.6196 11.4565 14.8152L12.1972 14.9481C13.252 15.1293 13.438 15.3617 13.438 15.7826C13.438 16.297 12.9232 16.6036 12.0601 16.6036C10.9397 16.6036 10.7114 16.1774 10.5586 15.6991C10.4693 15.4343 10.1861 15.2638 9.83677 15.2638C9.76059 15.2638 9.6995 15.2723 9.6258 15.283L9.60361 15.2866C9.2424 15.359 9 15.5993 9 15.8842C9 15.9383 9.01137 15.9844 9.0206 16.0216L9.03197 16.0642C9.19445 16.5281 9.55317 17.5414 11.3423 17.7674V18.6592C11.3423 19.0142 11.673 19.2001 12.0001 19.2001C12.3272 19.2001 12.6582 19.0142 12.6582 18.6592V17.783C14.0789 17.6267 15 16.8601 15 15.7756" fill="white"/>
</svg>
