<svg xmlns="http://www.w3.org/2000/svg" width="37" height="37" viewBox="0 0 37 37" fill="none">
  <path d="M14.6458 21.198C14.6458 22.6934 15.802 23.8959 17.2204 23.8959H20.1186C21.352 23.8959 22.3541 22.8476 22.3541 21.5372C22.3541 20.1343 21.7374 19.6255 20.8279 19.3018L16.1874 17.683C15.2778 17.3593 14.6612 16.8659 14.6612 15.4476C14.6612 14.1526 15.6632 13.0889 16.8966 13.0889H19.7949C21.2132 13.0889 22.3695 14.2914 22.3695 15.7868" stroke="white" stroke-width="2.3125" stroke-linecap="round" stroke-linejoin="round"/>
  <path d="M18.5 11.5625V25.4375" stroke="white" stroke-width="2.3125" stroke-linecap="round" stroke-linejoin="round"/>
  <path d="M33.9166 18.5002C33.9166 27.0102 27.0099 33.9168 18.4999 33.9168C9.98992 33.9168 3.08325 27.0102 3.08325 18.5002C3.08325 9.99016 9.98992 3.0835 18.4999 3.0835" stroke="white" stroke-width="3" stroke-linecap="round" stroke-linejoin="round"/>
  <path d="M26.2083 4.625V10.7917H32.3749" stroke="white" stroke-width="2.3125" stroke-linecap="round" stroke-linejoin="round"/>
  <path d="M33.9166 3.0835L26.2083 10.7918" stroke="white" stroke-width="2.3125" stroke-linecap="round" stroke-linejoin="round"/>
</svg>