<svg width="28" height="29" viewBox="0 0 28 29" fill="none" xmlns="http://www.w3.org/2000/svg">
<path d="M13.0664 1.05322H7.90554C3.66118 1.05322 1 4.05809 1 8.31212V19.7878C1 24.0418 3.64876 27.0467 7.90554 27.0467H20.0851C24.3433 27.0467 26.9921 24.0418 26.9921 19.7878V14.228" stroke="white" stroke-width="2" stroke-linecap="round" stroke-linejoin="round"/>
<path fill-rule="evenodd" clip-rule="evenodd" d="M9.38855 12.2776L19.7034 1.96275C20.9884 0.679085 23.0713 0.679085 24.3563 1.96275L26.0361 3.64255C27.3212 4.92759 27.3212 7.01181 26.0361 8.29547L15.6716 18.66C15.1098 19.2218 14.3479 19.5379 13.5529 19.5379H8.38232L8.51207 14.3204C8.53139 13.553 8.84472 12.8214 9.38855 12.2776Z" stroke="white" stroke-width="2" stroke-linecap="round" stroke-linejoin="round"/>
<path d="M18.136 3.55664L24.4383 9.859" stroke="white" stroke-width="2" stroke-linecap="round" stroke-linejoin="round"/>
</svg>
