<svg xmlns="http://www.w3.org/2000/svg" width="25" height="15" viewBox="0 0 25 25" fill="none">
  <path d="M21.0938 0H3.90625C2.65625 0 1.5625 1.09375 1.5625 2.34375V22.6562C1.5625 23.9062 2.65625 25 3.90625 25H21.0938C22.3438 25 23.4375 23.9062 23.4375 22.6562V2.34375C23.4375 1.09375 22.3438 0 21.0938 0ZM7.8125 21.25C7.8125 21.5625 7.5 21.875 7.1875 21.875H5.3125C5 21.875 4.6875 21.5625 4.6875 21.25V19.375C4.6875 19.0625 5 18.75 5.3125 18.75H7.1875C7.5 18.75 7.8125 19.0625 7.8125 19.375V21.25ZM7.8125 15C7.8125 15.3125 7.5 15.625 7.1875 15.625H5.3125C5 15.625 4.6875 15.3125 4.6875 15V13.125C4.6875 12.8125 5 12.5 5.3125 12.5H7.1875C7.5 12.5 7.8125 12.8125 7.8125 13.125V15ZM14.0625 21.25C14.0625 21.5625 13.75 21.875 13.4375 21.875H11.5625C11.25 21.875 10.9375 21.5625 10.9375 21.25V19.375C10.9375 19.0625 11.25 18.75 11.5625 18.75H13.4375C13.75 18.75 14.0625 19.0625 14.0625 19.375V21.25ZM14.0625 15C14.0625 15.3125 13.75 15.625 13.4375 15.625H11.5625C11.25 15.625 10.9375 15.3125 10.9375 15V13.125C10.9375 12.8125 11.25 12.5 11.5625 12.5H13.4375C13.75 12.5 14.0625 12.8125 14.0625 13.125V15ZM20.3125 21.25C20.3125 21.5625 20 21.875 19.6875 21.875H17.8125C17.5 21.875 17.1875 21.5625 17.1875 21.25V13.125C17.1875 12.8125 17.5 12.5 17.8125 12.5H19.6875C20 12.5 20.3125 12.8125 20.3125 13.125V21.25ZM20.3125 8.75C20.3125 9.0625 20 9.375 19.6875 9.375H5.3125C5 9.375 4.6875 9.0625 4.6875 8.75V3.75C4.6875 3.4375 5 3.125 5.3125 3.125H19.6875C20 3.125 20.3125 3.4375 20.3125 3.75V8.75Z" fill="white"/>
</svg>