<svg xmlns="http://www.w3.org/2000/svg" width="37" height="37" viewBox="0 0 37 37" fill="none">
  <path d="M30.1129 29.2336H7.76635V6.88702C7.76635 6.41078 7.36338 6.00781 6.88714 6.00781C6.4109 6.00781 6.00793 6.41078 6.00793 6.88702V30.1128C6.00793 30.589 6.4109 30.992 6.88714 30.992H30.1129C30.5891 30.992 30.9921 30.589 30.9921 30.1128C30.9921 29.6365 30.5891 29.2336 30.1129 29.2336Z" fill="white"/>
  <path d="M16.302 25.8269V13.1517C16.302 12.6754 15.899 12.2725 15.4228 12.2725C14.9465 12.2725 14.5436 12.6754 14.5436 13.1517V25.8636C14.5436 26.3398 14.9465 26.7428 15.4228 26.7428C15.899 26.7428 16.302 26.3398 16.302 25.8269ZM12.0525 25.8269V13.1517C12.0525 12.6754 11.6495 12.2725 11.1733 12.2725C10.697 12.2725 10.2941 12.6754 10.2941 13.1517V25.8636C10.2941 26.3398 10.697 26.7428 11.1733 26.7428C11.6495 26.7061 12.0525 26.3398 12.0525 25.8269ZM24.8376 25.8269V13.1517C24.8376 12.6754 24.4347 12.2725 23.9584 12.2725C23.4822 12.2725 23.0792 12.6754 23.0792 13.1517V25.8636C23.0792 26.3398 23.4822 26.7428 23.9584 26.7428C24.4347 26.7061 24.8376 26.3398 24.8376 25.8269ZM29.0871 25.8269V19.4893C29.0871 19.0131 28.6842 18.6101 28.2079 18.6101C27.7317 18.6101 27.3287 19.0131 27.3287 19.4893V25.8269C27.3287 26.3032 27.7317 26.7061 28.2079 26.7061C28.6842 26.7061 29.0871 26.3398 29.0871 25.8269ZM20.5515 25.8269V19.4893C20.5515 19.0131 20.1485 18.6101 19.6723 18.6101C19.196 18.6101 18.7931 19.0131 18.7931 19.4893V25.8269C18.7931 26.3032 19.196 26.7061 19.6723 26.7061C20.1485 26.7061 20.5515 26.3398 20.5515 25.8269Z" fill="white"/>
</svg>