<svg width="37" height="37" viewBox="0 0 37 37" fill="none" xmlns="http://www.w3.org/2000/svg">
<path d="M33.9166 18.5002C33.9166 27.0102 27.0099 33.9168 18.4999 33.9168C9.98992 33.9168 3.08325 27.0102 3.08325 18.5002C3.08325 9.99016 9.98992 3.0835 18.4999 3.0835" stroke="white" stroke-width="3" stroke-linecap="round" stroke-linejoin="round"/>
<g clip-path="url(#clip0_28_5200)">
<path d="M17.8716 18.1914C19.0628 18.1914 20.0943 17.837 20.9371 17.1379C21.7799 16.4389 22.2071 15.5836 22.2071 14.5956C22.2071 13.6078 21.7799 12.7525 20.9369 12.0532C20.094 11.3543 19.0627 11 17.8716 11C16.6803 11 15.6491 11.3543 14.8063 12.0533C13.9635 12.7523 13.5361 13.6077 13.5361 14.5956C13.5361 15.5836 13.9635 16.439 14.8064 17.138C15.6494 17.8369 16.6807 18.1914 17.8716 18.1914V18.1914Z" fill="white"/>
<path d="M25.4577 22.4798C25.4333 22.1889 25.3842 21.8716 25.3118 21.5365C25.2388 21.1989 25.1447 20.8797 25.0321 20.588C24.9158 20.2866 24.7576 19.9888 24.562 19.7035C24.359 19.4074 24.1206 19.1495 23.8531 18.9373C23.5734 18.7153 23.2309 18.5368 22.8348 18.4066C22.4401 18.2771 22.0027 18.2115 21.5349 18.2115C21.3511 18.2115 21.1734 18.2741 20.8302 18.4594C20.619 18.5736 20.3719 18.7057 20.0962 18.8519C19.8604 18.9765 19.541 19.0932 19.1464 19.1989C18.7615 19.3022 18.3707 19.3546 17.9849 19.3546C17.5991 19.3546 17.2084 19.3022 16.8231 19.1989C16.429 19.0933 16.1095 18.9766 15.874 18.852C15.6009 18.7072 15.3537 18.5751 15.1393 18.4593C14.7965 18.274 14.6187 18.2114 14.4349 18.2114C13.9669 18.2114 13.5297 18.2771 13.1351 18.4068C12.7393 18.5367 12.3967 18.7152 12.1167 18.9374C11.8493 19.1497 11.6108 19.4075 11.4081 19.7035C11.2126 19.9888 11.0544 20.2864 10.938 20.5882C10.8255 20.8799 10.7314 21.1989 10.6584 21.5365C10.586 21.8711 10.5368 22.1886 10.5125 22.4801C10.4886 22.7658 10.4766 23.0623 10.4766 23.3617C10.4766 24.141 10.7753 24.7719 11.3643 25.2372C11.946 25.6963 12.7157 25.9292 13.6517 25.9292H22.3189C23.2549 25.9292 24.0244 25.6964 24.6062 25.2372C25.1954 24.7722 25.494 24.1412 25.494 23.3616C25.4939 23.0608 25.4817 22.7641 25.4577 22.4798V22.4798Z" fill="white"/>
</g>
<defs>
<clipPath id="clip0_28_5200">
<rect width="18" height="14.9291" fill="white" transform="translate(9 11)"/>
</clipPath>
</defs>
</svg>
