<svg width="30" height="30" viewBox="0 0 30 30" fill="none" xmlns="http://www.w3.org/2000/svg">
<g clip-path="url(#clip0_28_1474)">
<path d="M23.2664 0H6.73363C3.01475 0 0 3.01475 0 6.73363V23.2664C0 26.9852 3.01475 30 6.73363 30H23.2664C26.9852 30 30 26.9852 30 23.2664V6.73363C30 3.01475 26.9852 0 23.2664 0Z" fill="#189D0E"/>
<path fill-rule="evenodd" clip-rule="evenodd" d="M7.36743 22.6739L7.60643 21.7699C7.85583 20.845 8.11561 19.9306 8.35462 19.0058C8.40531 18.8611 8.40531 18.7036 8.35462 18.5589C7.49652 16.958 7.23961 15.1029 7.63034 13.3291C8.02107 11.5553 9.03364 9.97982 10.485 8.88764C11.9363 7.79546 13.7305 7.25867 15.5432 7.37433C17.3558 7.49 19.0673 8.25049 20.368 9.51828C21.6687 10.7861 22.4728 12.4775 22.6349 14.2866C22.797 16.0957 22.3064 17.9031 21.2518 19.3819C20.1972 20.8607 18.6482 21.9134 16.885 22.3494C15.1217 22.7855 13.2607 22.5763 11.6383 21.7595C11.4863 21.7102 11.3227 21.7102 11.1707 21.7595C9.11319 22.2167 7.78309 22.5908 7.36743 22.6739V22.6739ZM9.14436 20.9282C9.90294 20.7307 10.5992 20.5541 11.2954 20.367C11.3821 20.3407 11.4735 20.3335 11.5632 20.3461C11.6529 20.3587 11.7388 20.3906 11.815 20.4398C13.0793 21.1952 14.5702 21.4786 16.0235 21.2399C17.3592 21.0298 18.5933 20.3994 19.5464 19.4402C20.4995 18.481 21.122 17.243 21.3237 15.9059C21.5253 14.5688 21.2955 13.2023 20.6676 12.0047C20.0398 10.8071 19.0465 9.84083 17.8321 9.24614C16.6177 8.65144 15.2454 8.45931 13.9144 8.69764C12.5833 8.93596 11.3629 9.59233 10.4303 10.5714C9.49769 11.5506 8.90144 12.8015 8.72813 14.1425C8.55481 15.4835 8.81345 16.8449 9.4665 18.029C9.58467 18.2039 9.6595 18.4045 9.6848 18.6141C9.7101 18.8237 9.68513 19.0363 9.61198 19.2344C9.42493 19.7435 9.35219 20.3151 9.14436 20.9282V20.9282Z" fill="white"/>
<path fill-rule="evenodd" clip-rule="evenodd" d="M17.0107 18.5902C15.5247 18.5382 13.1555 17.364 11.5344 14.5479C11.2403 14.0974 11.1145 13.5577 11.1792 13.0236C11.2438 12.4895 11.4947 11.9953 11.8877 11.6279C12.0257 11.5246 12.1872 11.4571 12.3578 11.4317C12.5283 11.4064 12.7024 11.4238 12.8645 11.4825C12.9477 11.4825 13.0308 11.6175 13.0724 11.7111C13.2906 12.1995 13.4984 12.6983 13.6855 13.197C13.7894 13.4672 13.6023 13.7166 13.2179 14.1531C13.1652 14.2136 13.1362 14.2911 13.1362 14.3713C13.1362 14.4515 13.1652 14.529 13.2179 14.5895C13.8113 15.6254 14.7433 16.4254 15.8573 16.8548C15.9257 16.8908 16.005 16.9001 16.0799 16.8809C16.1548 16.8617 16.2199 16.8154 16.2625 16.7509C16.8652 16.0131 16.9276 15.7949 17.3017 15.9404C18.8396 16.6782 18.9539 16.7093 18.9643 16.8756C18.974 17.1245 18.9281 17.3724 18.8298 17.6013C18.7315 17.8302 18.5834 18.0342 18.3961 18.1985C18.2089 18.3628 17.9874 18.4832 17.7477 18.551C17.508 18.6188 17.2562 18.6321 17.0107 18.5902V18.5902Z" fill="white"/>
</g>
<defs>
<clipPath id="clip0_28_1474">
<rect width="30" height="30" fill="white"/>
</clipPath>
</defs>
</svg>
