<svg xmlns="http://www.w3.org/2000/svg" width="21" height="21" viewBox="0 0 21 21" fill="none">
  <path fill-rule="evenodd" clip-rule="evenodd" d="M6.44613 6.76594C6.80837 6.76594 7.10238 7.05994 7.10238 7.42219C7.10238 7.78444 6.80837 8.07844 6.44613 8.07844H5.62275C4.2105 8.07844 3.0625 9.22556 3.0625 10.6369V14.9113C3.0625 16.3279 4.214 17.4794 5.63063 17.4794H15.3781C16.7886 17.4794 17.9375 16.3306 17.9375 14.9201V10.6466C17.9375 9.22994 16.7851 8.07844 15.3702 8.07844H14.5547C14.1925 8.07844 13.8985 7.78444 13.8985 7.42219C13.8985 7.05994 14.1925 6.76594 14.5547 6.76594H15.3702C17.5096 6.76594 19.25 8.50719 19.25 10.6466V14.9201C19.25 17.0551 17.5122 18.7919 15.3781 18.7919H5.63063C3.49125 18.7919 1.75 17.0516 1.75 14.9113V10.6369C1.75 8.50194 3.48688 6.76594 5.62275 6.76594H6.44613ZM10.5007 2.625C10.863 2.625 11.1569 2.919 11.1569 3.28125L11.1562 12.229L12.5876 10.7922C12.8431 10.535 13.2578 10.535 13.5151 10.7905C13.7715 11.046 13.7723 11.4616 13.5168 11.7189L10.9712 14.2744C10.9464 14.3 10.9194 14.3236 10.8907 14.3448L10.9653 14.28C10.9371 14.3086 10.9066 14.3342 10.8741 14.3568C10.8542 14.3705 10.8341 14.3829 10.8132 14.3942C10.8032 14.3997 10.7926 14.4051 10.7819 14.4101C10.7628 14.4192 10.7433 14.4274 10.7232 14.4346C10.7132 14.4382 10.7031 14.4415 10.693 14.4446C10.6684 14.4523 10.643 14.4584 10.6171 14.4631C10.6113 14.464 10.606 14.4649 10.6007 14.4657C10.5798 14.469 10.5581 14.4713 10.536 14.4724C10.5241 14.4731 10.5124 14.4734 10.5007 14.4734L10.4659 14.4707L10.4117 14.4674C10.4078 14.4669 10.404 14.4663 10.4001 14.4657L10.5007 14.4734C10.4616 14.4734 10.4228 14.4699 10.3848 14.4631C10.3584 14.4584 10.3332 14.4523 10.3085 14.4447C10.2986 14.4416 10.289 14.4384 10.2794 14.435C10.2593 14.4279 10.2394 14.4196 10.2201 14.4104C10.2083 14.4049 10.1966 14.3989 10.1851 14.3926C10.169 14.3837 10.1534 14.3742 10.1382 14.3642C10.1279 14.3573 10.1175 14.35 10.1073 14.3423C10.0823 14.3236 10.0588 14.3031 10.0367 14.2811L10.0361 14.28L7.48458 11.7189C7.22907 11.4616 7.22995 11.046 7.48633 10.7905C7.74358 10.535 8.15833 10.535 8.41383 10.7922L9.84375 12.229L9.84445 3.28125C9.84445 2.919 10.1384 2.625 10.5007 2.625Z" fill="#A0AEC0"/>
</svg>