<svg xmlns="http://www.w3.org/2000/svg" width="20" height="20" viewBox="0 0 20 20" fill="none">
  <path fill-rule="evenodd" clip-rule="evenodd" d="M9.8172 1.66692C11.9954 1.66692 13.7948 3.32663 14.0167 5.44935L14.0786 5.45008C15.2869 5.45008 16.7561 6.25258 17.2519 8.50342L17.9094 13.5926C18.1453 15.2351 17.8503 16.5526 17.0311 17.4976C16.2161 18.4376 14.9261 18.9351 13.3003 18.9351H6.34361C4.55778 18.9351 3.31361 18.4976 2.53945 17.5984C1.76195 16.6967 1.50195 15.3442 1.76695 13.5792L2.41361 8.55758C2.83861 6.25508 4.39278 5.45008 5.59611 5.45008C5.7 4.49215 6.13194 3.58083 6.8172 2.89775C7.6047 2.11525 8.69053 1.66692 9.7997 1.66692H9.8172ZM14.0786 6.70008H5.59611C5.22861 6.70008 4.00028 6.84842 3.64778 8.75175L3.00445 13.7517C2.79528 15.1542 2.95695 16.1692 3.48611 16.7834C4.00861 17.3901 4.94361 17.6851 6.34361 17.6851H13.3003C14.1736 17.6851 15.3661 17.5109 16.0861 16.6792C16.6578 16.0201 16.8544 15.0384 16.6711 13.7609L16.0219 8.71758C15.7453 7.47508 15.0153 6.70008 14.0786 6.70008ZM12.2476 9.02016C12.5926 9.02016 12.8918 9.30017 12.8918 9.64516C12.8918 9.99016 12.6309 10.2702 12.2859 10.2702H12.2476C11.9026 10.2702 11.6226 9.99016 11.6226 9.64516C11.6226 9.30017 11.9026 9.02016 12.2476 9.02016ZM7.3892 9.02016C7.7342 9.02016 8.03336 9.30017 8.03336 9.64516C8.03336 9.99016 7.7717 10.2702 7.4267 10.2702H7.3892C7.0442 10.2702 6.7642 9.99016 6.7642 9.64516C6.7642 9.30017 7.0442 9.02016 7.3892 9.02016ZM9.8147 2.91692H9.8022C9.01803 2.91692 8.25386 3.23275 7.6997 3.78358C7.24828 4.23297 6.95304 4.82375 6.85754 5.44969L12.7569 5.44993C12.5428 4.01806 11.3046 2.91692 9.8147 2.91692Z" fill="#A0AEC0"/>
</svg>