<svg xmlns="http://www.w3.org/2000/svg" width="18" height="16" viewBox="0 0 18 16" fill="none">
  <path fill-rule="evenodd" clip-rule="evenodd" d="M12.2017 0C14.9575 0 17.1992 2.24167 17.1992 4.99833V10.9792C17.1992 13.735 14.9575 15.9775 12.2017 15.9775H4.99833C2.2425 15.9775 0 13.735 0 10.9792V4.99833C0 2.24167 2.2425 0 4.99833 0H12.2017ZM12.2017 1.25H4.99833C2.93167 1.25 1.25 2.93167 1.25 4.99833V10.9792C1.25 13.0458 2.93167 14.7275 4.99833 14.7275H12.2017C14.2683 14.7275 15.9492 13.0458 15.9492 10.9792V10.7458L13.2009 10.7463C11.6201 10.7463 10.3334 9.4605 10.3326 7.8805C10.3326 6.29883 11.6193 5.01217 13.2009 5.01133L15.9492 5.01083V4.99833C15.9492 2.93167 14.2683 1.25 12.2017 1.25ZM15.9492 6.26083L13.2009 6.26133C12.3084 6.26217 11.5826 6.988 11.5826 7.87967C11.5826 8.7705 12.3092 9.49633 13.2009 9.49633L15.9492 9.49583V6.26083ZM13.5823 7.203C13.9273 7.203 14.2073 7.483 14.2073 7.828C14.2073 8.173 13.9273 8.453 13.5823 8.453H13.3223C12.9773 8.453 12.6973 8.173 12.6973 7.828C12.6973 7.483 12.9773 7.203 13.3223 7.203H13.5823ZM8.90417 3.78175C9.24917 3.78175 9.52917 4.06175 9.52917 4.40675C9.52917 4.75175 9.24917 5.03175 8.90417 5.03175H4.405C4.06 5.03175 3.78 4.75175 3.78 4.40675C3.78 4.06175 4.06 3.78175 4.405 3.78175H8.90417Z" fill="#A0AEC0"/>
</svg>